G04 #@! TF.GenerationSoftware,KiCad,Pcbnew,5.1.8*
G04 #@! TF.CreationDate,2020-11-23T23:25:53+02:00*
G04 #@! TF.ProjectId,catahack,63617461-6861-4636-9b2e-6b696361645f,0*
G04 #@! TF.SameCoordinates,Original*
G04 #@! TF.FileFunction,Copper,L1,Top*
G04 #@! TF.FilePolarity,Positive*
%FSLAX46Y46*%
G04 Gerber Fmt 4.6, Leading zero omitted, Abs format (unit mm)*
G04 Created by KiCad (PCBNEW 5.1.8) date 2020-11-23 23:25:53*
%MOMM*%
%LPD*%
G01*
G04 APERTURE LIST*
G04 #@! TA.AperFunction,EtchedComponent*
%ADD10C,0.100000*%
G04 #@! TD*
G04 #@! TA.AperFunction,SMDPad,CuDef*
%ADD11R,1.100000X1.100000*%
G04 #@! TD*
G04 #@! TA.AperFunction,ComponentPad*
%ADD12C,2.500000*%
G04 #@! TD*
G04 #@! TA.AperFunction,ComponentPad*
%ADD13C,7.600000*%
G04 #@! TD*
G04 #@! TA.AperFunction,ComponentPad*
%ADD14R,1.700000X1.700000*%
G04 #@! TD*
G04 #@! TA.AperFunction,ComponentPad*
%ADD15O,1.700000X1.700000*%
G04 #@! TD*
G04 #@! TA.AperFunction,SMDPad,CuDef*
%ADD16R,1.780000X1.500000*%
G04 #@! TD*
G04 #@! TA.AperFunction,ComponentPad*
%ADD17R,1.524000X1.524000*%
G04 #@! TD*
G04 #@! TA.AperFunction,ComponentPad*
%ADD18C,1.524000*%
G04 #@! TD*
G04 #@! TA.AperFunction,SMDPad,CuDef*
%ADD19R,1.300000X4.000000*%
G04 #@! TD*
G04 #@! TA.AperFunction,SMDPad,CuDef*
%ADD20C,0.100000*%
G04 #@! TD*
G04 #@! TA.AperFunction,ComponentPad*
%ADD21C,1.650000*%
G04 #@! TD*
G04 #@! TA.AperFunction,SMDPad,CuDef*
%ADD22R,1.560000X0.650000*%
G04 #@! TD*
G04 #@! TA.AperFunction,ComponentPad*
%ADD23C,1.700000*%
G04 #@! TD*
G04 #@! TA.AperFunction,ComponentPad*
%ADD24C,3.500000*%
G04 #@! TD*
G04 #@! TA.AperFunction,SMDPad,CuDef*
%ADD25R,1.750000X0.450000*%
G04 #@! TD*
G04 #@! TA.AperFunction,SMDPad,CuDef*
%ADD26R,1.100000X0.400000*%
G04 #@! TD*
G04 #@! TA.AperFunction,SMDPad,CuDef*
%ADD27R,6.400000X5.800000*%
G04 #@! TD*
G04 #@! TA.AperFunction,SMDPad,CuDef*
%ADD28R,2.200000X1.200000*%
G04 #@! TD*
G04 #@! TA.AperFunction,ViaPad*
%ADD29C,0.800000*%
G04 #@! TD*
G04 #@! TA.AperFunction,ViaPad*
%ADD30C,1.600000*%
G04 #@! TD*
G04 #@! TA.AperFunction,Conductor*
%ADD31C,0.500000*%
G04 #@! TD*
G04 #@! TA.AperFunction,Conductor*
%ADD32C,0.300000*%
G04 #@! TD*
G04 #@! TA.AperFunction,Conductor*
%ADD33C,1.000000*%
G04 #@! TD*
G04 #@! TA.AperFunction,Conductor*
%ADD34C,0.261000*%
G04 #@! TD*
G04 #@! TA.AperFunction,Conductor*
%ADD35C,0.261112*%
G04 #@! TD*
G04 APERTURE END LIST*
D10*
G36*
X86660000Y-117725000D02*
G01*
X86660000Y-117225000D01*
X86060000Y-117225000D01*
X86060000Y-117725000D01*
X86660000Y-117725000D01*
G37*
G36*
X81580000Y-117725000D02*
G01*
X81580000Y-117225000D01*
X80980000Y-117225000D01*
X80980000Y-117725000D01*
X81580000Y-117725000D01*
G37*
G36*
X56265000Y-112060000D02*
G01*
X56765000Y-112060000D01*
X56765000Y-111460000D01*
X56265000Y-111460000D01*
X56265000Y-112060000D01*
G37*
G36*
X52955000Y-111460000D02*
G01*
X52455000Y-111460000D01*
X52455000Y-112060000D01*
X52955000Y-112060000D01*
X52955000Y-111460000D01*
G37*
G36*
X72140000Y-112060000D02*
G01*
X72640000Y-112060000D01*
X72640000Y-111460000D01*
X72140000Y-111460000D01*
X72140000Y-112060000D01*
G37*
G36*
X68830000Y-111460000D02*
G01*
X68330000Y-111460000D01*
X68330000Y-112060000D01*
X68830000Y-112060000D01*
X68830000Y-111460000D01*
G37*
G36*
X55495000Y-63200000D02*
G01*
X54995000Y-63200000D01*
X54995000Y-63800000D01*
X55495000Y-63800000D01*
X55495000Y-63200000D01*
G37*
G36*
X55510000Y-70820000D02*
G01*
X55010000Y-70820000D01*
X55010000Y-71420000D01*
X55510000Y-71420000D01*
X55510000Y-70820000D01*
G37*
G36*
X55510000Y-60660000D02*
G01*
X55010000Y-60660000D01*
X55010000Y-61260000D01*
X55510000Y-61260000D01*
X55510000Y-60660000D01*
G37*
G36*
X55510000Y-68280000D02*
G01*
X55010000Y-68280000D01*
X55010000Y-68880000D01*
X55510000Y-68880000D01*
X55510000Y-68280000D01*
G37*
G36*
X55510000Y-65740000D02*
G01*
X55010000Y-65740000D01*
X55010000Y-66340000D01*
X55510000Y-66340000D01*
X55510000Y-65740000D01*
G37*
G36*
X55510000Y-73360000D02*
G01*
X55010000Y-73360000D01*
X55010000Y-73960000D01*
X55510000Y-73960000D01*
X55510000Y-73360000D01*
G37*
G04 #@! TA.AperFunction,SMDPad,CuDef*
G36*
G01*
X97605001Y-111550000D02*
X96704999Y-111550000D01*
G75*
G02*
X96455000Y-111300001I0J249999D01*
G01*
X96455000Y-110649999D01*
G75*
G02*
X96704999Y-110400000I249999J0D01*
G01*
X97605001Y-110400000D01*
G75*
G02*
X97855000Y-110649999I0J-249999D01*
G01*
X97855000Y-111300001D01*
G75*
G02*
X97605001Y-111550000I-249999J0D01*
G01*
G37*
G04 #@! TD.AperFunction*
G04 #@! TA.AperFunction,SMDPad,CuDef*
G36*
G01*
X97605001Y-113600000D02*
X96704999Y-113600000D01*
G75*
G02*
X96455000Y-113350001I0J249999D01*
G01*
X96455000Y-112699999D01*
G75*
G02*
X96704999Y-112450000I249999J0D01*
G01*
X97605001Y-112450000D01*
G75*
G02*
X97855000Y-112699999I0J-249999D01*
G01*
X97855000Y-113350001D01*
G75*
G02*
X97605001Y-113600000I-249999J0D01*
G01*
G37*
G04 #@! TD.AperFunction*
G04 #@! TA.AperFunction,SMDPad,CuDef*
G36*
G01*
X113170000Y-55235000D02*
X113170000Y-53985000D01*
G75*
G02*
X113420000Y-53735000I250000J0D01*
G01*
X114345000Y-53735000D01*
G75*
G02*
X114595000Y-53985000I0J-250000D01*
G01*
X114595000Y-55235000D01*
G75*
G02*
X114345000Y-55485000I-250000J0D01*
G01*
X113420000Y-55485000D01*
G75*
G02*
X113170000Y-55235000I0J250000D01*
G01*
G37*
G04 #@! TD.AperFunction*
G04 #@! TA.AperFunction,SMDPad,CuDef*
G36*
G01*
X110195000Y-55235000D02*
X110195000Y-53985000D01*
G75*
G02*
X110445000Y-53735000I250000J0D01*
G01*
X111370000Y-53735000D01*
G75*
G02*
X111620000Y-53985000I0J-250000D01*
G01*
X111620000Y-55235000D01*
G75*
G02*
X111370000Y-55485000I-250000J0D01*
G01*
X110445000Y-55485000D01*
G75*
G02*
X110195000Y-55235000I0J250000D01*
G01*
G37*
G04 #@! TD.AperFunction*
D11*
X39370000Y-129670000D03*
X39370000Y-126870000D03*
X120145000Y-49530000D03*
X117345000Y-49530000D03*
X118875000Y-106680000D03*
X116075000Y-106680000D03*
G04 #@! TA.AperFunction,SMDPad,CuDef*
G36*
G01*
X89845000Y-103705000D02*
X89845000Y-103305000D01*
G75*
G02*
X90045000Y-103105000I200000J0D01*
G01*
X96645000Y-103105000D01*
G75*
G02*
X96845000Y-103305000I0J-200000D01*
G01*
X96845000Y-103705000D01*
G75*
G02*
X96645000Y-103905000I-200000J0D01*
G01*
X90045000Y-103905000D01*
G75*
G02*
X89845000Y-103705000I0J200000D01*
G01*
G37*
G04 #@! TD.AperFunction*
G04 #@! TA.AperFunction,SMDPad,CuDef*
G36*
G01*
X99370000Y-103705000D02*
X99370000Y-103305000D01*
G75*
G02*
X99570000Y-103105000I200000J0D01*
G01*
X106170000Y-103105000D01*
G75*
G02*
X106370000Y-103305000I0J-200000D01*
G01*
X106370000Y-103705000D01*
G75*
G02*
X106170000Y-103905000I-200000J0D01*
G01*
X99570000Y-103905000D01*
G75*
G02*
X99370000Y-103705000I0J200000D01*
G01*
G37*
G04 #@! TD.AperFunction*
G04 #@! TA.AperFunction,SMDPad,CuDef*
G36*
G01*
X89845000Y-102435000D02*
X89845000Y-102035000D01*
G75*
G02*
X90045000Y-101835000I200000J0D01*
G01*
X96645000Y-101835000D01*
G75*
G02*
X96845000Y-102035000I0J-200000D01*
G01*
X96845000Y-102435000D01*
G75*
G02*
X96645000Y-102635000I-200000J0D01*
G01*
X90045000Y-102635000D01*
G75*
G02*
X89845000Y-102435000I0J200000D01*
G01*
G37*
G04 #@! TD.AperFunction*
G04 #@! TA.AperFunction,SMDPad,CuDef*
G36*
G01*
X99370000Y-102435000D02*
X99370000Y-102035000D01*
G75*
G02*
X99570000Y-101835000I200000J0D01*
G01*
X106170000Y-101835000D01*
G75*
G02*
X106370000Y-102035000I0J-200000D01*
G01*
X106370000Y-102435000D01*
G75*
G02*
X106170000Y-102635000I-200000J0D01*
G01*
X99570000Y-102635000D01*
G75*
G02*
X99370000Y-102435000I0J200000D01*
G01*
G37*
G04 #@! TD.AperFunction*
G04 #@! TA.AperFunction,SMDPad,CuDef*
G36*
G01*
X89845000Y-101165000D02*
X89845000Y-100765000D01*
G75*
G02*
X90045000Y-100565000I200000J0D01*
G01*
X96645000Y-100565000D01*
G75*
G02*
X96845000Y-100765000I0J-200000D01*
G01*
X96845000Y-101165000D01*
G75*
G02*
X96645000Y-101365000I-200000J0D01*
G01*
X90045000Y-101365000D01*
G75*
G02*
X89845000Y-101165000I0J200000D01*
G01*
G37*
G04 #@! TD.AperFunction*
G04 #@! TA.AperFunction,SMDPad,CuDef*
G36*
G01*
X99370000Y-101165000D02*
X99370000Y-100765000D01*
G75*
G02*
X99570000Y-100565000I200000J0D01*
G01*
X106170000Y-100565000D01*
G75*
G02*
X106370000Y-100765000I0J-200000D01*
G01*
X106370000Y-101165000D01*
G75*
G02*
X106170000Y-101365000I-200000J0D01*
G01*
X99570000Y-101365000D01*
G75*
G02*
X99370000Y-101165000I0J200000D01*
G01*
G37*
G04 #@! TD.AperFunction*
G04 #@! TA.AperFunction,SMDPad,CuDef*
G36*
G01*
X89845000Y-99895000D02*
X89845000Y-99495000D01*
G75*
G02*
X90045000Y-99295000I200000J0D01*
G01*
X96645000Y-99295000D01*
G75*
G02*
X96845000Y-99495000I0J-200000D01*
G01*
X96845000Y-99895000D01*
G75*
G02*
X96645000Y-100095000I-200000J0D01*
G01*
X90045000Y-100095000D01*
G75*
G02*
X89845000Y-99895000I0J200000D01*
G01*
G37*
G04 #@! TD.AperFunction*
G04 #@! TA.AperFunction,SMDPad,CuDef*
G36*
G01*
X99370000Y-99895000D02*
X99370000Y-99495000D01*
G75*
G02*
X99570000Y-99295000I200000J0D01*
G01*
X106170000Y-99295000D01*
G75*
G02*
X106370000Y-99495000I0J-200000D01*
G01*
X106370000Y-99895000D01*
G75*
G02*
X106170000Y-100095000I-200000J0D01*
G01*
X99570000Y-100095000D01*
G75*
G02*
X99370000Y-99895000I0J200000D01*
G01*
G37*
G04 #@! TD.AperFunction*
G04 #@! TA.AperFunction,SMDPad,CuDef*
G36*
G01*
X89845000Y-98625000D02*
X89845000Y-98225000D01*
G75*
G02*
X90045000Y-98025000I200000J0D01*
G01*
X96645000Y-98025000D01*
G75*
G02*
X96845000Y-98225000I0J-200000D01*
G01*
X96845000Y-98625000D01*
G75*
G02*
X96645000Y-98825000I-200000J0D01*
G01*
X90045000Y-98825000D01*
G75*
G02*
X89845000Y-98625000I0J200000D01*
G01*
G37*
G04 #@! TD.AperFunction*
G04 #@! TA.AperFunction,SMDPad,CuDef*
G36*
G01*
X99370000Y-98625000D02*
X99370000Y-98225000D01*
G75*
G02*
X99570000Y-98025000I200000J0D01*
G01*
X106170000Y-98025000D01*
G75*
G02*
X106370000Y-98225000I0J-200000D01*
G01*
X106370000Y-98625000D01*
G75*
G02*
X106170000Y-98825000I-200000J0D01*
G01*
X99570000Y-98825000D01*
G75*
G02*
X99370000Y-98625000I0J200000D01*
G01*
G37*
G04 #@! TD.AperFunction*
G04 #@! TA.AperFunction,SMDPad,CuDef*
G36*
G01*
X89845000Y-97355000D02*
X89845000Y-96955000D01*
G75*
G02*
X90045000Y-96755000I200000J0D01*
G01*
X96645000Y-96755000D01*
G75*
G02*
X96845000Y-96955000I0J-200000D01*
G01*
X96845000Y-97355000D01*
G75*
G02*
X96645000Y-97555000I-200000J0D01*
G01*
X90045000Y-97555000D01*
G75*
G02*
X89845000Y-97355000I0J200000D01*
G01*
G37*
G04 #@! TD.AperFunction*
G04 #@! TA.AperFunction,SMDPad,CuDef*
G36*
G01*
X99370000Y-97355000D02*
X99370000Y-96955000D01*
G75*
G02*
X99570000Y-96755000I200000J0D01*
G01*
X106170000Y-96755000D01*
G75*
G02*
X106370000Y-96955000I0J-200000D01*
G01*
X106370000Y-97355000D01*
G75*
G02*
X106170000Y-97555000I-200000J0D01*
G01*
X99570000Y-97555000D01*
G75*
G02*
X99370000Y-97355000I0J200000D01*
G01*
G37*
G04 #@! TD.AperFunction*
G04 #@! TA.AperFunction,SMDPad,CuDef*
G36*
G01*
X89845000Y-96085000D02*
X89845000Y-95685000D01*
G75*
G02*
X90045000Y-95485000I200000J0D01*
G01*
X96645000Y-95485000D01*
G75*
G02*
X96845000Y-95685000I0J-200000D01*
G01*
X96845000Y-96085000D01*
G75*
G02*
X96645000Y-96285000I-200000J0D01*
G01*
X90045000Y-96285000D01*
G75*
G02*
X89845000Y-96085000I0J200000D01*
G01*
G37*
G04 #@! TD.AperFunction*
G04 #@! TA.AperFunction,SMDPad,CuDef*
G36*
G01*
X99370000Y-96085000D02*
X99370000Y-95685000D01*
G75*
G02*
X99570000Y-95485000I200000J0D01*
G01*
X106170000Y-95485000D01*
G75*
G02*
X106370000Y-95685000I0J-200000D01*
G01*
X106370000Y-96085000D01*
G75*
G02*
X106170000Y-96285000I-200000J0D01*
G01*
X99570000Y-96285000D01*
G75*
G02*
X99370000Y-96085000I0J200000D01*
G01*
G37*
G04 #@! TD.AperFunction*
G04 #@! TA.AperFunction,SMDPad,CuDef*
G36*
G01*
X89845000Y-94815000D02*
X89845000Y-94415000D01*
G75*
G02*
X90045000Y-94215000I200000J0D01*
G01*
X96645000Y-94215000D01*
G75*
G02*
X96845000Y-94415000I0J-200000D01*
G01*
X96845000Y-94815000D01*
G75*
G02*
X96645000Y-95015000I-200000J0D01*
G01*
X90045000Y-95015000D01*
G75*
G02*
X89845000Y-94815000I0J200000D01*
G01*
G37*
G04 #@! TD.AperFunction*
G04 #@! TA.AperFunction,SMDPad,CuDef*
G36*
G01*
X99370000Y-94815000D02*
X99370000Y-94415000D01*
G75*
G02*
X99570000Y-94215000I200000J0D01*
G01*
X106170000Y-94215000D01*
G75*
G02*
X106370000Y-94415000I0J-200000D01*
G01*
X106370000Y-94815000D01*
G75*
G02*
X106170000Y-95015000I-200000J0D01*
G01*
X99570000Y-95015000D01*
G75*
G02*
X99370000Y-94815000I0J200000D01*
G01*
G37*
G04 #@! TD.AperFunction*
G04 #@! TA.AperFunction,SMDPad,CuDef*
G36*
G01*
X89845000Y-93545000D02*
X89845000Y-93145000D01*
G75*
G02*
X90045000Y-92945000I200000J0D01*
G01*
X96645000Y-92945000D01*
G75*
G02*
X96845000Y-93145000I0J-200000D01*
G01*
X96845000Y-93545000D01*
G75*
G02*
X96645000Y-93745000I-200000J0D01*
G01*
X90045000Y-93745000D01*
G75*
G02*
X89845000Y-93545000I0J200000D01*
G01*
G37*
G04 #@! TD.AperFunction*
G04 #@! TA.AperFunction,SMDPad,CuDef*
G36*
G01*
X99370000Y-93545000D02*
X99370000Y-93145000D01*
G75*
G02*
X99570000Y-92945000I200000J0D01*
G01*
X106170000Y-92945000D01*
G75*
G02*
X106370000Y-93145000I0J-200000D01*
G01*
X106370000Y-93545000D01*
G75*
G02*
X106170000Y-93745000I-200000J0D01*
G01*
X99570000Y-93745000D01*
G75*
G02*
X99370000Y-93545000I0J200000D01*
G01*
G37*
G04 #@! TD.AperFunction*
G04 #@! TA.AperFunction,SMDPad,CuDef*
G36*
G01*
X89845000Y-92275000D02*
X89845000Y-91875000D01*
G75*
G02*
X90045000Y-91675000I200000J0D01*
G01*
X96645000Y-91675000D01*
G75*
G02*
X96845000Y-91875000I0J-200000D01*
G01*
X96845000Y-92275000D01*
G75*
G02*
X96645000Y-92475000I-200000J0D01*
G01*
X90045000Y-92475000D01*
G75*
G02*
X89845000Y-92275000I0J200000D01*
G01*
G37*
G04 #@! TD.AperFunction*
G04 #@! TA.AperFunction,SMDPad,CuDef*
G36*
G01*
X99370000Y-92275000D02*
X99370000Y-91875000D01*
G75*
G02*
X99570000Y-91675000I200000J0D01*
G01*
X106170000Y-91675000D01*
G75*
G02*
X106370000Y-91875000I0J-200000D01*
G01*
X106370000Y-92275000D01*
G75*
G02*
X106170000Y-92475000I-200000J0D01*
G01*
X99570000Y-92475000D01*
G75*
G02*
X99370000Y-92275000I0J200000D01*
G01*
G37*
G04 #@! TD.AperFunction*
G04 #@! TA.AperFunction,SMDPad,CuDef*
G36*
G01*
X89845000Y-91005000D02*
X89845000Y-90605000D01*
G75*
G02*
X90045000Y-90405000I200000J0D01*
G01*
X96645000Y-90405000D01*
G75*
G02*
X96845000Y-90605000I0J-200000D01*
G01*
X96845000Y-91005000D01*
G75*
G02*
X96645000Y-91205000I-200000J0D01*
G01*
X90045000Y-91205000D01*
G75*
G02*
X89845000Y-91005000I0J200000D01*
G01*
G37*
G04 #@! TD.AperFunction*
G04 #@! TA.AperFunction,SMDPad,CuDef*
G36*
G01*
X99370000Y-91005000D02*
X99370000Y-90605000D01*
G75*
G02*
X99570000Y-90405000I200000J0D01*
G01*
X106170000Y-90405000D01*
G75*
G02*
X106370000Y-90605000I0J-200000D01*
G01*
X106370000Y-91005000D01*
G75*
G02*
X106170000Y-91205000I-200000J0D01*
G01*
X99570000Y-91205000D01*
G75*
G02*
X99370000Y-91005000I0J200000D01*
G01*
G37*
G04 #@! TD.AperFunction*
G04 #@! TA.AperFunction,SMDPad,CuDef*
G36*
G01*
X99370000Y-89735000D02*
X99370000Y-89335000D01*
G75*
G02*
X99570000Y-89135000I200000J0D01*
G01*
X106170000Y-89135000D01*
G75*
G02*
X106370000Y-89335000I0J-200000D01*
G01*
X106370000Y-89735000D01*
G75*
G02*
X106170000Y-89935000I-200000J0D01*
G01*
X99570000Y-89935000D01*
G75*
G02*
X99370000Y-89735000I0J200000D01*
G01*
G37*
G04 #@! TD.AperFunction*
G04 #@! TA.AperFunction,SMDPad,CuDef*
G36*
G01*
X89845000Y-89735000D02*
X89845000Y-89335000D01*
G75*
G02*
X90045000Y-89135000I200000J0D01*
G01*
X96645000Y-89135000D01*
G75*
G02*
X96845000Y-89335000I0J-200000D01*
G01*
X96845000Y-89735000D01*
G75*
G02*
X96645000Y-89935000I-200000J0D01*
G01*
X90045000Y-89935000D01*
G75*
G02*
X89845000Y-89735000I0J200000D01*
G01*
G37*
G04 #@! TD.AperFunction*
G04 #@! TA.AperFunction,SMDPad,CuDef*
G36*
G01*
X104410000Y-106545000D02*
X104410000Y-105545000D01*
G75*
G02*
X104910000Y-105045000I500000J0D01*
G01*
X105910000Y-105045000D01*
G75*
G02*
X106410000Y-105545000I0J-500000D01*
G01*
X106410000Y-106545000D01*
G75*
G02*
X105910000Y-107045000I-500000J0D01*
G01*
X104910000Y-107045000D01*
G75*
G02*
X104410000Y-106545000I0J500000D01*
G01*
G37*
G04 #@! TD.AperFunction*
G04 #@! TA.AperFunction,SMDPad,CuDef*
G36*
G01*
X86630000Y-97020000D02*
X86630000Y-96020000D01*
G75*
G02*
X87130000Y-95520000I500000J0D01*
G01*
X88130000Y-95520000D01*
G75*
G02*
X88630000Y-96020000I0J-500000D01*
G01*
X88630000Y-97020000D01*
G75*
G02*
X88130000Y-97520000I-500000J0D01*
G01*
X87130000Y-97520000D01*
G75*
G02*
X86630000Y-97020000I0J500000D01*
G01*
G37*
G04 #@! TD.AperFunction*
G04 #@! TA.AperFunction,SMDPad,CuDef*
G36*
G01*
X107585000Y-103370000D02*
X107585000Y-102370000D01*
G75*
G02*
X108085000Y-101870000I500000J0D01*
G01*
X109085000Y-101870000D01*
G75*
G02*
X109585000Y-102370000I0J-500000D01*
G01*
X109585000Y-103370000D01*
G75*
G02*
X109085000Y-103870000I-500000J0D01*
G01*
X108085000Y-103870000D01*
G75*
G02*
X107585000Y-103370000I0J500000D01*
G01*
G37*
G04 #@! TD.AperFunction*
G04 #@! TA.AperFunction,SMDPad,CuDef*
G36*
G01*
X107585000Y-106545000D02*
X107585000Y-105545000D01*
G75*
G02*
X108085000Y-105045000I500000J0D01*
G01*
X109085000Y-105045000D01*
G75*
G02*
X109585000Y-105545000I0J-500000D01*
G01*
X109585000Y-106545000D01*
G75*
G02*
X109085000Y-107045000I-500000J0D01*
G01*
X108085000Y-107045000D01*
G75*
G02*
X107585000Y-106545000I0J500000D01*
G01*
G37*
G04 #@! TD.AperFunction*
G04 #@! TA.AperFunction,SMDPad,CuDef*
G36*
G01*
X104410000Y-109720000D02*
X104410000Y-108720000D01*
G75*
G02*
X104910000Y-108220000I500000J0D01*
G01*
X105910000Y-108220000D01*
G75*
G02*
X106410000Y-108720000I0J-500000D01*
G01*
X106410000Y-109720000D01*
G75*
G02*
X105910000Y-110220000I-500000J0D01*
G01*
X104910000Y-110220000D01*
G75*
G02*
X104410000Y-109720000I0J500000D01*
G01*
G37*
G04 #@! TD.AperFunction*
G04 #@! TA.AperFunction,SMDPad,CuDef*
G36*
G01*
X110760000Y-106545000D02*
X110760000Y-105545000D01*
G75*
G02*
X111260000Y-105045000I500000J0D01*
G01*
X112260000Y-105045000D01*
G75*
G02*
X112760000Y-105545000I0J-500000D01*
G01*
X112760000Y-106545000D01*
G75*
G02*
X112260000Y-107045000I-500000J0D01*
G01*
X111260000Y-107045000D01*
G75*
G02*
X110760000Y-106545000I0J500000D01*
G01*
G37*
G04 #@! TD.AperFunction*
G04 #@! TA.AperFunction,SMDPad,CuDef*
G36*
G01*
X110760000Y-103370000D02*
X110760000Y-102370000D01*
G75*
G02*
X111260000Y-101870000I500000J0D01*
G01*
X112260000Y-101870000D01*
G75*
G02*
X112760000Y-102370000I0J-500000D01*
G01*
X112760000Y-103370000D01*
G75*
G02*
X112260000Y-103870000I-500000J0D01*
G01*
X111260000Y-103870000D01*
G75*
G02*
X110760000Y-103370000I0J500000D01*
G01*
G37*
G04 #@! TD.AperFunction*
G04 #@! TA.AperFunction,SMDPad,CuDef*
G36*
G01*
X107585000Y-109720000D02*
X107585000Y-108720000D01*
G75*
G02*
X108085000Y-108220000I500000J0D01*
G01*
X109085000Y-108220000D01*
G75*
G02*
X109585000Y-108720000I0J-500000D01*
G01*
X109585000Y-109720000D01*
G75*
G02*
X109085000Y-110220000I-500000J0D01*
G01*
X108085000Y-110220000D01*
G75*
G02*
X107585000Y-109720000I0J500000D01*
G01*
G37*
G04 #@! TD.AperFunction*
G04 #@! TA.AperFunction,SMDPad,CuDef*
G36*
G01*
X80280000Y-90670000D02*
X80280000Y-89670000D01*
G75*
G02*
X80780000Y-89170000I500000J0D01*
G01*
X81780000Y-89170000D01*
G75*
G02*
X82280000Y-89670000I0J-500000D01*
G01*
X82280000Y-90670000D01*
G75*
G02*
X81780000Y-91170000I-500000J0D01*
G01*
X80780000Y-91170000D01*
G75*
G02*
X80280000Y-90670000I0J500000D01*
G01*
G37*
G04 #@! TD.AperFunction*
G04 #@! TA.AperFunction,SMDPad,CuDef*
G36*
G01*
X86630000Y-93845000D02*
X86630000Y-92845000D01*
G75*
G02*
X87130000Y-92345000I500000J0D01*
G01*
X88130000Y-92345000D01*
G75*
G02*
X88630000Y-92845000I0J-500000D01*
G01*
X88630000Y-93845000D01*
G75*
G02*
X88130000Y-94345000I-500000J0D01*
G01*
X87130000Y-94345000D01*
G75*
G02*
X86630000Y-93845000I0J500000D01*
G01*
G37*
G04 #@! TD.AperFunction*
G04 #@! TA.AperFunction,SMDPad,CuDef*
G36*
G01*
X86630000Y-90670000D02*
X86630000Y-89670000D01*
G75*
G02*
X87130000Y-89170000I500000J0D01*
G01*
X88130000Y-89170000D01*
G75*
G02*
X88630000Y-89670000I0J-500000D01*
G01*
X88630000Y-90670000D01*
G75*
G02*
X88130000Y-91170000I-500000J0D01*
G01*
X87130000Y-91170000D01*
G75*
G02*
X86630000Y-90670000I0J500000D01*
G01*
G37*
G04 #@! TD.AperFunction*
G04 #@! TA.AperFunction,SMDPad,CuDef*
G36*
G01*
X83455000Y-90670000D02*
X83455000Y-89670000D01*
G75*
G02*
X83955000Y-89170000I500000J0D01*
G01*
X84955000Y-89170000D01*
G75*
G02*
X85455000Y-89670000I0J-500000D01*
G01*
X85455000Y-90670000D01*
G75*
G02*
X84955000Y-91170000I-500000J0D01*
G01*
X83955000Y-91170000D01*
G75*
G02*
X83455000Y-90670000I0J500000D01*
G01*
G37*
G04 #@! TD.AperFunction*
G04 #@! TA.AperFunction,SMDPad,CuDef*
G36*
G01*
X83455000Y-93845000D02*
X83455000Y-92845000D01*
G75*
G02*
X83955000Y-92345000I500000J0D01*
G01*
X84955000Y-92345000D01*
G75*
G02*
X85455000Y-92845000I0J-500000D01*
G01*
X85455000Y-93845000D01*
G75*
G02*
X84955000Y-94345000I-500000J0D01*
G01*
X83955000Y-94345000D01*
G75*
G02*
X83455000Y-93845000I0J500000D01*
G01*
G37*
G04 #@! TD.AperFunction*
G04 #@! TA.AperFunction,SMDPad,CuDef*
G36*
G01*
X80280000Y-93845000D02*
X80280000Y-92845000D01*
G75*
G02*
X80780000Y-92345000I500000J0D01*
G01*
X81780000Y-92345000D01*
G75*
G02*
X82280000Y-92845000I0J-500000D01*
G01*
X82280000Y-93845000D01*
G75*
G02*
X81780000Y-94345000I-500000J0D01*
G01*
X80780000Y-94345000D01*
G75*
G02*
X80280000Y-93845000I0J500000D01*
G01*
G37*
G04 #@! TD.AperFunction*
G04 #@! TA.AperFunction,SMDPad,CuDef*
G36*
G01*
X80280000Y-87495000D02*
X80280000Y-86495000D01*
G75*
G02*
X80780000Y-85995000I500000J0D01*
G01*
X81780000Y-85995000D01*
G75*
G02*
X82280000Y-86495000I0J-500000D01*
G01*
X82280000Y-87495000D01*
G75*
G02*
X81780000Y-87995000I-500000J0D01*
G01*
X80780000Y-87995000D01*
G75*
G02*
X80280000Y-87495000I0J500000D01*
G01*
G37*
G04 #@! TD.AperFunction*
G04 #@! TA.AperFunction,SMDPad,CuDef*
G36*
G01*
X96155000Y-87495000D02*
X96155000Y-86495000D01*
G75*
G02*
X96655000Y-85995000I500000J0D01*
G01*
X97655000Y-85995000D01*
G75*
G02*
X98155000Y-86495000I0J-500000D01*
G01*
X98155000Y-87495000D01*
G75*
G02*
X97655000Y-87995000I-500000J0D01*
G01*
X96655000Y-87995000D01*
G75*
G02*
X96155000Y-87495000I0J500000D01*
G01*
G37*
G04 #@! TD.AperFunction*
G04 #@! TA.AperFunction,SMDPad,CuDef*
G36*
G01*
X86630000Y-87495000D02*
X86630000Y-86495000D01*
G75*
G02*
X87130000Y-85995000I500000J0D01*
G01*
X88130000Y-85995000D01*
G75*
G02*
X88630000Y-86495000I0J-500000D01*
G01*
X88630000Y-87495000D01*
G75*
G02*
X88130000Y-87995000I-500000J0D01*
G01*
X87130000Y-87995000D01*
G75*
G02*
X86630000Y-87495000I0J500000D01*
G01*
G37*
G04 #@! TD.AperFunction*
G04 #@! TA.AperFunction,SMDPad,CuDef*
G36*
G01*
X83455000Y-87495000D02*
X83455000Y-86495000D01*
G75*
G02*
X83955000Y-85995000I500000J0D01*
G01*
X84955000Y-85995000D01*
G75*
G02*
X85455000Y-86495000I0J-500000D01*
G01*
X85455000Y-87495000D01*
G75*
G02*
X84955000Y-87995000I-500000J0D01*
G01*
X83955000Y-87995000D01*
G75*
G02*
X83455000Y-87495000I0J500000D01*
G01*
G37*
G04 #@! TD.AperFunction*
G04 #@! TA.AperFunction,SMDPad,CuDef*
G36*
G01*
X92980000Y-87495000D02*
X92980000Y-86495000D01*
G75*
G02*
X93480000Y-85995000I500000J0D01*
G01*
X94480000Y-85995000D01*
G75*
G02*
X94980000Y-86495000I0J-500000D01*
G01*
X94980000Y-87495000D01*
G75*
G02*
X94480000Y-87995000I-500000J0D01*
G01*
X93480000Y-87995000D01*
G75*
G02*
X92980000Y-87495000I0J500000D01*
G01*
G37*
G04 #@! TD.AperFunction*
G04 #@! TA.AperFunction,SMDPad,CuDef*
G36*
G01*
X89805000Y-87495000D02*
X89805000Y-86495000D01*
G75*
G02*
X90305000Y-85995000I500000J0D01*
G01*
X91305000Y-85995000D01*
G75*
G02*
X91805000Y-86495000I0J-500000D01*
G01*
X91805000Y-87495000D01*
G75*
G02*
X91305000Y-87995000I-500000J0D01*
G01*
X90305000Y-87995000D01*
G75*
G02*
X89805000Y-87495000I0J500000D01*
G01*
G37*
G04 #@! TD.AperFunction*
G04 #@! TA.AperFunction,SMDPad,CuDef*
G36*
G01*
X80280000Y-84320000D02*
X80280000Y-83320000D01*
G75*
G02*
X80780000Y-82820000I500000J0D01*
G01*
X81780000Y-82820000D01*
G75*
G02*
X82280000Y-83320000I0J-500000D01*
G01*
X82280000Y-84320000D01*
G75*
G02*
X81780000Y-84820000I-500000J0D01*
G01*
X80780000Y-84820000D01*
G75*
G02*
X80280000Y-84320000I0J500000D01*
G01*
G37*
G04 #@! TD.AperFunction*
G04 #@! TA.AperFunction,SMDPad,CuDef*
G36*
G01*
X96155000Y-84320000D02*
X96155000Y-83320000D01*
G75*
G02*
X96655000Y-82820000I500000J0D01*
G01*
X97655000Y-82820000D01*
G75*
G02*
X98155000Y-83320000I0J-500000D01*
G01*
X98155000Y-84320000D01*
G75*
G02*
X97655000Y-84820000I-500000J0D01*
G01*
X96655000Y-84820000D01*
G75*
G02*
X96155000Y-84320000I0J500000D01*
G01*
G37*
G04 #@! TD.AperFunction*
G04 #@! TA.AperFunction,SMDPad,CuDef*
G36*
G01*
X86630000Y-84320000D02*
X86630000Y-83320000D01*
G75*
G02*
X87130000Y-82820000I500000J0D01*
G01*
X88130000Y-82820000D01*
G75*
G02*
X88630000Y-83320000I0J-500000D01*
G01*
X88630000Y-84320000D01*
G75*
G02*
X88130000Y-84820000I-500000J0D01*
G01*
X87130000Y-84820000D01*
G75*
G02*
X86630000Y-84320000I0J500000D01*
G01*
G37*
G04 #@! TD.AperFunction*
G04 #@! TA.AperFunction,SMDPad,CuDef*
G36*
G01*
X83455000Y-84320000D02*
X83455000Y-83320000D01*
G75*
G02*
X83955000Y-82820000I500000J0D01*
G01*
X84955000Y-82820000D01*
G75*
G02*
X85455000Y-83320000I0J-500000D01*
G01*
X85455000Y-84320000D01*
G75*
G02*
X84955000Y-84820000I-500000J0D01*
G01*
X83955000Y-84820000D01*
G75*
G02*
X83455000Y-84320000I0J500000D01*
G01*
G37*
G04 #@! TD.AperFunction*
G04 #@! TA.AperFunction,SMDPad,CuDef*
G36*
G01*
X92980000Y-84320000D02*
X92980000Y-83320000D01*
G75*
G02*
X93480000Y-82820000I500000J0D01*
G01*
X94480000Y-82820000D01*
G75*
G02*
X94980000Y-83320000I0J-500000D01*
G01*
X94980000Y-84320000D01*
G75*
G02*
X94480000Y-84820000I-500000J0D01*
G01*
X93480000Y-84820000D01*
G75*
G02*
X92980000Y-84320000I0J500000D01*
G01*
G37*
G04 #@! TD.AperFunction*
G04 #@! TA.AperFunction,SMDPad,CuDef*
G36*
G01*
X89805000Y-84320000D02*
X89805000Y-83320000D01*
G75*
G02*
X90305000Y-82820000I500000J0D01*
G01*
X91305000Y-82820000D01*
G75*
G02*
X91805000Y-83320000I0J-500000D01*
G01*
X91805000Y-84320000D01*
G75*
G02*
X91305000Y-84820000I-500000J0D01*
G01*
X90305000Y-84820000D01*
G75*
G02*
X89805000Y-84320000I0J500000D01*
G01*
G37*
G04 #@! TD.AperFunction*
G04 #@! TA.AperFunction,SMDPad,CuDef*
G36*
G01*
X96155000Y-81145000D02*
X96155000Y-80145000D01*
G75*
G02*
X96655000Y-79645000I500000J0D01*
G01*
X97655000Y-79645000D01*
G75*
G02*
X98155000Y-80145000I0J-500000D01*
G01*
X98155000Y-81145000D01*
G75*
G02*
X97655000Y-81645000I-500000J0D01*
G01*
X96655000Y-81645000D01*
G75*
G02*
X96155000Y-81145000I0J500000D01*
G01*
G37*
G04 #@! TD.AperFunction*
G04 #@! TA.AperFunction,SMDPad,CuDef*
G36*
G01*
X92980000Y-81145000D02*
X92980000Y-80145000D01*
G75*
G02*
X93480000Y-79645000I500000J0D01*
G01*
X94480000Y-79645000D01*
G75*
G02*
X94980000Y-80145000I0J-500000D01*
G01*
X94980000Y-81145000D01*
G75*
G02*
X94480000Y-81645000I-500000J0D01*
G01*
X93480000Y-81645000D01*
G75*
G02*
X92980000Y-81145000I0J500000D01*
G01*
G37*
G04 #@! TD.AperFunction*
G04 #@! TA.AperFunction,SMDPad,CuDef*
G36*
G01*
X89805000Y-81145000D02*
X89805000Y-80145000D01*
G75*
G02*
X90305000Y-79645000I500000J0D01*
G01*
X91305000Y-79645000D01*
G75*
G02*
X91805000Y-80145000I0J-500000D01*
G01*
X91805000Y-81145000D01*
G75*
G02*
X91305000Y-81645000I-500000J0D01*
G01*
X90305000Y-81645000D01*
G75*
G02*
X89805000Y-81145000I0J500000D01*
G01*
G37*
G04 #@! TD.AperFunction*
G04 #@! TA.AperFunction,SMDPad,CuDef*
G36*
G01*
X86630000Y-81145000D02*
X86630000Y-80145000D01*
G75*
G02*
X87130000Y-79645000I500000J0D01*
G01*
X88130000Y-79645000D01*
G75*
G02*
X88630000Y-80145000I0J-500000D01*
G01*
X88630000Y-81145000D01*
G75*
G02*
X88130000Y-81645000I-500000J0D01*
G01*
X87130000Y-81645000D01*
G75*
G02*
X86630000Y-81145000I0J500000D01*
G01*
G37*
G04 #@! TD.AperFunction*
G04 #@! TA.AperFunction,SMDPad,CuDef*
G36*
G01*
X83455000Y-81145000D02*
X83455000Y-80145000D01*
G75*
G02*
X83955000Y-79645000I500000J0D01*
G01*
X84955000Y-79645000D01*
G75*
G02*
X85455000Y-80145000I0J-500000D01*
G01*
X85455000Y-81145000D01*
G75*
G02*
X84955000Y-81645000I-500000J0D01*
G01*
X83955000Y-81645000D01*
G75*
G02*
X83455000Y-81145000I0J500000D01*
G01*
G37*
G04 #@! TD.AperFunction*
G04 #@! TA.AperFunction,SMDPad,CuDef*
G36*
G01*
X80280000Y-81145000D02*
X80280000Y-80145000D01*
G75*
G02*
X80780000Y-79645000I500000J0D01*
G01*
X81780000Y-79645000D01*
G75*
G02*
X82280000Y-80145000I0J-500000D01*
G01*
X82280000Y-81145000D01*
G75*
G02*
X81780000Y-81645000I-500000J0D01*
G01*
X80780000Y-81645000D01*
G75*
G02*
X80280000Y-81145000I0J500000D01*
G01*
G37*
G04 #@! TD.AperFunction*
G04 #@! TA.AperFunction,ComponentPad*
G36*
G01*
X47845000Y-130165000D02*
X47845000Y-128915000D01*
G75*
G02*
X48470000Y-128290000I625000J0D01*
G01*
X49720000Y-128290000D01*
G75*
G02*
X50345000Y-128915000I0J-625000D01*
G01*
X50345000Y-130165000D01*
G75*
G02*
X49720000Y-130790000I-625000J0D01*
G01*
X48470000Y-130790000D01*
G75*
G02*
X47845000Y-130165000I0J625000D01*
G01*
G37*
G04 #@! TD.AperFunction*
D12*
X54095000Y-129540000D03*
X59095000Y-129540000D03*
X64095000Y-129540000D03*
X69095000Y-129540000D03*
X74095000Y-129540000D03*
G04 #@! TA.AperFunction,SMDPad,CuDef*
G36*
G01*
X76190000Y-114795000D02*
X74940000Y-114795000D01*
G75*
G02*
X74690000Y-114545000I0J250000D01*
G01*
X74690000Y-113620000D01*
G75*
G02*
X74940000Y-113370000I250000J0D01*
G01*
X76190000Y-113370000D01*
G75*
G02*
X76440000Y-113620000I0J-250000D01*
G01*
X76440000Y-114545000D01*
G75*
G02*
X76190000Y-114795000I-250000J0D01*
G01*
G37*
G04 #@! TD.AperFunction*
G04 #@! TA.AperFunction,SMDPad,CuDef*
G36*
G01*
X76190000Y-117770000D02*
X74940000Y-117770000D01*
G75*
G02*
X74690000Y-117520000I0J250000D01*
G01*
X74690000Y-116595000D01*
G75*
G02*
X74940000Y-116345000I250000J0D01*
G01*
X76190000Y-116345000D01*
G75*
G02*
X76440000Y-116595000I0J-250000D01*
G01*
X76440000Y-117520000D01*
G75*
G02*
X76190000Y-117770000I-250000J0D01*
G01*
G37*
G04 #@! TD.AperFunction*
G04 #@! TA.AperFunction,SMDPad,CuDef*
G36*
G01*
X72355000Y-114535000D02*
X71155000Y-114535000D01*
G75*
G02*
X70855000Y-114235000I0J300000D01*
G01*
X70855000Y-113635000D01*
G75*
G02*
X71155000Y-113335000I300000J0D01*
G01*
X72355000Y-113335000D01*
G75*
G02*
X72655000Y-113635000I0J-300000D01*
G01*
X72655000Y-114235000D01*
G75*
G02*
X72355000Y-114535000I-300000J0D01*
G01*
G37*
G04 #@! TD.AperFunction*
G04 #@! TA.AperFunction,SMDPad,CuDef*
G36*
G01*
X72355000Y-116535000D02*
X71155000Y-116535000D01*
G75*
G02*
X70855000Y-116235000I0J300000D01*
G01*
X70855000Y-115635000D01*
G75*
G02*
X71155000Y-115335000I300000J0D01*
G01*
X72355000Y-115335000D01*
G75*
G02*
X72655000Y-115635000I0J-300000D01*
G01*
X72655000Y-116235000D01*
G75*
G02*
X72355000Y-116535000I-300000J0D01*
G01*
G37*
G04 #@! TD.AperFunction*
G04 #@! TA.AperFunction,SMDPad,CuDef*
G36*
G01*
X72400000Y-62370000D02*
X73650000Y-62370000D01*
G75*
G02*
X73900000Y-62620000I0J-250000D01*
G01*
X73900000Y-63545000D01*
G75*
G02*
X73650000Y-63795000I-250000J0D01*
G01*
X72400000Y-63795000D01*
G75*
G02*
X72150000Y-63545000I0J250000D01*
G01*
X72150000Y-62620000D01*
G75*
G02*
X72400000Y-62370000I250000J0D01*
G01*
G37*
G04 #@! TD.AperFunction*
G04 #@! TA.AperFunction,SMDPad,CuDef*
G36*
G01*
X72400000Y-59395000D02*
X73650000Y-59395000D01*
G75*
G02*
X73900000Y-59645000I0J-250000D01*
G01*
X73900000Y-60570000D01*
G75*
G02*
X73650000Y-60820000I-250000J0D01*
G01*
X72400000Y-60820000D01*
G75*
G02*
X72150000Y-60570000I0J250000D01*
G01*
X72150000Y-59645000D01*
G75*
G02*
X72400000Y-59395000I250000J0D01*
G01*
G37*
G04 #@! TD.AperFunction*
G04 #@! TA.AperFunction,SMDPad,CuDef*
G36*
G01*
X45710000Y-58280000D02*
X44460000Y-58280000D01*
G75*
G02*
X44210000Y-58030000I0J250000D01*
G01*
X44210000Y-57105000D01*
G75*
G02*
X44460000Y-56855000I250000J0D01*
G01*
X45710000Y-56855000D01*
G75*
G02*
X45960000Y-57105000I0J-250000D01*
G01*
X45960000Y-58030000D01*
G75*
G02*
X45710000Y-58280000I-250000J0D01*
G01*
G37*
G04 #@! TD.AperFunction*
G04 #@! TA.AperFunction,SMDPad,CuDef*
G36*
G01*
X45710000Y-61255000D02*
X44460000Y-61255000D01*
G75*
G02*
X44210000Y-61005000I0J250000D01*
G01*
X44210000Y-60080000D01*
G75*
G02*
X44460000Y-59830000I250000J0D01*
G01*
X45710000Y-59830000D01*
G75*
G02*
X45960000Y-60080000I0J-250000D01*
G01*
X45960000Y-61005000D01*
G75*
G02*
X45710000Y-61255000I-250000J0D01*
G01*
G37*
G04 #@! TD.AperFunction*
G04 #@! TA.AperFunction,SMDPad,CuDef*
G36*
G01*
X81905000Y-60820000D02*
X80655000Y-60820000D01*
G75*
G02*
X80405000Y-60570000I0J250000D01*
G01*
X80405000Y-59645000D01*
G75*
G02*
X80655000Y-59395000I250000J0D01*
G01*
X81905000Y-59395000D01*
G75*
G02*
X82155000Y-59645000I0J-250000D01*
G01*
X82155000Y-60570000D01*
G75*
G02*
X81905000Y-60820000I-250000J0D01*
G01*
G37*
G04 #@! TD.AperFunction*
G04 #@! TA.AperFunction,SMDPad,CuDef*
G36*
G01*
X81905000Y-63795000D02*
X80655000Y-63795000D01*
G75*
G02*
X80405000Y-63545000I0J250000D01*
G01*
X80405000Y-62620000D01*
G75*
G02*
X80655000Y-62370000I250000J0D01*
G01*
X81905000Y-62370000D01*
G75*
G02*
X82155000Y-62620000I0J-250000D01*
G01*
X82155000Y-63545000D01*
G75*
G02*
X81905000Y-63795000I-250000J0D01*
G01*
G37*
G04 #@! TD.AperFunction*
G04 #@! TA.AperFunction,SMDPad,CuDef*
G36*
G01*
X93335000Y-65900000D02*
X92085000Y-65900000D01*
G75*
G02*
X91835000Y-65650000I0J250000D01*
G01*
X91835000Y-64725000D01*
G75*
G02*
X92085000Y-64475000I250000J0D01*
G01*
X93335000Y-64475000D01*
G75*
G02*
X93585000Y-64725000I0J-250000D01*
G01*
X93585000Y-65650000D01*
G75*
G02*
X93335000Y-65900000I-250000J0D01*
G01*
G37*
G04 #@! TD.AperFunction*
G04 #@! TA.AperFunction,SMDPad,CuDef*
G36*
G01*
X93335000Y-68875000D02*
X92085000Y-68875000D01*
G75*
G02*
X91835000Y-68625000I0J250000D01*
G01*
X91835000Y-67700000D01*
G75*
G02*
X92085000Y-67450000I250000J0D01*
G01*
X93335000Y-67450000D01*
G75*
G02*
X93585000Y-67700000I0J-250000D01*
G01*
X93585000Y-68625000D01*
G75*
G02*
X93335000Y-68875000I-250000J0D01*
G01*
G37*
G04 #@! TD.AperFunction*
G04 #@! TA.AperFunction,SMDPad,CuDef*
G36*
G01*
X86220000Y-50810000D02*
X86220000Y-52060000D01*
G75*
G02*
X85970000Y-52310000I-250000J0D01*
G01*
X85045000Y-52310000D01*
G75*
G02*
X84795000Y-52060000I0J250000D01*
G01*
X84795000Y-50810000D01*
G75*
G02*
X85045000Y-50560000I250000J0D01*
G01*
X85970000Y-50560000D01*
G75*
G02*
X86220000Y-50810000I0J-250000D01*
G01*
G37*
G04 #@! TD.AperFunction*
G04 #@! TA.AperFunction,SMDPad,CuDef*
G36*
G01*
X89195000Y-50810000D02*
X89195000Y-52060000D01*
G75*
G02*
X88945000Y-52310000I-250000J0D01*
G01*
X88020000Y-52310000D01*
G75*
G02*
X87770000Y-52060000I0J250000D01*
G01*
X87770000Y-50810000D01*
G75*
G02*
X88020000Y-50560000I250000J0D01*
G01*
X88945000Y-50560000D01*
G75*
G02*
X89195000Y-50810000I0J-250000D01*
G01*
G37*
G04 #@! TD.AperFunction*
G04 #@! TA.AperFunction,SMDPad,CuDef*
G36*
G01*
X53940000Y-114535000D02*
X52740000Y-114535000D01*
G75*
G02*
X52440000Y-114235000I0J300000D01*
G01*
X52440000Y-113635000D01*
G75*
G02*
X52740000Y-113335000I300000J0D01*
G01*
X53940000Y-113335000D01*
G75*
G02*
X54240000Y-113635000I0J-300000D01*
G01*
X54240000Y-114235000D01*
G75*
G02*
X53940000Y-114535000I-300000J0D01*
G01*
G37*
G04 #@! TD.AperFunction*
G04 #@! TA.AperFunction,SMDPad,CuDef*
G36*
G01*
X53940000Y-116535000D02*
X52740000Y-116535000D01*
G75*
G02*
X52440000Y-116235000I0J300000D01*
G01*
X52440000Y-115635000D01*
G75*
G02*
X52740000Y-115335000I300000J0D01*
G01*
X53940000Y-115335000D01*
G75*
G02*
X54240000Y-115635000I0J-300000D01*
G01*
X54240000Y-116235000D01*
G75*
G02*
X53940000Y-116535000I-300000J0D01*
G01*
G37*
G04 #@! TD.AperFunction*
G04 #@! TA.AperFunction,SMDPad,CuDef*
G36*
G01*
X56480000Y-114535000D02*
X55280000Y-114535000D01*
G75*
G02*
X54980000Y-114235000I0J300000D01*
G01*
X54980000Y-113635000D01*
G75*
G02*
X55280000Y-113335000I300000J0D01*
G01*
X56480000Y-113335000D01*
G75*
G02*
X56780000Y-113635000I0J-300000D01*
G01*
X56780000Y-114235000D01*
G75*
G02*
X56480000Y-114535000I-300000J0D01*
G01*
G37*
G04 #@! TD.AperFunction*
G04 #@! TA.AperFunction,SMDPad,CuDef*
G36*
G01*
X56480000Y-116535000D02*
X55280000Y-116535000D01*
G75*
G02*
X54980000Y-116235000I0J300000D01*
G01*
X54980000Y-115635000D01*
G75*
G02*
X55280000Y-115335000I300000J0D01*
G01*
X56480000Y-115335000D01*
G75*
G02*
X56780000Y-115635000I0J-300000D01*
G01*
X56780000Y-116235000D01*
G75*
G02*
X56480000Y-116535000I-300000J0D01*
G01*
G37*
G04 #@! TD.AperFunction*
G04 #@! TA.AperFunction,SMDPad,CuDef*
G36*
G01*
X69815000Y-114535000D02*
X68615000Y-114535000D01*
G75*
G02*
X68315000Y-114235000I0J300000D01*
G01*
X68315000Y-113635000D01*
G75*
G02*
X68615000Y-113335000I300000J0D01*
G01*
X69815000Y-113335000D01*
G75*
G02*
X70115000Y-113635000I0J-300000D01*
G01*
X70115000Y-114235000D01*
G75*
G02*
X69815000Y-114535000I-300000J0D01*
G01*
G37*
G04 #@! TD.AperFunction*
G04 #@! TA.AperFunction,SMDPad,CuDef*
G36*
G01*
X69815000Y-116535000D02*
X68615000Y-116535000D01*
G75*
G02*
X68315000Y-116235000I0J300000D01*
G01*
X68315000Y-115635000D01*
G75*
G02*
X68615000Y-115335000I300000J0D01*
G01*
X69815000Y-115335000D01*
G75*
G02*
X70115000Y-115635000I0J-300000D01*
G01*
X70115000Y-116235000D01*
G75*
G02*
X69815000Y-116535000I-300000J0D01*
G01*
G37*
G04 #@! TD.AperFunction*
D13*
X120000000Y-130000000D03*
X120000000Y-40000000D03*
X30000000Y-130000000D03*
X30000000Y-40000000D03*
D14*
X50800000Y-79375000D03*
D15*
X53340000Y-79375000D03*
X50800000Y-81915000D03*
X53340000Y-81915000D03*
X50800000Y-84455000D03*
X53340000Y-84455000D03*
D16*
X86360000Y-101280000D03*
X81280000Y-110810000D03*
X83820000Y-101280000D03*
X83820000Y-110810000D03*
X81280000Y-101280000D03*
X86360000Y-110810000D03*
D17*
X92315000Y-119925000D03*
D18*
X94855000Y-119925000D03*
X97395000Y-119925000D03*
X99935000Y-119925000D03*
D19*
X59590000Y-108095000D03*
X57100000Y-108095000D03*
X54610000Y-108095000D03*
X52120000Y-108095000D03*
X49630000Y-108095000D03*
X49630000Y-91295000D03*
X52120000Y-91295000D03*
X54610000Y-91295000D03*
X57100000Y-91295000D03*
X59590000Y-91295000D03*
G04 #@! TA.AperFunction,SMDPad,CuDef*
G36*
G01*
X45075000Y-130470000D02*
X43825000Y-130470000D01*
G75*
G02*
X43575000Y-130220000I0J250000D01*
G01*
X43575000Y-129295000D01*
G75*
G02*
X43825000Y-129045000I250000J0D01*
G01*
X45075000Y-129045000D01*
G75*
G02*
X45325000Y-129295000I0J-250000D01*
G01*
X45325000Y-130220000D01*
G75*
G02*
X45075000Y-130470000I-250000J0D01*
G01*
G37*
G04 #@! TD.AperFunction*
G04 #@! TA.AperFunction,SMDPad,CuDef*
G36*
G01*
X45075000Y-127495000D02*
X43825000Y-127495000D01*
G75*
G02*
X43575000Y-127245000I0J250000D01*
G01*
X43575000Y-126320000D01*
G75*
G02*
X43825000Y-126070000I250000J0D01*
G01*
X45075000Y-126070000D01*
G75*
G02*
X45325000Y-126320000I0J-250000D01*
G01*
X45325000Y-127245000D01*
G75*
G02*
X45075000Y-127495000I-250000J0D01*
G01*
G37*
G04 #@! TD.AperFunction*
G04 #@! TA.AperFunction,SMDPad,CuDef*
G36*
G01*
X121162500Y-53985000D02*
X121162500Y-55235000D01*
G75*
G02*
X120912500Y-55485000I-250000J0D01*
G01*
X119987500Y-55485000D01*
G75*
G02*
X119737500Y-55235000I0J250000D01*
G01*
X119737500Y-53985000D01*
G75*
G02*
X119987500Y-53735000I250000J0D01*
G01*
X120912500Y-53735000D01*
G75*
G02*
X121162500Y-53985000I0J-250000D01*
G01*
G37*
G04 #@! TD.AperFunction*
G04 #@! TA.AperFunction,SMDPad,CuDef*
G36*
G01*
X118187500Y-53985000D02*
X118187500Y-55235000D01*
G75*
G02*
X117937500Y-55485000I-250000J0D01*
G01*
X117012500Y-55485000D01*
G75*
G02*
X116762500Y-55235000I0J250000D01*
G01*
X116762500Y-53985000D01*
G75*
G02*
X117012500Y-53735000I250000J0D01*
G01*
X117937500Y-53735000D01*
G75*
G02*
X118187500Y-53985000I0J-250000D01*
G01*
G37*
G04 #@! TD.AperFunction*
G04 #@! TA.AperFunction,SMDPad,CuDef*
G36*
G01*
X113170000Y-52695000D02*
X113170000Y-51445000D01*
G75*
G02*
X113420000Y-51195000I250000J0D01*
G01*
X114345000Y-51195000D01*
G75*
G02*
X114595000Y-51445000I0J-250000D01*
G01*
X114595000Y-52695000D01*
G75*
G02*
X114345000Y-52945000I-250000J0D01*
G01*
X113420000Y-52945000D01*
G75*
G02*
X113170000Y-52695000I0J250000D01*
G01*
G37*
G04 #@! TD.AperFunction*
G04 #@! TA.AperFunction,SMDPad,CuDef*
G36*
G01*
X110195000Y-52695000D02*
X110195000Y-51445000D01*
G75*
G02*
X110445000Y-51195000I250000J0D01*
G01*
X111370000Y-51195000D01*
G75*
G02*
X111620000Y-51445000I0J-250000D01*
G01*
X111620000Y-52695000D01*
G75*
G02*
X111370000Y-52945000I-250000J0D01*
G01*
X110445000Y-52945000D01*
G75*
G02*
X110195000Y-52695000I0J250000D01*
G01*
G37*
G04 #@! TD.AperFunction*
G04 #@! TA.AperFunction,SMDPad,CuDef*
G36*
G01*
X119675000Y-100975000D02*
X119675000Y-102225000D01*
G75*
G02*
X119425000Y-102475000I-250000J0D01*
G01*
X118500000Y-102475000D01*
G75*
G02*
X118250000Y-102225000I0J250000D01*
G01*
X118250000Y-100975000D01*
G75*
G02*
X118500000Y-100725000I250000J0D01*
G01*
X119425000Y-100725000D01*
G75*
G02*
X119675000Y-100975000I0J-250000D01*
G01*
G37*
G04 #@! TD.AperFunction*
G04 #@! TA.AperFunction,SMDPad,CuDef*
G36*
G01*
X116700000Y-100975000D02*
X116700000Y-102225000D01*
G75*
G02*
X116450000Y-102475000I-250000J0D01*
G01*
X115525000Y-102475000D01*
G75*
G02*
X115275000Y-102225000I0J250000D01*
G01*
X115275000Y-100975000D01*
G75*
G02*
X115525000Y-100725000I250000J0D01*
G01*
X116450000Y-100725000D01*
G75*
G02*
X116700000Y-100975000I0J-250000D01*
G01*
G37*
G04 #@! TD.AperFunction*
G04 #@! TA.AperFunction,SMDPad,CuDef*
G36*
G01*
X104765000Y-83045000D02*
X103515000Y-83045000D01*
G75*
G02*
X103265000Y-82795000I0J250000D01*
G01*
X103265000Y-81870000D01*
G75*
G02*
X103515000Y-81620000I250000J0D01*
G01*
X104765000Y-81620000D01*
G75*
G02*
X105015000Y-81870000I0J-250000D01*
G01*
X105015000Y-82795000D01*
G75*
G02*
X104765000Y-83045000I-250000J0D01*
G01*
G37*
G04 #@! TD.AperFunction*
G04 #@! TA.AperFunction,SMDPad,CuDef*
G36*
G01*
X104765000Y-86020000D02*
X103515000Y-86020000D01*
G75*
G02*
X103265000Y-85770000I0J250000D01*
G01*
X103265000Y-84845000D01*
G75*
G02*
X103515000Y-84595000I250000J0D01*
G01*
X104765000Y-84595000D01*
G75*
G02*
X105015000Y-84845000I0J-250000D01*
G01*
X105015000Y-85770000D01*
G75*
G02*
X104765000Y-86020000I-250000J0D01*
G01*
G37*
G04 #@! TD.AperFunction*
G04 #@! TA.AperFunction,SMDPad,CuDef*
G36*
G01*
X107305000Y-86020000D02*
X106055000Y-86020000D01*
G75*
G02*
X105805000Y-85770000I0J250000D01*
G01*
X105805000Y-84845000D01*
G75*
G02*
X106055000Y-84595000I250000J0D01*
G01*
X107305000Y-84595000D01*
G75*
G02*
X107555000Y-84845000I0J-250000D01*
G01*
X107555000Y-85770000D01*
G75*
G02*
X107305000Y-86020000I-250000J0D01*
G01*
G37*
G04 #@! TD.AperFunction*
G04 #@! TA.AperFunction,SMDPad,CuDef*
G36*
G01*
X107305000Y-83045000D02*
X106055000Y-83045000D01*
G75*
G02*
X105805000Y-82795000I0J250000D01*
G01*
X105805000Y-81870000D01*
G75*
G02*
X106055000Y-81620000I250000J0D01*
G01*
X107305000Y-81620000D01*
G75*
G02*
X107555000Y-81870000I0J-250000D01*
G01*
X107555000Y-82795000D01*
G75*
G02*
X107305000Y-83045000I-250000J0D01*
G01*
G37*
G04 #@! TD.AperFunction*
G04 #@! TA.AperFunction,SMDPad,CuDef*
G36*
G01*
X102225000Y-83045000D02*
X100975000Y-83045000D01*
G75*
G02*
X100725000Y-82795000I0J250000D01*
G01*
X100725000Y-81870000D01*
G75*
G02*
X100975000Y-81620000I250000J0D01*
G01*
X102225000Y-81620000D01*
G75*
G02*
X102475000Y-81870000I0J-250000D01*
G01*
X102475000Y-82795000D01*
G75*
G02*
X102225000Y-83045000I-250000J0D01*
G01*
G37*
G04 #@! TD.AperFunction*
G04 #@! TA.AperFunction,SMDPad,CuDef*
G36*
G01*
X102225000Y-86020000D02*
X100975000Y-86020000D01*
G75*
G02*
X100725000Y-85770000I0J250000D01*
G01*
X100725000Y-84845000D01*
G75*
G02*
X100975000Y-84595000I250000J0D01*
G01*
X102225000Y-84595000D01*
G75*
G02*
X102475000Y-84845000I0J-250000D01*
G01*
X102475000Y-85770000D01*
G75*
G02*
X102225000Y-86020000I-250000J0D01*
G01*
G37*
G04 #@! TD.AperFunction*
G04 #@! TA.AperFunction,SMDPad,CuDef*
G36*
G01*
X50155000Y-42205000D02*
X48905000Y-42205000D01*
G75*
G02*
X48655000Y-41955000I0J250000D01*
G01*
X48655000Y-41030000D01*
G75*
G02*
X48905000Y-40780000I250000J0D01*
G01*
X50155000Y-40780000D01*
G75*
G02*
X50405000Y-41030000I0J-250000D01*
G01*
X50405000Y-41955000D01*
G75*
G02*
X50155000Y-42205000I-250000J0D01*
G01*
G37*
G04 #@! TD.AperFunction*
G04 #@! TA.AperFunction,SMDPad,CuDef*
G36*
G01*
X50155000Y-39230000D02*
X48905000Y-39230000D01*
G75*
G02*
X48655000Y-38980000I0J250000D01*
G01*
X48655000Y-38055000D01*
G75*
G02*
X48905000Y-37805000I250000J0D01*
G01*
X50155000Y-37805000D01*
G75*
G02*
X50405000Y-38055000I0J-250000D01*
G01*
X50405000Y-38980000D01*
G75*
G02*
X50155000Y-39230000I-250000J0D01*
G01*
G37*
G04 #@! TD.AperFunction*
G04 #@! TA.AperFunction,SMDPad,CuDef*
G36*
G01*
X52695000Y-42205000D02*
X51445000Y-42205000D01*
G75*
G02*
X51195000Y-41955000I0J250000D01*
G01*
X51195000Y-41030000D01*
G75*
G02*
X51445000Y-40780000I250000J0D01*
G01*
X52695000Y-40780000D01*
G75*
G02*
X52945000Y-41030000I0J-250000D01*
G01*
X52945000Y-41955000D01*
G75*
G02*
X52695000Y-42205000I-250000J0D01*
G01*
G37*
G04 #@! TD.AperFunction*
G04 #@! TA.AperFunction,SMDPad,CuDef*
G36*
G01*
X52695000Y-39230000D02*
X51445000Y-39230000D01*
G75*
G02*
X51195000Y-38980000I0J250000D01*
G01*
X51195000Y-38055000D01*
G75*
G02*
X51445000Y-37805000I250000J0D01*
G01*
X52695000Y-37805000D01*
G75*
G02*
X52945000Y-38055000I0J-250000D01*
G01*
X52945000Y-38980000D01*
G75*
G02*
X52695000Y-39230000I-250000J0D01*
G01*
G37*
G04 #@! TD.AperFunction*
G04 #@! TA.AperFunction,SMDPad,CuDef*
G36*
G01*
X47615000Y-42205000D02*
X46365000Y-42205000D01*
G75*
G02*
X46115000Y-41955000I0J250000D01*
G01*
X46115000Y-41030000D01*
G75*
G02*
X46365000Y-40780000I250000J0D01*
G01*
X47615000Y-40780000D01*
G75*
G02*
X47865000Y-41030000I0J-250000D01*
G01*
X47865000Y-41955000D01*
G75*
G02*
X47615000Y-42205000I-250000J0D01*
G01*
G37*
G04 #@! TD.AperFunction*
G04 #@! TA.AperFunction,SMDPad,CuDef*
G36*
G01*
X47615000Y-39230000D02*
X46365000Y-39230000D01*
G75*
G02*
X46115000Y-38980000I0J250000D01*
G01*
X46115000Y-38055000D01*
G75*
G02*
X46365000Y-37805000I250000J0D01*
G01*
X47615000Y-37805000D01*
G75*
G02*
X47865000Y-38055000I0J-250000D01*
G01*
X47865000Y-38980000D01*
G75*
G02*
X47615000Y-39230000I-250000J0D01*
G01*
G37*
G04 #@! TD.AperFunction*
G04 #@! TA.AperFunction,SMDPad,CuDef*
G36*
G01*
X115275000Y-123815000D02*
X115275000Y-122565000D01*
G75*
G02*
X115525000Y-122315000I250000J0D01*
G01*
X116450000Y-122315000D01*
G75*
G02*
X116700000Y-122565000I0J-250000D01*
G01*
X116700000Y-123815000D01*
G75*
G02*
X116450000Y-124065000I-250000J0D01*
G01*
X115525000Y-124065000D01*
G75*
G02*
X115275000Y-123815000I0J250000D01*
G01*
G37*
G04 #@! TD.AperFunction*
G04 #@! TA.AperFunction,SMDPad,CuDef*
G36*
G01*
X118250000Y-123815000D02*
X118250000Y-122565000D01*
G75*
G02*
X118500000Y-122315000I250000J0D01*
G01*
X119425000Y-122315000D01*
G75*
G02*
X119675000Y-122565000I0J-250000D01*
G01*
X119675000Y-123815000D01*
G75*
G02*
X119425000Y-124065000I-250000J0D01*
G01*
X118500000Y-124065000D01*
G75*
G02*
X118250000Y-123815000I0J250000D01*
G01*
G37*
G04 #@! TD.AperFunction*
G04 #@! TA.AperFunction,SMDPad,CuDef*
D20*
G36*
X87109398Y-118125000D02*
G01*
X87109398Y-118149534D01*
X87104588Y-118198365D01*
X87095016Y-118246490D01*
X87080772Y-118293445D01*
X87061995Y-118338778D01*
X87038864Y-118382051D01*
X87011604Y-118422850D01*
X86980476Y-118460779D01*
X86945779Y-118495476D01*
X86907850Y-118526604D01*
X86867051Y-118553864D01*
X86823778Y-118576995D01*
X86778445Y-118595772D01*
X86731490Y-118610016D01*
X86683365Y-118619588D01*
X86634534Y-118624398D01*
X86610000Y-118624398D01*
X86610000Y-118625000D01*
X86110000Y-118625000D01*
X86110000Y-118624398D01*
X86085466Y-118624398D01*
X86036635Y-118619588D01*
X85988510Y-118610016D01*
X85941555Y-118595772D01*
X85896222Y-118576995D01*
X85852949Y-118553864D01*
X85812150Y-118526604D01*
X85774221Y-118495476D01*
X85739524Y-118460779D01*
X85708396Y-118422850D01*
X85681136Y-118382051D01*
X85658005Y-118338778D01*
X85639228Y-118293445D01*
X85624984Y-118246490D01*
X85615412Y-118198365D01*
X85610602Y-118149534D01*
X85610602Y-118125000D01*
X85610000Y-118125000D01*
X85610000Y-117625000D01*
X87110000Y-117625000D01*
X87110000Y-118125000D01*
X87109398Y-118125000D01*
G37*
G04 #@! TD.AperFunction*
G04 #@! TA.AperFunction,SMDPad,CuDef*
G36*
X85610000Y-117325000D02*
G01*
X85610000Y-116825000D01*
X85610602Y-116825000D01*
X85610602Y-116800466D01*
X85615412Y-116751635D01*
X85624984Y-116703510D01*
X85639228Y-116656555D01*
X85658005Y-116611222D01*
X85681136Y-116567949D01*
X85708396Y-116527150D01*
X85739524Y-116489221D01*
X85774221Y-116454524D01*
X85812150Y-116423396D01*
X85852949Y-116396136D01*
X85896222Y-116373005D01*
X85941555Y-116354228D01*
X85988510Y-116339984D01*
X86036635Y-116330412D01*
X86085466Y-116325602D01*
X86110000Y-116325602D01*
X86110000Y-116325000D01*
X86610000Y-116325000D01*
X86610000Y-116325602D01*
X86634534Y-116325602D01*
X86683365Y-116330412D01*
X86731490Y-116339984D01*
X86778445Y-116354228D01*
X86823778Y-116373005D01*
X86867051Y-116396136D01*
X86907850Y-116423396D01*
X86945779Y-116454524D01*
X86980476Y-116489221D01*
X87011604Y-116527150D01*
X87038864Y-116567949D01*
X87061995Y-116611222D01*
X87080772Y-116656555D01*
X87095016Y-116703510D01*
X87104588Y-116751635D01*
X87109398Y-116800466D01*
X87109398Y-116825000D01*
X87110000Y-116825000D01*
X87110000Y-117325000D01*
X85610000Y-117325000D01*
G37*
G04 #@! TD.AperFunction*
G04 #@! TA.AperFunction,SMDPad,CuDef*
G36*
X80530000Y-117325000D02*
G01*
X80530000Y-116825000D01*
X80530602Y-116825000D01*
X80530602Y-116800466D01*
X80535412Y-116751635D01*
X80544984Y-116703510D01*
X80559228Y-116656555D01*
X80578005Y-116611222D01*
X80601136Y-116567949D01*
X80628396Y-116527150D01*
X80659524Y-116489221D01*
X80694221Y-116454524D01*
X80732150Y-116423396D01*
X80772949Y-116396136D01*
X80816222Y-116373005D01*
X80861555Y-116354228D01*
X80908510Y-116339984D01*
X80956635Y-116330412D01*
X81005466Y-116325602D01*
X81030000Y-116325602D01*
X81030000Y-116325000D01*
X81530000Y-116325000D01*
X81530000Y-116325602D01*
X81554534Y-116325602D01*
X81603365Y-116330412D01*
X81651490Y-116339984D01*
X81698445Y-116354228D01*
X81743778Y-116373005D01*
X81787051Y-116396136D01*
X81827850Y-116423396D01*
X81865779Y-116454524D01*
X81900476Y-116489221D01*
X81931604Y-116527150D01*
X81958864Y-116567949D01*
X81981995Y-116611222D01*
X82000772Y-116656555D01*
X82015016Y-116703510D01*
X82024588Y-116751635D01*
X82029398Y-116800466D01*
X82029398Y-116825000D01*
X82030000Y-116825000D01*
X82030000Y-117325000D01*
X80530000Y-117325000D01*
G37*
G04 #@! TD.AperFunction*
G04 #@! TA.AperFunction,SMDPad,CuDef*
G36*
X82029398Y-118125000D02*
G01*
X82029398Y-118149534D01*
X82024588Y-118198365D01*
X82015016Y-118246490D01*
X82000772Y-118293445D01*
X81981995Y-118338778D01*
X81958864Y-118382051D01*
X81931604Y-118422850D01*
X81900476Y-118460779D01*
X81865779Y-118495476D01*
X81827850Y-118526604D01*
X81787051Y-118553864D01*
X81743778Y-118576995D01*
X81698445Y-118595772D01*
X81651490Y-118610016D01*
X81603365Y-118619588D01*
X81554534Y-118624398D01*
X81530000Y-118624398D01*
X81530000Y-118625000D01*
X81030000Y-118625000D01*
X81030000Y-118624398D01*
X81005466Y-118624398D01*
X80956635Y-118619588D01*
X80908510Y-118610016D01*
X80861555Y-118595772D01*
X80816222Y-118576995D01*
X80772949Y-118553864D01*
X80732150Y-118526604D01*
X80694221Y-118495476D01*
X80659524Y-118460779D01*
X80628396Y-118422850D01*
X80601136Y-118382051D01*
X80578005Y-118338778D01*
X80559228Y-118293445D01*
X80544984Y-118246490D01*
X80535412Y-118198365D01*
X80530602Y-118149534D01*
X80530602Y-118125000D01*
X80530000Y-118125000D01*
X80530000Y-117625000D01*
X82030000Y-117625000D01*
X82030000Y-118125000D01*
X82029398Y-118125000D01*
G37*
G04 #@! TD.AperFunction*
G04 #@! TA.AperFunction,SMDPad,CuDef*
G36*
X56665000Y-111010000D02*
G01*
X57165000Y-111010000D01*
X57165000Y-111010602D01*
X57189534Y-111010602D01*
X57238365Y-111015412D01*
X57286490Y-111024984D01*
X57333445Y-111039228D01*
X57378778Y-111058005D01*
X57422051Y-111081136D01*
X57462850Y-111108396D01*
X57500779Y-111139524D01*
X57535476Y-111174221D01*
X57566604Y-111212150D01*
X57593864Y-111252949D01*
X57616995Y-111296222D01*
X57635772Y-111341555D01*
X57650016Y-111388510D01*
X57659588Y-111436635D01*
X57664398Y-111485466D01*
X57664398Y-111510000D01*
X57665000Y-111510000D01*
X57665000Y-112010000D01*
X57664398Y-112010000D01*
X57664398Y-112034534D01*
X57659588Y-112083365D01*
X57650016Y-112131490D01*
X57635772Y-112178445D01*
X57616995Y-112223778D01*
X57593864Y-112267051D01*
X57566604Y-112307850D01*
X57535476Y-112345779D01*
X57500779Y-112380476D01*
X57462850Y-112411604D01*
X57422051Y-112438864D01*
X57378778Y-112461995D01*
X57333445Y-112480772D01*
X57286490Y-112495016D01*
X57238365Y-112504588D01*
X57189534Y-112509398D01*
X57165000Y-112509398D01*
X57165000Y-112510000D01*
X56665000Y-112510000D01*
X56665000Y-111010000D01*
G37*
G04 #@! TD.AperFunction*
G04 #@! TA.AperFunction,SMDPad,CuDef*
G36*
X55865000Y-112509398D02*
G01*
X55840466Y-112509398D01*
X55791635Y-112504588D01*
X55743510Y-112495016D01*
X55696555Y-112480772D01*
X55651222Y-112461995D01*
X55607949Y-112438864D01*
X55567150Y-112411604D01*
X55529221Y-112380476D01*
X55494524Y-112345779D01*
X55463396Y-112307850D01*
X55436136Y-112267051D01*
X55413005Y-112223778D01*
X55394228Y-112178445D01*
X55379984Y-112131490D01*
X55370412Y-112083365D01*
X55365602Y-112034534D01*
X55365602Y-112010000D01*
X55365000Y-112010000D01*
X55365000Y-111510000D01*
X55365602Y-111510000D01*
X55365602Y-111485466D01*
X55370412Y-111436635D01*
X55379984Y-111388510D01*
X55394228Y-111341555D01*
X55413005Y-111296222D01*
X55436136Y-111252949D01*
X55463396Y-111212150D01*
X55494524Y-111174221D01*
X55529221Y-111139524D01*
X55567150Y-111108396D01*
X55607949Y-111081136D01*
X55651222Y-111058005D01*
X55696555Y-111039228D01*
X55743510Y-111024984D01*
X55791635Y-111015412D01*
X55840466Y-111010602D01*
X55865000Y-111010602D01*
X55865000Y-111010000D01*
X56365000Y-111010000D01*
X56365000Y-112510000D01*
X55865000Y-112510000D01*
X55865000Y-112509398D01*
G37*
G04 #@! TD.AperFunction*
G04 #@! TA.AperFunction,SMDPad,CuDef*
G36*
X53355000Y-111010602D02*
G01*
X53379534Y-111010602D01*
X53428365Y-111015412D01*
X53476490Y-111024984D01*
X53523445Y-111039228D01*
X53568778Y-111058005D01*
X53612051Y-111081136D01*
X53652850Y-111108396D01*
X53690779Y-111139524D01*
X53725476Y-111174221D01*
X53756604Y-111212150D01*
X53783864Y-111252949D01*
X53806995Y-111296222D01*
X53825772Y-111341555D01*
X53840016Y-111388510D01*
X53849588Y-111436635D01*
X53854398Y-111485466D01*
X53854398Y-111510000D01*
X53855000Y-111510000D01*
X53855000Y-112010000D01*
X53854398Y-112010000D01*
X53854398Y-112034534D01*
X53849588Y-112083365D01*
X53840016Y-112131490D01*
X53825772Y-112178445D01*
X53806995Y-112223778D01*
X53783864Y-112267051D01*
X53756604Y-112307850D01*
X53725476Y-112345779D01*
X53690779Y-112380476D01*
X53652850Y-112411604D01*
X53612051Y-112438864D01*
X53568778Y-112461995D01*
X53523445Y-112480772D01*
X53476490Y-112495016D01*
X53428365Y-112504588D01*
X53379534Y-112509398D01*
X53355000Y-112509398D01*
X53355000Y-112510000D01*
X52855000Y-112510000D01*
X52855000Y-111010000D01*
X53355000Y-111010000D01*
X53355000Y-111010602D01*
G37*
G04 #@! TD.AperFunction*
G04 #@! TA.AperFunction,SMDPad,CuDef*
G36*
X52555000Y-112510000D02*
G01*
X52055000Y-112510000D01*
X52055000Y-112509398D01*
X52030466Y-112509398D01*
X51981635Y-112504588D01*
X51933510Y-112495016D01*
X51886555Y-112480772D01*
X51841222Y-112461995D01*
X51797949Y-112438864D01*
X51757150Y-112411604D01*
X51719221Y-112380476D01*
X51684524Y-112345779D01*
X51653396Y-112307850D01*
X51626136Y-112267051D01*
X51603005Y-112223778D01*
X51584228Y-112178445D01*
X51569984Y-112131490D01*
X51560412Y-112083365D01*
X51555602Y-112034534D01*
X51555602Y-112010000D01*
X51555000Y-112010000D01*
X51555000Y-111510000D01*
X51555602Y-111510000D01*
X51555602Y-111485466D01*
X51560412Y-111436635D01*
X51569984Y-111388510D01*
X51584228Y-111341555D01*
X51603005Y-111296222D01*
X51626136Y-111252949D01*
X51653396Y-111212150D01*
X51684524Y-111174221D01*
X51719221Y-111139524D01*
X51757150Y-111108396D01*
X51797949Y-111081136D01*
X51841222Y-111058005D01*
X51886555Y-111039228D01*
X51933510Y-111024984D01*
X51981635Y-111015412D01*
X52030466Y-111010602D01*
X52055000Y-111010602D01*
X52055000Y-111010000D01*
X52555000Y-111010000D01*
X52555000Y-112510000D01*
G37*
G04 #@! TD.AperFunction*
G04 #@! TA.AperFunction,SMDPad,CuDef*
G36*
X71740000Y-112509398D02*
G01*
X71715466Y-112509398D01*
X71666635Y-112504588D01*
X71618510Y-112495016D01*
X71571555Y-112480772D01*
X71526222Y-112461995D01*
X71482949Y-112438864D01*
X71442150Y-112411604D01*
X71404221Y-112380476D01*
X71369524Y-112345779D01*
X71338396Y-112307850D01*
X71311136Y-112267051D01*
X71288005Y-112223778D01*
X71269228Y-112178445D01*
X71254984Y-112131490D01*
X71245412Y-112083365D01*
X71240602Y-112034534D01*
X71240602Y-112010000D01*
X71240000Y-112010000D01*
X71240000Y-111510000D01*
X71240602Y-111510000D01*
X71240602Y-111485466D01*
X71245412Y-111436635D01*
X71254984Y-111388510D01*
X71269228Y-111341555D01*
X71288005Y-111296222D01*
X71311136Y-111252949D01*
X71338396Y-111212150D01*
X71369524Y-111174221D01*
X71404221Y-111139524D01*
X71442150Y-111108396D01*
X71482949Y-111081136D01*
X71526222Y-111058005D01*
X71571555Y-111039228D01*
X71618510Y-111024984D01*
X71666635Y-111015412D01*
X71715466Y-111010602D01*
X71740000Y-111010602D01*
X71740000Y-111010000D01*
X72240000Y-111010000D01*
X72240000Y-112510000D01*
X71740000Y-112510000D01*
X71740000Y-112509398D01*
G37*
G04 #@! TD.AperFunction*
G04 #@! TA.AperFunction,SMDPad,CuDef*
G36*
X72540000Y-111010000D02*
G01*
X73040000Y-111010000D01*
X73040000Y-111010602D01*
X73064534Y-111010602D01*
X73113365Y-111015412D01*
X73161490Y-111024984D01*
X73208445Y-111039228D01*
X73253778Y-111058005D01*
X73297051Y-111081136D01*
X73337850Y-111108396D01*
X73375779Y-111139524D01*
X73410476Y-111174221D01*
X73441604Y-111212150D01*
X73468864Y-111252949D01*
X73491995Y-111296222D01*
X73510772Y-111341555D01*
X73525016Y-111388510D01*
X73534588Y-111436635D01*
X73539398Y-111485466D01*
X73539398Y-111510000D01*
X73540000Y-111510000D01*
X73540000Y-112010000D01*
X73539398Y-112010000D01*
X73539398Y-112034534D01*
X73534588Y-112083365D01*
X73525016Y-112131490D01*
X73510772Y-112178445D01*
X73491995Y-112223778D01*
X73468864Y-112267051D01*
X73441604Y-112307850D01*
X73410476Y-112345779D01*
X73375779Y-112380476D01*
X73337850Y-112411604D01*
X73297051Y-112438864D01*
X73253778Y-112461995D01*
X73208445Y-112480772D01*
X73161490Y-112495016D01*
X73113365Y-112504588D01*
X73064534Y-112509398D01*
X73040000Y-112509398D01*
X73040000Y-112510000D01*
X72540000Y-112510000D01*
X72540000Y-111010000D01*
G37*
G04 #@! TD.AperFunction*
G04 #@! TA.AperFunction,SMDPad,CuDef*
G36*
X68430000Y-112510000D02*
G01*
X67930000Y-112510000D01*
X67930000Y-112509398D01*
X67905466Y-112509398D01*
X67856635Y-112504588D01*
X67808510Y-112495016D01*
X67761555Y-112480772D01*
X67716222Y-112461995D01*
X67672949Y-112438864D01*
X67632150Y-112411604D01*
X67594221Y-112380476D01*
X67559524Y-112345779D01*
X67528396Y-112307850D01*
X67501136Y-112267051D01*
X67478005Y-112223778D01*
X67459228Y-112178445D01*
X67444984Y-112131490D01*
X67435412Y-112083365D01*
X67430602Y-112034534D01*
X67430602Y-112010000D01*
X67430000Y-112010000D01*
X67430000Y-111510000D01*
X67430602Y-111510000D01*
X67430602Y-111485466D01*
X67435412Y-111436635D01*
X67444984Y-111388510D01*
X67459228Y-111341555D01*
X67478005Y-111296222D01*
X67501136Y-111252949D01*
X67528396Y-111212150D01*
X67559524Y-111174221D01*
X67594221Y-111139524D01*
X67632150Y-111108396D01*
X67672949Y-111081136D01*
X67716222Y-111058005D01*
X67761555Y-111039228D01*
X67808510Y-111024984D01*
X67856635Y-111015412D01*
X67905466Y-111010602D01*
X67930000Y-111010602D01*
X67930000Y-111010000D01*
X68430000Y-111010000D01*
X68430000Y-112510000D01*
G37*
G04 #@! TD.AperFunction*
G04 #@! TA.AperFunction,SMDPad,CuDef*
G36*
X69230000Y-111010602D02*
G01*
X69254534Y-111010602D01*
X69303365Y-111015412D01*
X69351490Y-111024984D01*
X69398445Y-111039228D01*
X69443778Y-111058005D01*
X69487051Y-111081136D01*
X69527850Y-111108396D01*
X69565779Y-111139524D01*
X69600476Y-111174221D01*
X69631604Y-111212150D01*
X69658864Y-111252949D01*
X69681995Y-111296222D01*
X69700772Y-111341555D01*
X69715016Y-111388510D01*
X69724588Y-111436635D01*
X69729398Y-111485466D01*
X69729398Y-111510000D01*
X69730000Y-111510000D01*
X69730000Y-112010000D01*
X69729398Y-112010000D01*
X69729398Y-112034534D01*
X69724588Y-112083365D01*
X69715016Y-112131490D01*
X69700772Y-112178445D01*
X69681995Y-112223778D01*
X69658864Y-112267051D01*
X69631604Y-112307850D01*
X69600476Y-112345779D01*
X69565779Y-112380476D01*
X69527850Y-112411604D01*
X69487051Y-112438864D01*
X69443778Y-112461995D01*
X69398445Y-112480772D01*
X69351490Y-112495016D01*
X69303365Y-112504588D01*
X69254534Y-112509398D01*
X69230000Y-112509398D01*
X69230000Y-112510000D01*
X68730000Y-112510000D01*
X68730000Y-111010000D01*
X69230000Y-111010000D01*
X69230000Y-111010602D01*
G37*
G04 #@! TD.AperFunction*
G04 #@! TA.AperFunction,SMDPad,CuDef*
G36*
X55895000Y-62750602D02*
G01*
X55919534Y-62750602D01*
X55968365Y-62755412D01*
X56016490Y-62764984D01*
X56063445Y-62779228D01*
X56108778Y-62798005D01*
X56152051Y-62821136D01*
X56192850Y-62848396D01*
X56230779Y-62879524D01*
X56265476Y-62914221D01*
X56296604Y-62952150D01*
X56323864Y-62992949D01*
X56346995Y-63036222D01*
X56365772Y-63081555D01*
X56380016Y-63128510D01*
X56389588Y-63176635D01*
X56394398Y-63225466D01*
X56394398Y-63250000D01*
X56395000Y-63250000D01*
X56395000Y-63750000D01*
X56394398Y-63750000D01*
X56394398Y-63774534D01*
X56389588Y-63823365D01*
X56380016Y-63871490D01*
X56365772Y-63918445D01*
X56346995Y-63963778D01*
X56323864Y-64007051D01*
X56296604Y-64047850D01*
X56265476Y-64085779D01*
X56230779Y-64120476D01*
X56192850Y-64151604D01*
X56152051Y-64178864D01*
X56108778Y-64201995D01*
X56063445Y-64220772D01*
X56016490Y-64235016D01*
X55968365Y-64244588D01*
X55919534Y-64249398D01*
X55895000Y-64249398D01*
X55895000Y-64250000D01*
X55395000Y-64250000D01*
X55395000Y-62750000D01*
X55895000Y-62750000D01*
X55895000Y-62750602D01*
G37*
G04 #@! TD.AperFunction*
G04 #@! TA.AperFunction,SMDPad,CuDef*
G36*
X55095000Y-64250000D02*
G01*
X54595000Y-64250000D01*
X54595000Y-64249398D01*
X54570466Y-64249398D01*
X54521635Y-64244588D01*
X54473510Y-64235016D01*
X54426555Y-64220772D01*
X54381222Y-64201995D01*
X54337949Y-64178864D01*
X54297150Y-64151604D01*
X54259221Y-64120476D01*
X54224524Y-64085779D01*
X54193396Y-64047850D01*
X54166136Y-64007051D01*
X54143005Y-63963778D01*
X54124228Y-63918445D01*
X54109984Y-63871490D01*
X54100412Y-63823365D01*
X54095602Y-63774534D01*
X54095602Y-63750000D01*
X54095000Y-63750000D01*
X54095000Y-63250000D01*
X54095602Y-63250000D01*
X54095602Y-63225466D01*
X54100412Y-63176635D01*
X54109984Y-63128510D01*
X54124228Y-63081555D01*
X54143005Y-63036222D01*
X54166136Y-62992949D01*
X54193396Y-62952150D01*
X54224524Y-62914221D01*
X54259221Y-62879524D01*
X54297150Y-62848396D01*
X54337949Y-62821136D01*
X54381222Y-62798005D01*
X54426555Y-62779228D01*
X54473510Y-62764984D01*
X54521635Y-62755412D01*
X54570466Y-62750602D01*
X54595000Y-62750602D01*
X54595000Y-62750000D01*
X55095000Y-62750000D01*
X55095000Y-64250000D01*
G37*
G04 #@! TD.AperFunction*
G04 #@! TA.AperFunction,SMDPad,CuDef*
G36*
X55910000Y-70370602D02*
G01*
X55934534Y-70370602D01*
X55983365Y-70375412D01*
X56031490Y-70384984D01*
X56078445Y-70399228D01*
X56123778Y-70418005D01*
X56167051Y-70441136D01*
X56207850Y-70468396D01*
X56245779Y-70499524D01*
X56280476Y-70534221D01*
X56311604Y-70572150D01*
X56338864Y-70612949D01*
X56361995Y-70656222D01*
X56380772Y-70701555D01*
X56395016Y-70748510D01*
X56404588Y-70796635D01*
X56409398Y-70845466D01*
X56409398Y-70870000D01*
X56410000Y-70870000D01*
X56410000Y-71370000D01*
X56409398Y-71370000D01*
X56409398Y-71394534D01*
X56404588Y-71443365D01*
X56395016Y-71491490D01*
X56380772Y-71538445D01*
X56361995Y-71583778D01*
X56338864Y-71627051D01*
X56311604Y-71667850D01*
X56280476Y-71705779D01*
X56245779Y-71740476D01*
X56207850Y-71771604D01*
X56167051Y-71798864D01*
X56123778Y-71821995D01*
X56078445Y-71840772D01*
X56031490Y-71855016D01*
X55983365Y-71864588D01*
X55934534Y-71869398D01*
X55910000Y-71869398D01*
X55910000Y-71870000D01*
X55410000Y-71870000D01*
X55410000Y-70370000D01*
X55910000Y-70370000D01*
X55910000Y-70370602D01*
G37*
G04 #@! TD.AperFunction*
G04 #@! TA.AperFunction,SMDPad,CuDef*
G36*
X55110000Y-71870000D02*
G01*
X54610000Y-71870000D01*
X54610000Y-71869398D01*
X54585466Y-71869398D01*
X54536635Y-71864588D01*
X54488510Y-71855016D01*
X54441555Y-71840772D01*
X54396222Y-71821995D01*
X54352949Y-71798864D01*
X54312150Y-71771604D01*
X54274221Y-71740476D01*
X54239524Y-71705779D01*
X54208396Y-71667850D01*
X54181136Y-71627051D01*
X54158005Y-71583778D01*
X54139228Y-71538445D01*
X54124984Y-71491490D01*
X54115412Y-71443365D01*
X54110602Y-71394534D01*
X54110602Y-71370000D01*
X54110000Y-71370000D01*
X54110000Y-70870000D01*
X54110602Y-70870000D01*
X54110602Y-70845466D01*
X54115412Y-70796635D01*
X54124984Y-70748510D01*
X54139228Y-70701555D01*
X54158005Y-70656222D01*
X54181136Y-70612949D01*
X54208396Y-70572150D01*
X54239524Y-70534221D01*
X54274221Y-70499524D01*
X54312150Y-70468396D01*
X54352949Y-70441136D01*
X54396222Y-70418005D01*
X54441555Y-70399228D01*
X54488510Y-70384984D01*
X54536635Y-70375412D01*
X54585466Y-70370602D01*
X54610000Y-70370602D01*
X54610000Y-70370000D01*
X55110000Y-70370000D01*
X55110000Y-71870000D01*
G37*
G04 #@! TD.AperFunction*
G04 #@! TA.AperFunction,SMDPad,CuDef*
G36*
X55110000Y-61710000D02*
G01*
X54610000Y-61710000D01*
X54610000Y-61709398D01*
X54585466Y-61709398D01*
X54536635Y-61704588D01*
X54488510Y-61695016D01*
X54441555Y-61680772D01*
X54396222Y-61661995D01*
X54352949Y-61638864D01*
X54312150Y-61611604D01*
X54274221Y-61580476D01*
X54239524Y-61545779D01*
X54208396Y-61507850D01*
X54181136Y-61467051D01*
X54158005Y-61423778D01*
X54139228Y-61378445D01*
X54124984Y-61331490D01*
X54115412Y-61283365D01*
X54110602Y-61234534D01*
X54110602Y-61210000D01*
X54110000Y-61210000D01*
X54110000Y-60710000D01*
X54110602Y-60710000D01*
X54110602Y-60685466D01*
X54115412Y-60636635D01*
X54124984Y-60588510D01*
X54139228Y-60541555D01*
X54158005Y-60496222D01*
X54181136Y-60452949D01*
X54208396Y-60412150D01*
X54239524Y-60374221D01*
X54274221Y-60339524D01*
X54312150Y-60308396D01*
X54352949Y-60281136D01*
X54396222Y-60258005D01*
X54441555Y-60239228D01*
X54488510Y-60224984D01*
X54536635Y-60215412D01*
X54585466Y-60210602D01*
X54610000Y-60210602D01*
X54610000Y-60210000D01*
X55110000Y-60210000D01*
X55110000Y-61710000D01*
G37*
G04 #@! TD.AperFunction*
G04 #@! TA.AperFunction,SMDPad,CuDef*
G36*
X55910000Y-60210602D02*
G01*
X55934534Y-60210602D01*
X55983365Y-60215412D01*
X56031490Y-60224984D01*
X56078445Y-60239228D01*
X56123778Y-60258005D01*
X56167051Y-60281136D01*
X56207850Y-60308396D01*
X56245779Y-60339524D01*
X56280476Y-60374221D01*
X56311604Y-60412150D01*
X56338864Y-60452949D01*
X56361995Y-60496222D01*
X56380772Y-60541555D01*
X56395016Y-60588510D01*
X56404588Y-60636635D01*
X56409398Y-60685466D01*
X56409398Y-60710000D01*
X56410000Y-60710000D01*
X56410000Y-61210000D01*
X56409398Y-61210000D01*
X56409398Y-61234534D01*
X56404588Y-61283365D01*
X56395016Y-61331490D01*
X56380772Y-61378445D01*
X56361995Y-61423778D01*
X56338864Y-61467051D01*
X56311604Y-61507850D01*
X56280476Y-61545779D01*
X56245779Y-61580476D01*
X56207850Y-61611604D01*
X56167051Y-61638864D01*
X56123778Y-61661995D01*
X56078445Y-61680772D01*
X56031490Y-61695016D01*
X55983365Y-61704588D01*
X55934534Y-61709398D01*
X55910000Y-61709398D01*
X55910000Y-61710000D01*
X55410000Y-61710000D01*
X55410000Y-60210000D01*
X55910000Y-60210000D01*
X55910000Y-60210602D01*
G37*
G04 #@! TD.AperFunction*
G04 #@! TA.AperFunction,SMDPad,CuDef*
G36*
X55910000Y-67830602D02*
G01*
X55934534Y-67830602D01*
X55983365Y-67835412D01*
X56031490Y-67844984D01*
X56078445Y-67859228D01*
X56123778Y-67878005D01*
X56167051Y-67901136D01*
X56207850Y-67928396D01*
X56245779Y-67959524D01*
X56280476Y-67994221D01*
X56311604Y-68032150D01*
X56338864Y-68072949D01*
X56361995Y-68116222D01*
X56380772Y-68161555D01*
X56395016Y-68208510D01*
X56404588Y-68256635D01*
X56409398Y-68305466D01*
X56409398Y-68330000D01*
X56410000Y-68330000D01*
X56410000Y-68830000D01*
X56409398Y-68830000D01*
X56409398Y-68854534D01*
X56404588Y-68903365D01*
X56395016Y-68951490D01*
X56380772Y-68998445D01*
X56361995Y-69043778D01*
X56338864Y-69087051D01*
X56311604Y-69127850D01*
X56280476Y-69165779D01*
X56245779Y-69200476D01*
X56207850Y-69231604D01*
X56167051Y-69258864D01*
X56123778Y-69281995D01*
X56078445Y-69300772D01*
X56031490Y-69315016D01*
X55983365Y-69324588D01*
X55934534Y-69329398D01*
X55910000Y-69329398D01*
X55910000Y-69330000D01*
X55410000Y-69330000D01*
X55410000Y-67830000D01*
X55910000Y-67830000D01*
X55910000Y-67830602D01*
G37*
G04 #@! TD.AperFunction*
G04 #@! TA.AperFunction,SMDPad,CuDef*
G36*
X55110000Y-69330000D02*
G01*
X54610000Y-69330000D01*
X54610000Y-69329398D01*
X54585466Y-69329398D01*
X54536635Y-69324588D01*
X54488510Y-69315016D01*
X54441555Y-69300772D01*
X54396222Y-69281995D01*
X54352949Y-69258864D01*
X54312150Y-69231604D01*
X54274221Y-69200476D01*
X54239524Y-69165779D01*
X54208396Y-69127850D01*
X54181136Y-69087051D01*
X54158005Y-69043778D01*
X54139228Y-68998445D01*
X54124984Y-68951490D01*
X54115412Y-68903365D01*
X54110602Y-68854534D01*
X54110602Y-68830000D01*
X54110000Y-68830000D01*
X54110000Y-68330000D01*
X54110602Y-68330000D01*
X54110602Y-68305466D01*
X54115412Y-68256635D01*
X54124984Y-68208510D01*
X54139228Y-68161555D01*
X54158005Y-68116222D01*
X54181136Y-68072949D01*
X54208396Y-68032150D01*
X54239524Y-67994221D01*
X54274221Y-67959524D01*
X54312150Y-67928396D01*
X54352949Y-67901136D01*
X54396222Y-67878005D01*
X54441555Y-67859228D01*
X54488510Y-67844984D01*
X54536635Y-67835412D01*
X54585466Y-67830602D01*
X54610000Y-67830602D01*
X54610000Y-67830000D01*
X55110000Y-67830000D01*
X55110000Y-69330000D01*
G37*
G04 #@! TD.AperFunction*
G04 #@! TA.AperFunction,SMDPad,CuDef*
G36*
X55110000Y-66790000D02*
G01*
X54610000Y-66790000D01*
X54610000Y-66789398D01*
X54585466Y-66789398D01*
X54536635Y-66784588D01*
X54488510Y-66775016D01*
X54441555Y-66760772D01*
X54396222Y-66741995D01*
X54352949Y-66718864D01*
X54312150Y-66691604D01*
X54274221Y-66660476D01*
X54239524Y-66625779D01*
X54208396Y-66587850D01*
X54181136Y-66547051D01*
X54158005Y-66503778D01*
X54139228Y-66458445D01*
X54124984Y-66411490D01*
X54115412Y-66363365D01*
X54110602Y-66314534D01*
X54110602Y-66290000D01*
X54110000Y-66290000D01*
X54110000Y-65790000D01*
X54110602Y-65790000D01*
X54110602Y-65765466D01*
X54115412Y-65716635D01*
X54124984Y-65668510D01*
X54139228Y-65621555D01*
X54158005Y-65576222D01*
X54181136Y-65532949D01*
X54208396Y-65492150D01*
X54239524Y-65454221D01*
X54274221Y-65419524D01*
X54312150Y-65388396D01*
X54352949Y-65361136D01*
X54396222Y-65338005D01*
X54441555Y-65319228D01*
X54488510Y-65304984D01*
X54536635Y-65295412D01*
X54585466Y-65290602D01*
X54610000Y-65290602D01*
X54610000Y-65290000D01*
X55110000Y-65290000D01*
X55110000Y-66790000D01*
G37*
G04 #@! TD.AperFunction*
G04 #@! TA.AperFunction,SMDPad,CuDef*
G36*
X55910000Y-65290602D02*
G01*
X55934534Y-65290602D01*
X55983365Y-65295412D01*
X56031490Y-65304984D01*
X56078445Y-65319228D01*
X56123778Y-65338005D01*
X56167051Y-65361136D01*
X56207850Y-65388396D01*
X56245779Y-65419524D01*
X56280476Y-65454221D01*
X56311604Y-65492150D01*
X56338864Y-65532949D01*
X56361995Y-65576222D01*
X56380772Y-65621555D01*
X56395016Y-65668510D01*
X56404588Y-65716635D01*
X56409398Y-65765466D01*
X56409398Y-65790000D01*
X56410000Y-65790000D01*
X56410000Y-66290000D01*
X56409398Y-66290000D01*
X56409398Y-66314534D01*
X56404588Y-66363365D01*
X56395016Y-66411490D01*
X56380772Y-66458445D01*
X56361995Y-66503778D01*
X56338864Y-66547051D01*
X56311604Y-66587850D01*
X56280476Y-66625779D01*
X56245779Y-66660476D01*
X56207850Y-66691604D01*
X56167051Y-66718864D01*
X56123778Y-66741995D01*
X56078445Y-66760772D01*
X56031490Y-66775016D01*
X55983365Y-66784588D01*
X55934534Y-66789398D01*
X55910000Y-66789398D01*
X55910000Y-66790000D01*
X55410000Y-66790000D01*
X55410000Y-65290000D01*
X55910000Y-65290000D01*
X55910000Y-65290602D01*
G37*
G04 #@! TD.AperFunction*
G04 #@! TA.AperFunction,SMDPad,CuDef*
G36*
X55910000Y-72910602D02*
G01*
X55934534Y-72910602D01*
X55983365Y-72915412D01*
X56031490Y-72924984D01*
X56078445Y-72939228D01*
X56123778Y-72958005D01*
X56167051Y-72981136D01*
X56207850Y-73008396D01*
X56245779Y-73039524D01*
X56280476Y-73074221D01*
X56311604Y-73112150D01*
X56338864Y-73152949D01*
X56361995Y-73196222D01*
X56380772Y-73241555D01*
X56395016Y-73288510D01*
X56404588Y-73336635D01*
X56409398Y-73385466D01*
X56409398Y-73410000D01*
X56410000Y-73410000D01*
X56410000Y-73910000D01*
X56409398Y-73910000D01*
X56409398Y-73934534D01*
X56404588Y-73983365D01*
X56395016Y-74031490D01*
X56380772Y-74078445D01*
X56361995Y-74123778D01*
X56338864Y-74167051D01*
X56311604Y-74207850D01*
X56280476Y-74245779D01*
X56245779Y-74280476D01*
X56207850Y-74311604D01*
X56167051Y-74338864D01*
X56123778Y-74361995D01*
X56078445Y-74380772D01*
X56031490Y-74395016D01*
X55983365Y-74404588D01*
X55934534Y-74409398D01*
X55910000Y-74409398D01*
X55910000Y-74410000D01*
X55410000Y-74410000D01*
X55410000Y-72910000D01*
X55910000Y-72910000D01*
X55910000Y-72910602D01*
G37*
G04 #@! TD.AperFunction*
G04 #@! TA.AperFunction,SMDPad,CuDef*
G36*
X55110000Y-74410000D02*
G01*
X54610000Y-74410000D01*
X54610000Y-74409398D01*
X54585466Y-74409398D01*
X54536635Y-74404588D01*
X54488510Y-74395016D01*
X54441555Y-74380772D01*
X54396222Y-74361995D01*
X54352949Y-74338864D01*
X54312150Y-74311604D01*
X54274221Y-74280476D01*
X54239524Y-74245779D01*
X54208396Y-74207850D01*
X54181136Y-74167051D01*
X54158005Y-74123778D01*
X54139228Y-74078445D01*
X54124984Y-74031490D01*
X54115412Y-73983365D01*
X54110602Y-73934534D01*
X54110602Y-73910000D01*
X54110000Y-73910000D01*
X54110000Y-73410000D01*
X54110602Y-73410000D01*
X54110602Y-73385466D01*
X54115412Y-73336635D01*
X54124984Y-73288510D01*
X54139228Y-73241555D01*
X54158005Y-73196222D01*
X54181136Y-73152949D01*
X54208396Y-73112150D01*
X54239524Y-73074221D01*
X54274221Y-73039524D01*
X54312150Y-73008396D01*
X54352949Y-72981136D01*
X54396222Y-72958005D01*
X54441555Y-72939228D01*
X54488510Y-72924984D01*
X54536635Y-72915412D01*
X54585466Y-72910602D01*
X54610000Y-72910602D01*
X54610000Y-72910000D01*
X55110000Y-72910000D01*
X55110000Y-74410000D01*
G37*
G04 #@! TD.AperFunction*
D14*
X66040000Y-79375000D03*
D15*
X66040000Y-81915000D03*
X66040000Y-84455000D03*
X41275000Y-101600000D03*
D14*
X41275000Y-99060000D03*
D15*
X41275000Y-88900000D03*
X41275000Y-86360000D03*
X41275000Y-83820000D03*
D14*
X41275000Y-81280000D03*
X41275000Y-111760000D03*
D15*
X41275000Y-114300000D03*
X41275000Y-116840000D03*
X41275000Y-119380000D03*
G04 #@! TA.AperFunction,ComponentPad*
G36*
G01*
X79850000Y-130165000D02*
X79850000Y-128915000D01*
G75*
G02*
X80475000Y-128290000I625000J0D01*
G01*
X81725000Y-128290000D01*
G75*
G02*
X82350000Y-128915000I0J-625000D01*
G01*
X82350000Y-130165000D01*
G75*
G02*
X81725000Y-130790000I-625000J0D01*
G01*
X80475000Y-130790000D01*
G75*
G02*
X79850000Y-130165000I0J625000D01*
G01*
G37*
G04 #@! TD.AperFunction*
D12*
X86100000Y-129540000D03*
D15*
X73533000Y-84582000D03*
X73533000Y-82042000D03*
D14*
X73533000Y-79502000D03*
X69215000Y-39370000D03*
D15*
X66675000Y-39370000D03*
X64135000Y-39370000D03*
X61595000Y-39370000D03*
X59055000Y-39370000D03*
X56515000Y-39370000D03*
D14*
X104140000Y-131445000D03*
D15*
X104140000Y-128905000D03*
X104140000Y-126365000D03*
G04 #@! TA.AperFunction,SMDPad,CuDef*
G36*
G01*
X49540000Y-122695000D02*
X50790000Y-122695000D01*
G75*
G02*
X51040000Y-122945000I0J-250000D01*
G01*
X51040000Y-123870000D01*
G75*
G02*
X50790000Y-124120000I-250000J0D01*
G01*
X49540000Y-124120000D01*
G75*
G02*
X49290000Y-123870000I0J250000D01*
G01*
X49290000Y-122945000D01*
G75*
G02*
X49540000Y-122695000I250000J0D01*
G01*
G37*
G04 #@! TD.AperFunction*
G04 #@! TA.AperFunction,SMDPad,CuDef*
G36*
G01*
X49540000Y-119720000D02*
X50790000Y-119720000D01*
G75*
G02*
X51040000Y-119970000I0J-250000D01*
G01*
X51040000Y-120895000D01*
G75*
G02*
X50790000Y-121145000I-250000J0D01*
G01*
X49540000Y-121145000D01*
G75*
G02*
X49290000Y-120895000I0J250000D01*
G01*
X49290000Y-119970000D01*
G75*
G02*
X49540000Y-119720000I250000J0D01*
G01*
G37*
G04 #@! TD.AperFunction*
G04 #@! TA.AperFunction,SMDPad,CuDef*
G36*
G01*
X110500000Y-46060000D02*
X111750000Y-46060000D01*
G75*
G02*
X112000000Y-46310000I0J-250000D01*
G01*
X112000000Y-47235000D01*
G75*
G02*
X111750000Y-47485000I-250000J0D01*
G01*
X110500000Y-47485000D01*
G75*
G02*
X110250000Y-47235000I0J250000D01*
G01*
X110250000Y-46310000D01*
G75*
G02*
X110500000Y-46060000I250000J0D01*
G01*
G37*
G04 #@! TD.AperFunction*
G04 #@! TA.AperFunction,SMDPad,CuDef*
G36*
G01*
X110500000Y-49035000D02*
X111750000Y-49035000D01*
G75*
G02*
X112000000Y-49285000I0J-250000D01*
G01*
X112000000Y-50210000D01*
G75*
G02*
X111750000Y-50460000I-250000J0D01*
G01*
X110500000Y-50460000D01*
G75*
G02*
X110250000Y-50210000I0J250000D01*
G01*
X110250000Y-49285000D01*
G75*
G02*
X110500000Y-49035000I250000J0D01*
G01*
G37*
G04 #@! TD.AperFunction*
G04 #@! TA.AperFunction,SMDPad,CuDef*
G36*
G01*
X111900000Y-97780000D02*
X111900000Y-96530000D01*
G75*
G02*
X112150000Y-96280000I250000J0D01*
G01*
X113075000Y-96280000D01*
G75*
G02*
X113325000Y-96530000I0J-250000D01*
G01*
X113325000Y-97780000D01*
G75*
G02*
X113075000Y-98030000I-250000J0D01*
G01*
X112150000Y-98030000D01*
G75*
G02*
X111900000Y-97780000I0J250000D01*
G01*
G37*
G04 #@! TD.AperFunction*
G04 #@! TA.AperFunction,SMDPad,CuDef*
G36*
G01*
X108925000Y-97780000D02*
X108925000Y-96530000D01*
G75*
G02*
X109175000Y-96280000I250000J0D01*
G01*
X110100000Y-96280000D01*
G75*
G02*
X110350000Y-96530000I0J-250000D01*
G01*
X110350000Y-97780000D01*
G75*
G02*
X110100000Y-98030000I-250000J0D01*
G01*
X109175000Y-98030000D01*
G75*
G02*
X108925000Y-97780000I0J250000D01*
G01*
G37*
G04 #@! TD.AperFunction*
G04 #@! TA.AperFunction,SMDPad,CuDef*
G36*
G01*
X41265000Y-42205000D02*
X40015000Y-42205000D01*
G75*
G02*
X39765000Y-41955000I0J250000D01*
G01*
X39765000Y-41030000D01*
G75*
G02*
X40015000Y-40780000I250000J0D01*
G01*
X41265000Y-40780000D01*
G75*
G02*
X41515000Y-41030000I0J-250000D01*
G01*
X41515000Y-41955000D01*
G75*
G02*
X41265000Y-42205000I-250000J0D01*
G01*
G37*
G04 #@! TD.AperFunction*
G04 #@! TA.AperFunction,SMDPad,CuDef*
G36*
G01*
X41265000Y-39230000D02*
X40015000Y-39230000D01*
G75*
G02*
X39765000Y-38980000I0J250000D01*
G01*
X39765000Y-38055000D01*
G75*
G02*
X40015000Y-37805000I250000J0D01*
G01*
X41265000Y-37805000D01*
G75*
G02*
X41515000Y-38055000I0J-250000D01*
G01*
X41515000Y-38980000D01*
G75*
G02*
X41265000Y-39230000I-250000J0D01*
G01*
G37*
G04 #@! TD.AperFunction*
G04 #@! TA.AperFunction,SMDPad,CuDef*
G36*
G01*
X43805000Y-39230000D02*
X42555000Y-39230000D01*
G75*
G02*
X42305000Y-38980000I0J250000D01*
G01*
X42305000Y-38055000D01*
G75*
G02*
X42555000Y-37805000I250000J0D01*
G01*
X43805000Y-37805000D01*
G75*
G02*
X44055000Y-38055000I0J-250000D01*
G01*
X44055000Y-38980000D01*
G75*
G02*
X43805000Y-39230000I-250000J0D01*
G01*
G37*
G04 #@! TD.AperFunction*
G04 #@! TA.AperFunction,SMDPad,CuDef*
G36*
G01*
X43805000Y-42205000D02*
X42555000Y-42205000D01*
G75*
G02*
X42305000Y-41955000I0J250000D01*
G01*
X42305000Y-41030000D01*
G75*
G02*
X42555000Y-40780000I250000J0D01*
G01*
X43805000Y-40780000D01*
G75*
G02*
X44055000Y-41030000I0J-250000D01*
G01*
X44055000Y-41955000D01*
G75*
G02*
X43805000Y-42205000I-250000J0D01*
G01*
G37*
G04 #@! TD.AperFunction*
G04 #@! TA.AperFunction,SMDPad,CuDef*
G36*
G01*
X38725000Y-42205000D02*
X37475000Y-42205000D01*
G75*
G02*
X37225000Y-41955000I0J250000D01*
G01*
X37225000Y-41030000D01*
G75*
G02*
X37475000Y-40780000I250000J0D01*
G01*
X38725000Y-40780000D01*
G75*
G02*
X38975000Y-41030000I0J-250000D01*
G01*
X38975000Y-41955000D01*
G75*
G02*
X38725000Y-42205000I-250000J0D01*
G01*
G37*
G04 #@! TD.AperFunction*
G04 #@! TA.AperFunction,SMDPad,CuDef*
G36*
G01*
X38725000Y-39230000D02*
X37475000Y-39230000D01*
G75*
G02*
X37225000Y-38980000I0J250000D01*
G01*
X37225000Y-38055000D01*
G75*
G02*
X37475000Y-37805000I250000J0D01*
G01*
X38725000Y-37805000D01*
G75*
G02*
X38975000Y-38055000I0J-250000D01*
G01*
X38975000Y-38980000D01*
G75*
G02*
X38725000Y-39230000I-250000J0D01*
G01*
G37*
G04 #@! TD.AperFunction*
G04 #@! TA.AperFunction,SMDPad,CuDef*
G36*
G01*
X113325000Y-128280000D02*
X113325000Y-129530000D01*
G75*
G02*
X113075000Y-129780000I-250000J0D01*
G01*
X112150000Y-129780000D01*
G75*
G02*
X111900000Y-129530000I0J250000D01*
G01*
X111900000Y-128280000D01*
G75*
G02*
X112150000Y-128030000I250000J0D01*
G01*
X113075000Y-128030000D01*
G75*
G02*
X113325000Y-128280000I0J-250000D01*
G01*
G37*
G04 #@! TD.AperFunction*
G04 #@! TA.AperFunction,SMDPad,CuDef*
G36*
G01*
X110350000Y-128280000D02*
X110350000Y-129530000D01*
G75*
G02*
X110100000Y-129780000I-250000J0D01*
G01*
X109175000Y-129780000D01*
G75*
G02*
X108925000Y-129530000I0J250000D01*
G01*
X108925000Y-128280000D01*
G75*
G02*
X109175000Y-128030000I250000J0D01*
G01*
X110100000Y-128030000D01*
G75*
G02*
X110350000Y-128280000I0J-250000D01*
G01*
G37*
G04 #@! TD.AperFunction*
G04 #@! TA.AperFunction,SMDPad,CuDef*
G36*
G01*
X118187500Y-51445000D02*
X118187500Y-52695000D01*
G75*
G02*
X117937500Y-52945000I-250000J0D01*
G01*
X117012500Y-52945000D01*
G75*
G02*
X116762500Y-52695000I0J250000D01*
G01*
X116762500Y-51445000D01*
G75*
G02*
X117012500Y-51195000I250000J0D01*
G01*
X117937500Y-51195000D01*
G75*
G02*
X118187500Y-51445000I0J-250000D01*
G01*
G37*
G04 #@! TD.AperFunction*
G04 #@! TA.AperFunction,SMDPad,CuDef*
G36*
G01*
X121162500Y-51445000D02*
X121162500Y-52695000D01*
G75*
G02*
X120912500Y-52945000I-250000J0D01*
G01*
X119987500Y-52945000D01*
G75*
G02*
X119737500Y-52695000I0J250000D01*
G01*
X119737500Y-51445000D01*
G75*
G02*
X119987500Y-51195000I250000J0D01*
G01*
X120912500Y-51195000D01*
G75*
G02*
X121162500Y-51445000I0J-250000D01*
G01*
G37*
G04 #@! TD.AperFunction*
G04 #@! TA.AperFunction,SMDPad,CuDef*
G36*
G01*
X89875000Y-52060000D02*
X89875000Y-50810000D01*
G75*
G02*
X90125000Y-50560000I250000J0D01*
G01*
X91050000Y-50560000D01*
G75*
G02*
X91300000Y-50810000I0J-250000D01*
G01*
X91300000Y-52060000D01*
G75*
G02*
X91050000Y-52310000I-250000J0D01*
G01*
X90125000Y-52310000D01*
G75*
G02*
X89875000Y-52060000I0J250000D01*
G01*
G37*
G04 #@! TD.AperFunction*
G04 #@! TA.AperFunction,SMDPad,CuDef*
G36*
G01*
X92850000Y-52060000D02*
X92850000Y-50810000D01*
G75*
G02*
X93100000Y-50560000I250000J0D01*
G01*
X94025000Y-50560000D01*
G75*
G02*
X94275000Y-50810000I0J-250000D01*
G01*
X94275000Y-52060000D01*
G75*
G02*
X94025000Y-52310000I-250000J0D01*
G01*
X93100000Y-52310000D01*
G75*
G02*
X92850000Y-52060000I0J250000D01*
G01*
G37*
G04 #@! TD.AperFunction*
G04 #@! TA.AperFunction,SMDPad,CuDef*
G36*
G01*
X94275000Y-55890000D02*
X94275000Y-57140000D01*
G75*
G02*
X94025000Y-57390000I-250000J0D01*
G01*
X93100000Y-57390000D01*
G75*
G02*
X92850000Y-57140000I0J250000D01*
G01*
X92850000Y-55890000D01*
G75*
G02*
X93100000Y-55640000I250000J0D01*
G01*
X94025000Y-55640000D01*
G75*
G02*
X94275000Y-55890000I0J-250000D01*
G01*
G37*
G04 #@! TD.AperFunction*
G04 #@! TA.AperFunction,SMDPad,CuDef*
G36*
G01*
X91300000Y-55890000D02*
X91300000Y-57140000D01*
G75*
G02*
X91050000Y-57390000I-250000J0D01*
G01*
X90125000Y-57390000D01*
G75*
G02*
X89875000Y-57140000I0J250000D01*
G01*
X89875000Y-55890000D01*
G75*
G02*
X90125000Y-55640000I250000J0D01*
G01*
X91050000Y-55640000D01*
G75*
G02*
X91300000Y-55890000I0J-250000D01*
G01*
G37*
G04 #@! TD.AperFunction*
G04 #@! TA.AperFunction,SMDPad,CuDef*
G36*
G01*
X116700000Y-103515000D02*
X116700000Y-104765000D01*
G75*
G02*
X116450000Y-105015000I-250000J0D01*
G01*
X115525000Y-105015000D01*
G75*
G02*
X115275000Y-104765000I0J250000D01*
G01*
X115275000Y-103515000D01*
G75*
G02*
X115525000Y-103265000I250000J0D01*
G01*
X116450000Y-103265000D01*
G75*
G02*
X116700000Y-103515000I0J-250000D01*
G01*
G37*
G04 #@! TD.AperFunction*
G04 #@! TA.AperFunction,SMDPad,CuDef*
G36*
G01*
X119675000Y-103515000D02*
X119675000Y-104765000D01*
G75*
G02*
X119425000Y-105015000I-250000J0D01*
G01*
X118500000Y-105015000D01*
G75*
G02*
X118250000Y-104765000I0J250000D01*
G01*
X118250000Y-103515000D01*
G75*
G02*
X118500000Y-103265000I250000J0D01*
G01*
X119425000Y-103265000D01*
G75*
G02*
X119675000Y-103515000I0J-250000D01*
G01*
G37*
G04 #@! TD.AperFunction*
G04 #@! TA.AperFunction,SMDPad,CuDef*
G36*
G01*
X32372000Y-72908000D02*
X32372000Y-74158000D01*
G75*
G02*
X32122000Y-74408000I-250000J0D01*
G01*
X31197000Y-74408000D01*
G75*
G02*
X30947000Y-74158000I0J250000D01*
G01*
X30947000Y-72908000D01*
G75*
G02*
X31197000Y-72658000I250000J0D01*
G01*
X32122000Y-72658000D01*
G75*
G02*
X32372000Y-72908000I0J-250000D01*
G01*
G37*
G04 #@! TD.AperFunction*
G04 #@! TA.AperFunction,SMDPad,CuDef*
G36*
G01*
X35347000Y-72908000D02*
X35347000Y-74158000D01*
G75*
G02*
X35097000Y-74408000I-250000J0D01*
G01*
X34172000Y-74408000D01*
G75*
G02*
X33922000Y-74158000I0J250000D01*
G01*
X33922000Y-72908000D01*
G75*
G02*
X34172000Y-72658000I250000J0D01*
G01*
X35097000Y-72658000D01*
G75*
G02*
X35347000Y-72908000I0J-250000D01*
G01*
G37*
G04 #@! TD.AperFunction*
G04 #@! TA.AperFunction,SMDPad,CuDef*
G36*
G01*
X33922000Y-76698000D02*
X33922000Y-75448000D01*
G75*
G02*
X34172000Y-75198000I250000J0D01*
G01*
X35097000Y-75198000D01*
G75*
G02*
X35347000Y-75448000I0J-250000D01*
G01*
X35347000Y-76698000D01*
G75*
G02*
X35097000Y-76948000I-250000J0D01*
G01*
X34172000Y-76948000D01*
G75*
G02*
X33922000Y-76698000I0J250000D01*
G01*
G37*
G04 #@! TD.AperFunction*
G04 #@! TA.AperFunction,SMDPad,CuDef*
G36*
G01*
X30947000Y-76698000D02*
X30947000Y-75448000D01*
G75*
G02*
X31197000Y-75198000I250000J0D01*
G01*
X32122000Y-75198000D01*
G75*
G02*
X32372000Y-75448000I0J-250000D01*
G01*
X32372000Y-76698000D01*
G75*
G02*
X32122000Y-76948000I-250000J0D01*
G01*
X31197000Y-76948000D01*
G75*
G02*
X30947000Y-76698000I0J250000D01*
G01*
G37*
G04 #@! TD.AperFunction*
G04 #@! TA.AperFunction,SMDPad,CuDef*
G36*
G01*
X35347000Y-70368000D02*
X35347000Y-71618000D01*
G75*
G02*
X35097000Y-71868000I-250000J0D01*
G01*
X34172000Y-71868000D01*
G75*
G02*
X33922000Y-71618000I0J250000D01*
G01*
X33922000Y-70368000D01*
G75*
G02*
X34172000Y-70118000I250000J0D01*
G01*
X35097000Y-70118000D01*
G75*
G02*
X35347000Y-70368000I0J-250000D01*
G01*
G37*
G04 #@! TD.AperFunction*
G04 #@! TA.AperFunction,SMDPad,CuDef*
G36*
G01*
X32372000Y-70368000D02*
X32372000Y-71618000D01*
G75*
G02*
X32122000Y-71868000I-250000J0D01*
G01*
X31197000Y-71868000D01*
G75*
G02*
X30947000Y-71618000I0J250000D01*
G01*
X30947000Y-70368000D01*
G75*
G02*
X31197000Y-70118000I250000J0D01*
G01*
X32122000Y-70118000D01*
G75*
G02*
X32372000Y-70368000I0J-250000D01*
G01*
G37*
G04 #@! TD.AperFunction*
G04 #@! TA.AperFunction,SMDPad,CuDef*
G36*
G01*
X79365000Y-63795000D02*
X78115000Y-63795000D01*
G75*
G02*
X77865000Y-63545000I0J250000D01*
G01*
X77865000Y-62620000D01*
G75*
G02*
X78115000Y-62370000I250000J0D01*
G01*
X79365000Y-62370000D01*
G75*
G02*
X79615000Y-62620000I0J-250000D01*
G01*
X79615000Y-63545000D01*
G75*
G02*
X79365000Y-63795000I-250000J0D01*
G01*
G37*
G04 #@! TD.AperFunction*
G04 #@! TA.AperFunction,SMDPad,CuDef*
G36*
G01*
X79365000Y-60820000D02*
X78115000Y-60820000D01*
G75*
G02*
X77865000Y-60570000I0J250000D01*
G01*
X77865000Y-59645000D01*
G75*
G02*
X78115000Y-59395000I250000J0D01*
G01*
X79365000Y-59395000D01*
G75*
G02*
X79615000Y-59645000I0J-250000D01*
G01*
X79615000Y-60570000D01*
G75*
G02*
X79365000Y-60820000I-250000J0D01*
G01*
G37*
G04 #@! TD.AperFunction*
G04 #@! TA.AperFunction,SMDPad,CuDef*
G36*
G01*
X100375000Y-109800000D02*
X101625000Y-109800000D01*
G75*
G02*
X101875000Y-110050000I0J-250000D01*
G01*
X101875000Y-110975000D01*
G75*
G02*
X101625000Y-111225000I-250000J0D01*
G01*
X100375000Y-111225000D01*
G75*
G02*
X100125000Y-110975000I0J250000D01*
G01*
X100125000Y-110050000D01*
G75*
G02*
X100375000Y-109800000I250000J0D01*
G01*
G37*
G04 #@! TD.AperFunction*
G04 #@! TA.AperFunction,SMDPad,CuDef*
G36*
G01*
X100375000Y-112775000D02*
X101625000Y-112775000D01*
G75*
G02*
X101875000Y-113025000I0J-250000D01*
G01*
X101875000Y-113950000D01*
G75*
G02*
X101625000Y-114200000I-250000J0D01*
G01*
X100375000Y-114200000D01*
G75*
G02*
X100125000Y-113950000I0J250000D01*
G01*
X100125000Y-113025000D01*
G75*
G02*
X100375000Y-112775000I250000J0D01*
G01*
G37*
G04 #@! TD.AperFunction*
G04 #@! TA.AperFunction,SMDPad,CuDef*
G36*
G01*
X90375000Y-112775000D02*
X91625000Y-112775000D01*
G75*
G02*
X91875000Y-113025000I0J-250000D01*
G01*
X91875000Y-113950000D01*
G75*
G02*
X91625000Y-114200000I-250000J0D01*
G01*
X90375000Y-114200000D01*
G75*
G02*
X90125000Y-113950000I0J250000D01*
G01*
X90125000Y-113025000D01*
G75*
G02*
X90375000Y-112775000I250000J0D01*
G01*
G37*
G04 #@! TD.AperFunction*
G04 #@! TA.AperFunction,SMDPad,CuDef*
G36*
G01*
X90375000Y-109800000D02*
X91625000Y-109800000D01*
G75*
G02*
X91875000Y-110050000I0J-250000D01*
G01*
X91875000Y-110975000D01*
G75*
G02*
X91625000Y-111225000I-250000J0D01*
G01*
X90375000Y-111225000D01*
G75*
G02*
X90125000Y-110975000I0J250000D01*
G01*
X90125000Y-110050000D01*
G75*
G02*
X90375000Y-109800000I250000J0D01*
G01*
G37*
G04 #@! TD.AperFunction*
G04 #@! TA.AperFunction,SMDPad,CuDef*
G36*
G01*
X94625000Y-111225000D02*
X93375000Y-111225000D01*
G75*
G02*
X93125000Y-110975000I0J250000D01*
G01*
X93125000Y-110050000D01*
G75*
G02*
X93375000Y-109800000I250000J0D01*
G01*
X94625000Y-109800000D01*
G75*
G02*
X94875000Y-110050000I0J-250000D01*
G01*
X94875000Y-110975000D01*
G75*
G02*
X94625000Y-111225000I-250000J0D01*
G01*
G37*
G04 #@! TD.AperFunction*
G04 #@! TA.AperFunction,SMDPad,CuDef*
G36*
G01*
X94625000Y-114200000D02*
X93375000Y-114200000D01*
G75*
G02*
X93125000Y-113950000I0J250000D01*
G01*
X93125000Y-113025000D01*
G75*
G02*
X93375000Y-112775000I250000J0D01*
G01*
X94625000Y-112775000D01*
G75*
G02*
X94875000Y-113025000I0J-250000D01*
G01*
X94875000Y-113950000D01*
G75*
G02*
X94625000Y-114200000I-250000J0D01*
G01*
G37*
G04 #@! TD.AperFunction*
D12*
X75210000Y-40640000D03*
X80210000Y-40640000D03*
X85210000Y-40640000D03*
X90210000Y-40640000D03*
X95210000Y-40640000D03*
X100210000Y-40640000D03*
X105210000Y-40640000D03*
G04 #@! TA.AperFunction,ComponentPad*
G36*
G01*
X111460000Y-40015000D02*
X111460000Y-41265000D01*
G75*
G02*
X110835000Y-41890000I-625000J0D01*
G01*
X109585000Y-41890000D01*
G75*
G02*
X108960000Y-41265000I0J625000D01*
G01*
X108960000Y-40015000D01*
G75*
G02*
X109585000Y-39390000I625000J0D01*
G01*
X110835000Y-39390000D01*
G75*
G02*
X111460000Y-40015000I0J-625000D01*
G01*
G37*
G04 #@! TD.AperFunction*
G04 #@! TA.AperFunction,ComponentPad*
G36*
G01*
X119625000Y-97815000D02*
X118375000Y-97815000D01*
G75*
G02*
X117750000Y-97190000I0J625000D01*
G01*
X117750000Y-95940000D01*
G75*
G02*
X118375000Y-95315000I625000J0D01*
G01*
X119625000Y-95315000D01*
G75*
G02*
X120250000Y-95940000I0J-625000D01*
G01*
X120250000Y-97190000D01*
G75*
G02*
X119625000Y-97815000I-625000J0D01*
G01*
G37*
G04 #@! TD.AperFunction*
X119000000Y-91565000D03*
X119000000Y-86565000D03*
X119000000Y-81565000D03*
X119000000Y-76565000D03*
X119000000Y-71565000D03*
X119000000Y-66565000D03*
X119000000Y-61565000D03*
D15*
X97820000Y-131445000D03*
X95280000Y-131445000D03*
X97820000Y-128905000D03*
X95280000Y-128905000D03*
X97820000Y-126365000D03*
D14*
X95280000Y-126365000D03*
D21*
X36294000Y-86410000D03*
X28194000Y-89310000D03*
X36294000Y-83210000D03*
X33194000Y-88410000D03*
X28194000Y-80010000D03*
X36294000Y-101650000D03*
X28194000Y-104550000D03*
X36294000Y-98450000D03*
X33194000Y-103650000D03*
X28194000Y-95250000D03*
X36294000Y-116890000D03*
X28194000Y-119790000D03*
X36294000Y-113690000D03*
X33194000Y-118890000D03*
X28194000Y-110490000D03*
D22*
X31352500Y-67246500D03*
X34052500Y-68196500D03*
X34052500Y-66296500D03*
X34052500Y-67246500D03*
G04 #@! TA.AperFunction,SMDPad,CuDef*
G36*
G01*
X42535000Y-130470000D02*
X41285000Y-130470000D01*
G75*
G02*
X41035000Y-130220000I0J250000D01*
G01*
X41035000Y-129295000D01*
G75*
G02*
X41285000Y-129045000I250000J0D01*
G01*
X42535000Y-129045000D01*
G75*
G02*
X42785000Y-129295000I0J-250000D01*
G01*
X42785000Y-130220000D01*
G75*
G02*
X42535000Y-130470000I-250000J0D01*
G01*
G37*
G04 #@! TD.AperFunction*
G04 #@! TA.AperFunction,SMDPad,CuDef*
G36*
G01*
X42535000Y-127495000D02*
X41285000Y-127495000D01*
G75*
G02*
X41035000Y-127245000I0J250000D01*
G01*
X41035000Y-126320000D01*
G75*
G02*
X41285000Y-126070000I250000J0D01*
G01*
X42535000Y-126070000D01*
G75*
G02*
X42785000Y-126320000I0J-250000D01*
G01*
X42785000Y-127245000D01*
G75*
G02*
X42535000Y-127495000I-250000J0D01*
G01*
G37*
G04 #@! TD.AperFunction*
G04 #@! TA.AperFunction,SMDPad,CuDef*
G36*
G01*
X74940000Y-59395000D02*
X76190000Y-59395000D01*
G75*
G02*
X76440000Y-59645000I0J-250000D01*
G01*
X76440000Y-60570000D01*
G75*
G02*
X76190000Y-60820000I-250000J0D01*
G01*
X74940000Y-60820000D01*
G75*
G02*
X74690000Y-60570000I0J250000D01*
G01*
X74690000Y-59645000D01*
G75*
G02*
X74940000Y-59395000I250000J0D01*
G01*
G37*
G04 #@! TD.AperFunction*
G04 #@! TA.AperFunction,SMDPad,CuDef*
G36*
G01*
X74940000Y-62370000D02*
X76190000Y-62370000D01*
G75*
G02*
X76440000Y-62620000I0J-250000D01*
G01*
X76440000Y-63545000D01*
G75*
G02*
X76190000Y-63795000I-250000J0D01*
G01*
X74940000Y-63795000D01*
G75*
G02*
X74690000Y-63545000I0J250000D01*
G01*
X74690000Y-62620000D01*
G75*
G02*
X74940000Y-62370000I250000J0D01*
G01*
G37*
G04 #@! TD.AperFunction*
G04 #@! TA.AperFunction,SMDPad,CuDef*
G36*
G01*
X87770000Y-57140000D02*
X87770000Y-55890000D01*
G75*
G02*
X88020000Y-55640000I250000J0D01*
G01*
X88945000Y-55640000D01*
G75*
G02*
X89195000Y-55890000I0J-250000D01*
G01*
X89195000Y-57140000D01*
G75*
G02*
X88945000Y-57390000I-250000J0D01*
G01*
X88020000Y-57390000D01*
G75*
G02*
X87770000Y-57140000I0J250000D01*
G01*
G37*
G04 #@! TD.AperFunction*
G04 #@! TA.AperFunction,SMDPad,CuDef*
G36*
G01*
X84795000Y-57140000D02*
X84795000Y-55890000D01*
G75*
G02*
X85045000Y-55640000I250000J0D01*
G01*
X85970000Y-55640000D01*
G75*
G02*
X86220000Y-55890000I0J-250000D01*
G01*
X86220000Y-57140000D01*
G75*
G02*
X85970000Y-57390000I-250000J0D01*
G01*
X85045000Y-57390000D01*
G75*
G02*
X84795000Y-57140000I0J250000D01*
G01*
G37*
G04 #@! TD.AperFunction*
D19*
X75465000Y-91295000D03*
X72975000Y-91295000D03*
X70485000Y-91295000D03*
X67995000Y-91295000D03*
X65505000Y-91295000D03*
X65505000Y-108095000D03*
X67995000Y-108095000D03*
X70485000Y-108095000D03*
X72975000Y-108095000D03*
X75465000Y-108095000D03*
D14*
X40259000Y-57150000D03*
D23*
X40259000Y-54650000D03*
X38259000Y-54650000D03*
X38259000Y-57150000D03*
D24*
X35549000Y-61920000D03*
X35549000Y-49880000D03*
G04 #@! TA.AperFunction,SMDPad,CuDef*
D20*
G36*
X97675602Y-73660000D02*
G01*
X97675602Y-73635466D01*
X97680412Y-73586635D01*
X97689984Y-73538510D01*
X97704228Y-73491555D01*
X97723005Y-73446222D01*
X97746136Y-73402949D01*
X97773396Y-73362150D01*
X97804524Y-73324221D01*
X97839221Y-73289524D01*
X97877150Y-73258396D01*
X97917949Y-73231136D01*
X97961222Y-73208005D01*
X98006555Y-73189228D01*
X98053510Y-73174984D01*
X98101635Y-73165412D01*
X98150466Y-73160602D01*
X98175000Y-73160602D01*
X98175000Y-73160000D01*
X98675000Y-73160000D01*
X98675000Y-73160602D01*
X98699534Y-73160602D01*
X98748365Y-73165412D01*
X98796490Y-73174984D01*
X98843445Y-73189228D01*
X98888778Y-73208005D01*
X98932051Y-73231136D01*
X98972850Y-73258396D01*
X99010779Y-73289524D01*
X99045476Y-73324221D01*
X99076604Y-73362150D01*
X99103864Y-73402949D01*
X99126995Y-73446222D01*
X99145772Y-73491555D01*
X99160016Y-73538510D01*
X99169588Y-73586635D01*
X99174398Y-73635466D01*
X99174398Y-73660000D01*
X99175000Y-73660000D01*
X99175000Y-74160000D01*
X97675000Y-74160000D01*
X97675000Y-73660000D01*
X97675602Y-73660000D01*
G37*
G04 #@! TD.AperFunction*
G04 #@! TA.AperFunction,SMDPad,CuDef*
G36*
X99175000Y-74460000D02*
G01*
X99175000Y-74960000D01*
X99174398Y-74960000D01*
X99174398Y-74984534D01*
X99169588Y-75033365D01*
X99160016Y-75081490D01*
X99145772Y-75128445D01*
X99126995Y-75173778D01*
X99103864Y-75217051D01*
X99076604Y-75257850D01*
X99045476Y-75295779D01*
X99010779Y-75330476D01*
X98972850Y-75361604D01*
X98932051Y-75388864D01*
X98888778Y-75411995D01*
X98843445Y-75430772D01*
X98796490Y-75445016D01*
X98748365Y-75454588D01*
X98699534Y-75459398D01*
X98675000Y-75459398D01*
X98675000Y-75460000D01*
X98175000Y-75460000D01*
X98175000Y-75459398D01*
X98150466Y-75459398D01*
X98101635Y-75454588D01*
X98053510Y-75445016D01*
X98006555Y-75430772D01*
X97961222Y-75411995D01*
X97917949Y-75388864D01*
X97877150Y-75361604D01*
X97839221Y-75330476D01*
X97804524Y-75295779D01*
X97773396Y-75257850D01*
X97746136Y-75217051D01*
X97723005Y-75173778D01*
X97704228Y-75128445D01*
X97689984Y-75081490D01*
X97680412Y-75033365D01*
X97675602Y-74984534D01*
X97675602Y-74960000D01*
X97675000Y-74960000D01*
X97675000Y-74460000D01*
X99175000Y-74460000D01*
G37*
G04 #@! TD.AperFunction*
G04 #@! TA.AperFunction,SMDPad,CuDef*
G36*
X105295602Y-73645000D02*
G01*
X105295602Y-73620466D01*
X105300412Y-73571635D01*
X105309984Y-73523510D01*
X105324228Y-73476555D01*
X105343005Y-73431222D01*
X105366136Y-73387949D01*
X105393396Y-73347150D01*
X105424524Y-73309221D01*
X105459221Y-73274524D01*
X105497150Y-73243396D01*
X105537949Y-73216136D01*
X105581222Y-73193005D01*
X105626555Y-73174228D01*
X105673510Y-73159984D01*
X105721635Y-73150412D01*
X105770466Y-73145602D01*
X105795000Y-73145602D01*
X105795000Y-73145000D01*
X106295000Y-73145000D01*
X106295000Y-73145602D01*
X106319534Y-73145602D01*
X106368365Y-73150412D01*
X106416490Y-73159984D01*
X106463445Y-73174228D01*
X106508778Y-73193005D01*
X106552051Y-73216136D01*
X106592850Y-73243396D01*
X106630779Y-73274524D01*
X106665476Y-73309221D01*
X106696604Y-73347150D01*
X106723864Y-73387949D01*
X106746995Y-73431222D01*
X106765772Y-73476555D01*
X106780016Y-73523510D01*
X106789588Y-73571635D01*
X106794398Y-73620466D01*
X106794398Y-73645000D01*
X106795000Y-73645000D01*
X106795000Y-74145000D01*
X105295000Y-74145000D01*
X105295000Y-73645000D01*
X105295602Y-73645000D01*
G37*
G04 #@! TD.AperFunction*
G04 #@! TA.AperFunction,SMDPad,CuDef*
G36*
X106795000Y-74445000D02*
G01*
X106795000Y-74945000D01*
X106794398Y-74945000D01*
X106794398Y-74969534D01*
X106789588Y-75018365D01*
X106780016Y-75066490D01*
X106765772Y-75113445D01*
X106746995Y-75158778D01*
X106723864Y-75202051D01*
X106696604Y-75242850D01*
X106665476Y-75280779D01*
X106630779Y-75315476D01*
X106592850Y-75346604D01*
X106552051Y-75373864D01*
X106508778Y-75396995D01*
X106463445Y-75415772D01*
X106416490Y-75430016D01*
X106368365Y-75439588D01*
X106319534Y-75444398D01*
X106295000Y-75444398D01*
X106295000Y-75445000D01*
X105795000Y-75445000D01*
X105795000Y-75444398D01*
X105770466Y-75444398D01*
X105721635Y-75439588D01*
X105673510Y-75430016D01*
X105626555Y-75415772D01*
X105581222Y-75396995D01*
X105537949Y-75373864D01*
X105497150Y-75346604D01*
X105459221Y-75315476D01*
X105424524Y-75280779D01*
X105393396Y-75242850D01*
X105366136Y-75202051D01*
X105343005Y-75158778D01*
X105324228Y-75113445D01*
X105309984Y-75066490D01*
X105300412Y-75018365D01*
X105295602Y-74969534D01*
X105295602Y-74945000D01*
X105295000Y-74945000D01*
X105295000Y-74445000D01*
X106795000Y-74445000D01*
G37*
G04 #@! TD.AperFunction*
G04 #@! TA.AperFunction,SMDPad,CuDef*
G36*
G01*
X97940000Y-71795000D02*
X97640000Y-71795000D01*
G75*
G02*
X97490000Y-71645000I0J150000D01*
G01*
X97490000Y-69445000D01*
G75*
G02*
X97640000Y-69295000I150000J0D01*
G01*
X97940000Y-69295000D01*
G75*
G02*
X98090000Y-69445000I0J-150000D01*
G01*
X98090000Y-71645000D01*
G75*
G02*
X97940000Y-71795000I-150000J0D01*
G01*
G37*
G04 #@! TD.AperFunction*
G04 #@! TA.AperFunction,SMDPad,CuDef*
G36*
G01*
X99210000Y-71795000D02*
X98910000Y-71795000D01*
G75*
G02*
X98760000Y-71645000I0J150000D01*
G01*
X98760000Y-69445000D01*
G75*
G02*
X98910000Y-69295000I150000J0D01*
G01*
X99210000Y-69295000D01*
G75*
G02*
X99360000Y-69445000I0J-150000D01*
G01*
X99360000Y-71645000D01*
G75*
G02*
X99210000Y-71795000I-150000J0D01*
G01*
G37*
G04 #@! TD.AperFunction*
G04 #@! TA.AperFunction,SMDPad,CuDef*
G36*
G01*
X100480000Y-71795000D02*
X100180000Y-71795000D01*
G75*
G02*
X100030000Y-71645000I0J150000D01*
G01*
X100030000Y-69445000D01*
G75*
G02*
X100180000Y-69295000I150000J0D01*
G01*
X100480000Y-69295000D01*
G75*
G02*
X100630000Y-69445000I0J-150000D01*
G01*
X100630000Y-71645000D01*
G75*
G02*
X100480000Y-71795000I-150000J0D01*
G01*
G37*
G04 #@! TD.AperFunction*
G04 #@! TA.AperFunction,SMDPad,CuDef*
G36*
G01*
X101750000Y-71795000D02*
X101450000Y-71795000D01*
G75*
G02*
X101300000Y-71645000I0J150000D01*
G01*
X101300000Y-69445000D01*
G75*
G02*
X101450000Y-69295000I150000J0D01*
G01*
X101750000Y-69295000D01*
G75*
G02*
X101900000Y-69445000I0J-150000D01*
G01*
X101900000Y-71645000D01*
G75*
G02*
X101750000Y-71795000I-150000J0D01*
G01*
G37*
G04 #@! TD.AperFunction*
G04 #@! TA.AperFunction,SMDPad,CuDef*
G36*
G01*
X103020000Y-71795000D02*
X102720000Y-71795000D01*
G75*
G02*
X102570000Y-71645000I0J150000D01*
G01*
X102570000Y-69445000D01*
G75*
G02*
X102720000Y-69295000I150000J0D01*
G01*
X103020000Y-69295000D01*
G75*
G02*
X103170000Y-69445000I0J-150000D01*
G01*
X103170000Y-71645000D01*
G75*
G02*
X103020000Y-71795000I-150000J0D01*
G01*
G37*
G04 #@! TD.AperFunction*
G04 #@! TA.AperFunction,SMDPad,CuDef*
G36*
G01*
X104290000Y-71795000D02*
X103990000Y-71795000D01*
G75*
G02*
X103840000Y-71645000I0J150000D01*
G01*
X103840000Y-69445000D01*
G75*
G02*
X103990000Y-69295000I150000J0D01*
G01*
X104290000Y-69295000D01*
G75*
G02*
X104440000Y-69445000I0J-150000D01*
G01*
X104440000Y-71645000D01*
G75*
G02*
X104290000Y-71795000I-150000J0D01*
G01*
G37*
G04 #@! TD.AperFunction*
G04 #@! TA.AperFunction,SMDPad,CuDef*
G36*
G01*
X105560000Y-71795000D02*
X105260000Y-71795000D01*
G75*
G02*
X105110000Y-71645000I0J150000D01*
G01*
X105110000Y-69445000D01*
G75*
G02*
X105260000Y-69295000I150000J0D01*
G01*
X105560000Y-69295000D01*
G75*
G02*
X105710000Y-69445000I0J-150000D01*
G01*
X105710000Y-71645000D01*
G75*
G02*
X105560000Y-71795000I-150000J0D01*
G01*
G37*
G04 #@! TD.AperFunction*
G04 #@! TA.AperFunction,SMDPad,CuDef*
G36*
G01*
X105560000Y-66595000D02*
X105260000Y-66595000D01*
G75*
G02*
X105110000Y-66445000I0J150000D01*
G01*
X105110000Y-64245000D01*
G75*
G02*
X105260000Y-64095000I150000J0D01*
G01*
X105560000Y-64095000D01*
G75*
G02*
X105710000Y-64245000I0J-150000D01*
G01*
X105710000Y-66445000D01*
G75*
G02*
X105560000Y-66595000I-150000J0D01*
G01*
G37*
G04 #@! TD.AperFunction*
G04 #@! TA.AperFunction,SMDPad,CuDef*
G36*
G01*
X104290000Y-66595000D02*
X103990000Y-66595000D01*
G75*
G02*
X103840000Y-66445000I0J150000D01*
G01*
X103840000Y-64245000D01*
G75*
G02*
X103990000Y-64095000I150000J0D01*
G01*
X104290000Y-64095000D01*
G75*
G02*
X104440000Y-64245000I0J-150000D01*
G01*
X104440000Y-66445000D01*
G75*
G02*
X104290000Y-66595000I-150000J0D01*
G01*
G37*
G04 #@! TD.AperFunction*
G04 #@! TA.AperFunction,SMDPad,CuDef*
G36*
G01*
X103020000Y-66595000D02*
X102720000Y-66595000D01*
G75*
G02*
X102570000Y-66445000I0J150000D01*
G01*
X102570000Y-64245000D01*
G75*
G02*
X102720000Y-64095000I150000J0D01*
G01*
X103020000Y-64095000D01*
G75*
G02*
X103170000Y-64245000I0J-150000D01*
G01*
X103170000Y-66445000D01*
G75*
G02*
X103020000Y-66595000I-150000J0D01*
G01*
G37*
G04 #@! TD.AperFunction*
G04 #@! TA.AperFunction,SMDPad,CuDef*
G36*
G01*
X101750000Y-66595000D02*
X101450000Y-66595000D01*
G75*
G02*
X101300000Y-66445000I0J150000D01*
G01*
X101300000Y-64245000D01*
G75*
G02*
X101450000Y-64095000I150000J0D01*
G01*
X101750000Y-64095000D01*
G75*
G02*
X101900000Y-64245000I0J-150000D01*
G01*
X101900000Y-66445000D01*
G75*
G02*
X101750000Y-66595000I-150000J0D01*
G01*
G37*
G04 #@! TD.AperFunction*
G04 #@! TA.AperFunction,SMDPad,CuDef*
G36*
G01*
X100480000Y-66595000D02*
X100180000Y-66595000D01*
G75*
G02*
X100030000Y-66445000I0J150000D01*
G01*
X100030000Y-64245000D01*
G75*
G02*
X100180000Y-64095000I150000J0D01*
G01*
X100480000Y-64095000D01*
G75*
G02*
X100630000Y-64245000I0J-150000D01*
G01*
X100630000Y-66445000D01*
G75*
G02*
X100480000Y-66595000I-150000J0D01*
G01*
G37*
G04 #@! TD.AperFunction*
G04 #@! TA.AperFunction,SMDPad,CuDef*
G36*
G01*
X99210000Y-66595000D02*
X98910000Y-66595000D01*
G75*
G02*
X98760000Y-66445000I0J150000D01*
G01*
X98760000Y-64245000D01*
G75*
G02*
X98910000Y-64095000I150000J0D01*
G01*
X99210000Y-64095000D01*
G75*
G02*
X99360000Y-64245000I0J-150000D01*
G01*
X99360000Y-66445000D01*
G75*
G02*
X99210000Y-66595000I-150000J0D01*
G01*
G37*
G04 #@! TD.AperFunction*
G04 #@! TA.AperFunction,SMDPad,CuDef*
G36*
G01*
X97940000Y-66595000D02*
X97640000Y-66595000D01*
G75*
G02*
X97490000Y-66445000I0J150000D01*
G01*
X97490000Y-64245000D01*
G75*
G02*
X97640000Y-64095000I150000J0D01*
G01*
X97940000Y-64095000D01*
G75*
G02*
X98090000Y-64245000I0J-150000D01*
G01*
X98090000Y-66445000D01*
G75*
G02*
X97940000Y-66595000I-150000J0D01*
G01*
G37*
G04 #@! TD.AperFunction*
G04 #@! TA.AperFunction,SMDPad,CuDef*
G36*
G01*
X90465000Y-69225000D02*
X90465000Y-70475000D01*
G75*
G02*
X90215000Y-70725000I-250000J0D01*
G01*
X89290000Y-70725000D01*
G75*
G02*
X89040000Y-70475000I0J250000D01*
G01*
X89040000Y-69225000D01*
G75*
G02*
X89290000Y-68975000I250000J0D01*
G01*
X90215000Y-68975000D01*
G75*
G02*
X90465000Y-69225000I0J-250000D01*
G01*
G37*
G04 #@! TD.AperFunction*
G04 #@! TA.AperFunction,SMDPad,CuDef*
G36*
G01*
X87490000Y-69225000D02*
X87490000Y-70475000D01*
G75*
G02*
X87240000Y-70725000I-250000J0D01*
G01*
X86315000Y-70725000D01*
G75*
G02*
X86065000Y-70475000I0J250000D01*
G01*
X86065000Y-69225000D01*
G75*
G02*
X86315000Y-68975000I250000J0D01*
G01*
X87240000Y-68975000D01*
G75*
G02*
X87490000Y-69225000I0J-250000D01*
G01*
G37*
G04 #@! TD.AperFunction*
G04 #@! TA.AperFunction,SMDPad,CuDef*
G36*
G01*
X87490000Y-64780000D02*
X87490000Y-66030000D01*
G75*
G02*
X87240000Y-66280000I-250000J0D01*
G01*
X86315000Y-66280000D01*
G75*
G02*
X86065000Y-66030000I0J250000D01*
G01*
X86065000Y-64780000D01*
G75*
G02*
X86315000Y-64530000I250000J0D01*
G01*
X87240000Y-64530000D01*
G75*
G02*
X87490000Y-64780000I0J-250000D01*
G01*
G37*
G04 #@! TD.AperFunction*
G04 #@! TA.AperFunction,SMDPad,CuDef*
G36*
G01*
X90465000Y-64780000D02*
X90465000Y-66030000D01*
G75*
G02*
X90215000Y-66280000I-250000J0D01*
G01*
X89290000Y-66280000D01*
G75*
G02*
X89040000Y-66030000I0J250000D01*
G01*
X89040000Y-64780000D01*
G75*
G02*
X89290000Y-64530000I250000J0D01*
G01*
X90215000Y-64530000D01*
G75*
G02*
X90465000Y-64780000I0J-250000D01*
G01*
G37*
G04 #@! TD.AperFunction*
G04 #@! TA.AperFunction,SMDPad,CuDef*
G36*
G01*
X87490000Y-59700000D02*
X87490000Y-60950000D01*
G75*
G02*
X87240000Y-61200000I-250000J0D01*
G01*
X86315000Y-61200000D01*
G75*
G02*
X86065000Y-60950000I0J250000D01*
G01*
X86065000Y-59700000D01*
G75*
G02*
X86315000Y-59450000I250000J0D01*
G01*
X87240000Y-59450000D01*
G75*
G02*
X87490000Y-59700000I0J-250000D01*
G01*
G37*
G04 #@! TD.AperFunction*
G04 #@! TA.AperFunction,SMDPad,CuDef*
G36*
G01*
X90465000Y-59700000D02*
X90465000Y-60950000D01*
G75*
G02*
X90215000Y-61200000I-250000J0D01*
G01*
X89290000Y-61200000D01*
G75*
G02*
X89040000Y-60950000I0J250000D01*
G01*
X89040000Y-59700000D01*
G75*
G02*
X89290000Y-59450000I250000J0D01*
G01*
X90215000Y-59450000D01*
G75*
G02*
X90465000Y-59700000I0J-250000D01*
G01*
G37*
G04 #@! TD.AperFunction*
G04 #@! TA.AperFunction,SMDPad,CuDef*
G36*
G01*
X90465000Y-62240000D02*
X90465000Y-63490000D01*
G75*
G02*
X90215000Y-63740000I-250000J0D01*
G01*
X89290000Y-63740000D01*
G75*
G02*
X89040000Y-63490000I0J250000D01*
G01*
X89040000Y-62240000D01*
G75*
G02*
X89290000Y-61990000I250000J0D01*
G01*
X90215000Y-61990000D01*
G75*
G02*
X90465000Y-62240000I0J-250000D01*
G01*
G37*
G04 #@! TD.AperFunction*
G04 #@! TA.AperFunction,SMDPad,CuDef*
G36*
G01*
X87490000Y-62240000D02*
X87490000Y-63490000D01*
G75*
G02*
X87240000Y-63740000I-250000J0D01*
G01*
X86315000Y-63740000D01*
G75*
G02*
X86065000Y-63490000I0J250000D01*
G01*
X86065000Y-62240000D01*
G75*
G02*
X86315000Y-61990000I250000J0D01*
G01*
X87240000Y-61990000D01*
G75*
G02*
X87490000Y-62240000I0J-250000D01*
G01*
G37*
G04 #@! TD.AperFunction*
G04 #@! TA.AperFunction,SMDPad,CuDef*
G36*
G01*
X84200000Y-97375000D02*
X84200000Y-98625000D01*
G75*
G02*
X83950000Y-98875000I-250000J0D01*
G01*
X83025000Y-98875000D01*
G75*
G02*
X82775000Y-98625000I0J250000D01*
G01*
X82775000Y-97375000D01*
G75*
G02*
X83025000Y-97125000I250000J0D01*
G01*
X83950000Y-97125000D01*
G75*
G02*
X84200000Y-97375000I0J-250000D01*
G01*
G37*
G04 #@! TD.AperFunction*
G04 #@! TA.AperFunction,SMDPad,CuDef*
G36*
G01*
X81225000Y-97375000D02*
X81225000Y-98625000D01*
G75*
G02*
X80975000Y-98875000I-250000J0D01*
G01*
X80050000Y-98875000D01*
G75*
G02*
X79800000Y-98625000I0J250000D01*
G01*
X79800000Y-97375000D01*
G75*
G02*
X80050000Y-97125000I250000J0D01*
G01*
X80975000Y-97125000D01*
G75*
G02*
X81225000Y-97375000I0J-250000D01*
G01*
G37*
G04 #@! TD.AperFunction*
G04 #@! TA.AperFunction,SMDPad,CuDef*
G36*
G01*
X73385000Y-65555000D02*
X73385000Y-65255000D01*
G75*
G02*
X73535000Y-65105000I150000J0D01*
G01*
X75185000Y-65105000D01*
G75*
G02*
X75335000Y-65255000I0J-150000D01*
G01*
X75335000Y-65555000D01*
G75*
G02*
X75185000Y-65705000I-150000J0D01*
G01*
X73535000Y-65705000D01*
G75*
G02*
X73385000Y-65555000I0J150000D01*
G01*
G37*
G04 #@! TD.AperFunction*
G04 #@! TA.AperFunction,SMDPad,CuDef*
G36*
G01*
X73385000Y-66825000D02*
X73385000Y-66525000D01*
G75*
G02*
X73535000Y-66375000I150000J0D01*
G01*
X75185000Y-66375000D01*
G75*
G02*
X75335000Y-66525000I0J-150000D01*
G01*
X75335000Y-66825000D01*
G75*
G02*
X75185000Y-66975000I-150000J0D01*
G01*
X73535000Y-66975000D01*
G75*
G02*
X73385000Y-66825000I0J150000D01*
G01*
G37*
G04 #@! TD.AperFunction*
G04 #@! TA.AperFunction,SMDPad,CuDef*
G36*
G01*
X73385000Y-68095000D02*
X73385000Y-67795000D01*
G75*
G02*
X73535000Y-67645000I150000J0D01*
G01*
X75185000Y-67645000D01*
G75*
G02*
X75335000Y-67795000I0J-150000D01*
G01*
X75335000Y-68095000D01*
G75*
G02*
X75185000Y-68245000I-150000J0D01*
G01*
X73535000Y-68245000D01*
G75*
G02*
X73385000Y-68095000I0J150000D01*
G01*
G37*
G04 #@! TD.AperFunction*
G04 #@! TA.AperFunction,SMDPad,CuDef*
G36*
G01*
X73385000Y-69365000D02*
X73385000Y-69065000D01*
G75*
G02*
X73535000Y-68915000I150000J0D01*
G01*
X75185000Y-68915000D01*
G75*
G02*
X75335000Y-69065000I0J-150000D01*
G01*
X75335000Y-69365000D01*
G75*
G02*
X75185000Y-69515000I-150000J0D01*
G01*
X73535000Y-69515000D01*
G75*
G02*
X73385000Y-69365000I0J150000D01*
G01*
G37*
G04 #@! TD.AperFunction*
G04 #@! TA.AperFunction,SMDPad,CuDef*
G36*
G01*
X73385000Y-70635000D02*
X73385000Y-70335000D01*
G75*
G02*
X73535000Y-70185000I150000J0D01*
G01*
X75185000Y-70185000D01*
G75*
G02*
X75335000Y-70335000I0J-150000D01*
G01*
X75335000Y-70635000D01*
G75*
G02*
X75185000Y-70785000I-150000J0D01*
G01*
X73535000Y-70785000D01*
G75*
G02*
X73385000Y-70635000I0J150000D01*
G01*
G37*
G04 #@! TD.AperFunction*
G04 #@! TA.AperFunction,SMDPad,CuDef*
G36*
G01*
X73385000Y-71905000D02*
X73385000Y-71605000D01*
G75*
G02*
X73535000Y-71455000I150000J0D01*
G01*
X75185000Y-71455000D01*
G75*
G02*
X75335000Y-71605000I0J-150000D01*
G01*
X75335000Y-71905000D01*
G75*
G02*
X75185000Y-72055000I-150000J0D01*
G01*
X73535000Y-72055000D01*
G75*
G02*
X73385000Y-71905000I0J150000D01*
G01*
G37*
G04 #@! TD.AperFunction*
G04 #@! TA.AperFunction,SMDPad,CuDef*
G36*
G01*
X73385000Y-73175000D02*
X73385000Y-72875000D01*
G75*
G02*
X73535000Y-72725000I150000J0D01*
G01*
X75185000Y-72725000D01*
G75*
G02*
X75335000Y-72875000I0J-150000D01*
G01*
X75335000Y-73175000D01*
G75*
G02*
X75185000Y-73325000I-150000J0D01*
G01*
X73535000Y-73325000D01*
G75*
G02*
X73385000Y-73175000I0J150000D01*
G01*
G37*
G04 #@! TD.AperFunction*
G04 #@! TA.AperFunction,SMDPad,CuDef*
G36*
G01*
X73385000Y-74445000D02*
X73385000Y-74145000D01*
G75*
G02*
X73535000Y-73995000I150000J0D01*
G01*
X75185000Y-73995000D01*
G75*
G02*
X75335000Y-74145000I0J-150000D01*
G01*
X75335000Y-74445000D01*
G75*
G02*
X75185000Y-74595000I-150000J0D01*
G01*
X73535000Y-74595000D01*
G75*
G02*
X73385000Y-74445000I0J150000D01*
G01*
G37*
G04 #@! TD.AperFunction*
G04 #@! TA.AperFunction,SMDPad,CuDef*
G36*
G01*
X78335000Y-74445000D02*
X78335000Y-74145000D01*
G75*
G02*
X78485000Y-73995000I150000J0D01*
G01*
X80135000Y-73995000D01*
G75*
G02*
X80285000Y-74145000I0J-150000D01*
G01*
X80285000Y-74445000D01*
G75*
G02*
X80135000Y-74595000I-150000J0D01*
G01*
X78485000Y-74595000D01*
G75*
G02*
X78335000Y-74445000I0J150000D01*
G01*
G37*
G04 #@! TD.AperFunction*
G04 #@! TA.AperFunction,SMDPad,CuDef*
G36*
G01*
X78335000Y-73175000D02*
X78335000Y-72875000D01*
G75*
G02*
X78485000Y-72725000I150000J0D01*
G01*
X80135000Y-72725000D01*
G75*
G02*
X80285000Y-72875000I0J-150000D01*
G01*
X80285000Y-73175000D01*
G75*
G02*
X80135000Y-73325000I-150000J0D01*
G01*
X78485000Y-73325000D01*
G75*
G02*
X78335000Y-73175000I0J150000D01*
G01*
G37*
G04 #@! TD.AperFunction*
G04 #@! TA.AperFunction,SMDPad,CuDef*
G36*
G01*
X78335000Y-71905000D02*
X78335000Y-71605000D01*
G75*
G02*
X78485000Y-71455000I150000J0D01*
G01*
X80135000Y-71455000D01*
G75*
G02*
X80285000Y-71605000I0J-150000D01*
G01*
X80285000Y-71905000D01*
G75*
G02*
X80135000Y-72055000I-150000J0D01*
G01*
X78485000Y-72055000D01*
G75*
G02*
X78335000Y-71905000I0J150000D01*
G01*
G37*
G04 #@! TD.AperFunction*
G04 #@! TA.AperFunction,SMDPad,CuDef*
G36*
G01*
X78335000Y-70635000D02*
X78335000Y-70335000D01*
G75*
G02*
X78485000Y-70185000I150000J0D01*
G01*
X80135000Y-70185000D01*
G75*
G02*
X80285000Y-70335000I0J-150000D01*
G01*
X80285000Y-70635000D01*
G75*
G02*
X80135000Y-70785000I-150000J0D01*
G01*
X78485000Y-70785000D01*
G75*
G02*
X78335000Y-70635000I0J150000D01*
G01*
G37*
G04 #@! TD.AperFunction*
G04 #@! TA.AperFunction,SMDPad,CuDef*
G36*
G01*
X78335000Y-69365000D02*
X78335000Y-69065000D01*
G75*
G02*
X78485000Y-68915000I150000J0D01*
G01*
X80135000Y-68915000D01*
G75*
G02*
X80285000Y-69065000I0J-150000D01*
G01*
X80285000Y-69365000D01*
G75*
G02*
X80135000Y-69515000I-150000J0D01*
G01*
X78485000Y-69515000D01*
G75*
G02*
X78335000Y-69365000I0J150000D01*
G01*
G37*
G04 #@! TD.AperFunction*
G04 #@! TA.AperFunction,SMDPad,CuDef*
G36*
G01*
X78335000Y-68095000D02*
X78335000Y-67795000D01*
G75*
G02*
X78485000Y-67645000I150000J0D01*
G01*
X80135000Y-67645000D01*
G75*
G02*
X80285000Y-67795000I0J-150000D01*
G01*
X80285000Y-68095000D01*
G75*
G02*
X80135000Y-68245000I-150000J0D01*
G01*
X78485000Y-68245000D01*
G75*
G02*
X78335000Y-68095000I0J150000D01*
G01*
G37*
G04 #@! TD.AperFunction*
G04 #@! TA.AperFunction,SMDPad,CuDef*
G36*
G01*
X78335000Y-66825000D02*
X78335000Y-66525000D01*
G75*
G02*
X78485000Y-66375000I150000J0D01*
G01*
X80135000Y-66375000D01*
G75*
G02*
X80285000Y-66525000I0J-150000D01*
G01*
X80285000Y-66825000D01*
G75*
G02*
X80135000Y-66975000I-150000J0D01*
G01*
X78485000Y-66975000D01*
G75*
G02*
X78335000Y-66825000I0J150000D01*
G01*
G37*
G04 #@! TD.AperFunction*
G04 #@! TA.AperFunction,SMDPad,CuDef*
G36*
G01*
X78335000Y-65555000D02*
X78335000Y-65255000D01*
G75*
G02*
X78485000Y-65105000I150000J0D01*
G01*
X80135000Y-65105000D01*
G75*
G02*
X80285000Y-65255000I0J-150000D01*
G01*
X80285000Y-65555000D01*
G75*
G02*
X80135000Y-65705000I-150000J0D01*
G01*
X78485000Y-65705000D01*
G75*
G02*
X78335000Y-65555000I0J150000D01*
G01*
G37*
G04 #@! TD.AperFunction*
D14*
X60960000Y-79375000D03*
D15*
X60960000Y-81915000D03*
X60960000Y-84455000D03*
D25*
X38945000Y-75345000D03*
X38945000Y-74695000D03*
X38945000Y-74045000D03*
X38945000Y-73395000D03*
X38945000Y-72745000D03*
X38945000Y-72095000D03*
X38945000Y-71445000D03*
X38945000Y-70795000D03*
X38945000Y-70145000D03*
X38945000Y-69495000D03*
X38945000Y-68845000D03*
X38945000Y-68195000D03*
X38945000Y-67545000D03*
X38945000Y-66895000D03*
X46145000Y-66895000D03*
X46145000Y-67545000D03*
X46145000Y-68195000D03*
X46145000Y-68845000D03*
X46145000Y-69495000D03*
X46145000Y-70145000D03*
X46145000Y-70795000D03*
X46145000Y-71445000D03*
X46145000Y-72095000D03*
X46145000Y-72745000D03*
X46145000Y-73395000D03*
X46145000Y-74045000D03*
X46145000Y-74695000D03*
X46145000Y-75345000D03*
G04 #@! TA.AperFunction,SMDPad,CuDef*
G36*
G01*
X95875000Y-68875000D02*
X94625000Y-68875000D01*
G75*
G02*
X94375000Y-68625000I0J250000D01*
G01*
X94375000Y-67700000D01*
G75*
G02*
X94625000Y-67450000I250000J0D01*
G01*
X95875000Y-67450000D01*
G75*
G02*
X96125000Y-67700000I0J-250000D01*
G01*
X96125000Y-68625000D01*
G75*
G02*
X95875000Y-68875000I-250000J0D01*
G01*
G37*
G04 #@! TD.AperFunction*
G04 #@! TA.AperFunction,SMDPad,CuDef*
G36*
G01*
X95875000Y-65900000D02*
X94625000Y-65900000D01*
G75*
G02*
X94375000Y-65650000I0J250000D01*
G01*
X94375000Y-64725000D01*
G75*
G02*
X94625000Y-64475000I250000J0D01*
G01*
X95875000Y-64475000D01*
G75*
G02*
X96125000Y-64725000I0J-250000D01*
G01*
X96125000Y-65650000D01*
G75*
G02*
X95875000Y-65900000I-250000J0D01*
G01*
G37*
G04 #@! TD.AperFunction*
G04 #@! TA.AperFunction,SMDPad,CuDef*
G36*
G01*
X87490000Y-71765000D02*
X87490000Y-73015000D01*
G75*
G02*
X87240000Y-73265000I-250000J0D01*
G01*
X86315000Y-73265000D01*
G75*
G02*
X86065000Y-73015000I0J250000D01*
G01*
X86065000Y-71765000D01*
G75*
G02*
X86315000Y-71515000I250000J0D01*
G01*
X87240000Y-71515000D01*
G75*
G02*
X87490000Y-71765000I0J-250000D01*
G01*
G37*
G04 #@! TD.AperFunction*
G04 #@! TA.AperFunction,SMDPad,CuDef*
G36*
G01*
X90465000Y-71765000D02*
X90465000Y-73015000D01*
G75*
G02*
X90215000Y-73265000I-250000J0D01*
G01*
X89290000Y-73265000D01*
G75*
G02*
X89040000Y-73015000I0J250000D01*
G01*
X89040000Y-71765000D01*
G75*
G02*
X89290000Y-71515000I250000J0D01*
G01*
X90215000Y-71515000D01*
G75*
G02*
X90465000Y-71765000I0J-250000D01*
G01*
G37*
G04 #@! TD.AperFunction*
G04 #@! TA.AperFunction,SMDPad,CuDef*
D20*
G36*
X102985000Y-74445000D02*
G01*
X102985000Y-74945000D01*
X102984398Y-74945000D01*
X102984398Y-74969534D01*
X102979588Y-75018365D01*
X102970016Y-75066490D01*
X102955772Y-75113445D01*
X102936995Y-75158778D01*
X102913864Y-75202051D01*
X102886604Y-75242850D01*
X102855476Y-75280779D01*
X102820779Y-75315476D01*
X102782850Y-75346604D01*
X102742051Y-75373864D01*
X102698778Y-75396995D01*
X102653445Y-75415772D01*
X102606490Y-75430016D01*
X102558365Y-75439588D01*
X102509534Y-75444398D01*
X102485000Y-75444398D01*
X102485000Y-75445000D01*
X101985000Y-75445000D01*
X101985000Y-75444398D01*
X101960466Y-75444398D01*
X101911635Y-75439588D01*
X101863510Y-75430016D01*
X101816555Y-75415772D01*
X101771222Y-75396995D01*
X101727949Y-75373864D01*
X101687150Y-75346604D01*
X101649221Y-75315476D01*
X101614524Y-75280779D01*
X101583396Y-75242850D01*
X101556136Y-75202051D01*
X101533005Y-75158778D01*
X101514228Y-75113445D01*
X101499984Y-75066490D01*
X101490412Y-75018365D01*
X101485602Y-74969534D01*
X101485602Y-74945000D01*
X101485000Y-74945000D01*
X101485000Y-74445000D01*
X102985000Y-74445000D01*
G37*
G04 #@! TD.AperFunction*
G04 #@! TA.AperFunction,SMDPad,CuDef*
G36*
X101485602Y-73645000D02*
G01*
X101485602Y-73620466D01*
X101490412Y-73571635D01*
X101499984Y-73523510D01*
X101514228Y-73476555D01*
X101533005Y-73431222D01*
X101556136Y-73387949D01*
X101583396Y-73347150D01*
X101614524Y-73309221D01*
X101649221Y-73274524D01*
X101687150Y-73243396D01*
X101727949Y-73216136D01*
X101771222Y-73193005D01*
X101816555Y-73174228D01*
X101863510Y-73159984D01*
X101911635Y-73150412D01*
X101960466Y-73145602D01*
X101985000Y-73145602D01*
X101985000Y-73145000D01*
X102485000Y-73145000D01*
X102485000Y-73145602D01*
X102509534Y-73145602D01*
X102558365Y-73150412D01*
X102606490Y-73159984D01*
X102653445Y-73174228D01*
X102698778Y-73193005D01*
X102742051Y-73216136D01*
X102782850Y-73243396D01*
X102820779Y-73274524D01*
X102855476Y-73309221D01*
X102886604Y-73347150D01*
X102913864Y-73387949D01*
X102936995Y-73431222D01*
X102955772Y-73476555D01*
X102970016Y-73523510D01*
X102979588Y-73571635D01*
X102984398Y-73620466D01*
X102984398Y-73645000D01*
X102985000Y-73645000D01*
X102985000Y-74145000D01*
X101485000Y-74145000D01*
X101485000Y-73645000D01*
X101485602Y-73645000D01*
G37*
G04 #@! TD.AperFunction*
G04 #@! TA.AperFunction,SMDPad,CuDef*
G36*
G01*
X90465000Y-74305000D02*
X90465000Y-75555000D01*
G75*
G02*
X90215000Y-75805000I-250000J0D01*
G01*
X89290000Y-75805000D01*
G75*
G02*
X89040000Y-75555000I0J250000D01*
G01*
X89040000Y-74305000D01*
G75*
G02*
X89290000Y-74055000I250000J0D01*
G01*
X90215000Y-74055000D01*
G75*
G02*
X90465000Y-74305000I0J-250000D01*
G01*
G37*
G04 #@! TD.AperFunction*
G04 #@! TA.AperFunction,SMDPad,CuDef*
G36*
G01*
X87490000Y-74305000D02*
X87490000Y-75555000D01*
G75*
G02*
X87240000Y-75805000I-250000J0D01*
G01*
X86315000Y-75805000D01*
G75*
G02*
X86065000Y-75555000I0J250000D01*
G01*
X86065000Y-74305000D01*
G75*
G02*
X86315000Y-74055000I250000J0D01*
G01*
X87240000Y-74055000D01*
G75*
G02*
X87490000Y-74305000I0J-250000D01*
G01*
G37*
G04 #@! TD.AperFunction*
D26*
X97480000Y-51035000D03*
X97480000Y-51685000D03*
X97480000Y-52335000D03*
X97480000Y-52985000D03*
X97480000Y-53635000D03*
X97480000Y-54285000D03*
X97480000Y-54935000D03*
X97480000Y-55585000D03*
X97480000Y-56235000D03*
X97480000Y-56885000D03*
X97480000Y-57535000D03*
X97480000Y-58185000D03*
X103180000Y-58185000D03*
X103180000Y-57535000D03*
X103180000Y-56885000D03*
X103180000Y-56235000D03*
X103180000Y-55585000D03*
X103180000Y-54935000D03*
X103180000Y-54285000D03*
X103180000Y-53635000D03*
X103180000Y-52985000D03*
X103180000Y-52335000D03*
X103180000Y-51685000D03*
X103180000Y-51035000D03*
G04 #@! TA.AperFunction,SMDPad,CuDef*
G36*
G01*
X76845000Y-54750000D02*
X78095000Y-54750000D01*
G75*
G02*
X78345000Y-55000000I0J-250000D01*
G01*
X78345000Y-55925000D01*
G75*
G02*
X78095000Y-56175000I-250000J0D01*
G01*
X76845000Y-56175000D01*
G75*
G02*
X76595000Y-55925000I0J250000D01*
G01*
X76595000Y-55000000D01*
G75*
G02*
X76845000Y-54750000I250000J0D01*
G01*
G37*
G04 #@! TD.AperFunction*
G04 #@! TA.AperFunction,SMDPad,CuDef*
G36*
G01*
X76845000Y-51775000D02*
X78095000Y-51775000D01*
G75*
G02*
X78345000Y-52025000I0J-250000D01*
G01*
X78345000Y-52950000D01*
G75*
G02*
X78095000Y-53200000I-250000J0D01*
G01*
X76845000Y-53200000D01*
G75*
G02*
X76595000Y-52950000I0J250000D01*
G01*
X76595000Y-52025000D01*
G75*
G02*
X76845000Y-51775000I250000J0D01*
G01*
G37*
G04 #@! TD.AperFunction*
G04 #@! TA.AperFunction,SMDPad,CuDef*
G36*
G01*
X79385000Y-51775000D02*
X80635000Y-51775000D01*
G75*
G02*
X80885000Y-52025000I0J-250000D01*
G01*
X80885000Y-52950000D01*
G75*
G02*
X80635000Y-53200000I-250000J0D01*
G01*
X79385000Y-53200000D01*
G75*
G02*
X79135000Y-52950000I0J250000D01*
G01*
X79135000Y-52025000D01*
G75*
G02*
X79385000Y-51775000I250000J0D01*
G01*
G37*
G04 #@! TD.AperFunction*
G04 #@! TA.AperFunction,SMDPad,CuDef*
G36*
G01*
X79385000Y-54750000D02*
X80635000Y-54750000D01*
G75*
G02*
X80885000Y-55000000I0J-250000D01*
G01*
X80885000Y-55925000D01*
G75*
G02*
X80635000Y-56175000I-250000J0D01*
G01*
X79385000Y-56175000D01*
G75*
G02*
X79135000Y-55925000I0J250000D01*
G01*
X79135000Y-55000000D01*
G75*
G02*
X79385000Y-54750000I250000J0D01*
G01*
G37*
G04 #@! TD.AperFunction*
G04 #@! TA.AperFunction,SMDPad,CuDef*
G36*
G01*
X81925000Y-54750000D02*
X83175000Y-54750000D01*
G75*
G02*
X83425000Y-55000000I0J-250000D01*
G01*
X83425000Y-55925000D01*
G75*
G02*
X83175000Y-56175000I-250000J0D01*
G01*
X81925000Y-56175000D01*
G75*
G02*
X81675000Y-55925000I0J250000D01*
G01*
X81675000Y-55000000D01*
G75*
G02*
X81925000Y-54750000I250000J0D01*
G01*
G37*
G04 #@! TD.AperFunction*
G04 #@! TA.AperFunction,SMDPad,CuDef*
G36*
G01*
X81925000Y-51775000D02*
X83175000Y-51775000D01*
G75*
G02*
X83425000Y-52025000I0J-250000D01*
G01*
X83425000Y-52950000D01*
G75*
G02*
X83175000Y-53200000I-250000J0D01*
G01*
X81925000Y-53200000D01*
G75*
G02*
X81675000Y-52950000I0J250000D01*
G01*
X81675000Y-52025000D01*
G75*
G02*
X81925000Y-51775000I250000J0D01*
G01*
G37*
G04 #@! TD.AperFunction*
D27*
X118135000Y-116265000D03*
D28*
X111835000Y-118545000D03*
X111835000Y-113985000D03*
G04 #@! TA.AperFunction,SMDPad,CuDef*
G36*
G01*
X106270000Y-117410000D02*
X106270000Y-118660000D01*
G75*
G02*
X106020000Y-118910000I-250000J0D01*
G01*
X105095000Y-118910000D01*
G75*
G02*
X104845000Y-118660000I0J250000D01*
G01*
X104845000Y-117410000D01*
G75*
G02*
X105095000Y-117160000I250000J0D01*
G01*
X106020000Y-117160000D01*
G75*
G02*
X106270000Y-117410000I0J-250000D01*
G01*
G37*
G04 #@! TD.AperFunction*
G04 #@! TA.AperFunction,SMDPad,CuDef*
G36*
G01*
X109245000Y-117410000D02*
X109245000Y-118660000D01*
G75*
G02*
X108995000Y-118910000I-250000J0D01*
G01*
X108070000Y-118910000D01*
G75*
G02*
X107820000Y-118660000I0J250000D01*
G01*
X107820000Y-117410000D01*
G75*
G02*
X108070000Y-117160000I250000J0D01*
G01*
X108995000Y-117160000D01*
G75*
G02*
X109245000Y-117410000I0J-250000D01*
G01*
G37*
G04 #@! TD.AperFunction*
G04 #@! TA.AperFunction,SMDPad,CuDef*
G36*
G01*
X104845000Y-114850000D02*
X104845000Y-113600000D01*
G75*
G02*
X105095000Y-113350000I250000J0D01*
G01*
X106020000Y-113350000D01*
G75*
G02*
X106270000Y-113600000I0J-250000D01*
G01*
X106270000Y-114850000D01*
G75*
G02*
X106020000Y-115100000I-250000J0D01*
G01*
X105095000Y-115100000D01*
G75*
G02*
X104845000Y-114850000I0J250000D01*
G01*
G37*
G04 #@! TD.AperFunction*
G04 #@! TA.AperFunction,SMDPad,CuDef*
G36*
G01*
X107820000Y-114850000D02*
X107820000Y-113600000D01*
G75*
G02*
X108070000Y-113350000I250000J0D01*
G01*
X108995000Y-113350000D01*
G75*
G02*
X109245000Y-113600000I0J-250000D01*
G01*
X109245000Y-114850000D01*
G75*
G02*
X108995000Y-115100000I-250000J0D01*
G01*
X108070000Y-115100000D01*
G75*
G02*
X107820000Y-114850000I0J250000D01*
G01*
G37*
G04 #@! TD.AperFunction*
G04 #@! TA.AperFunction,SMDPad,CuDef*
G36*
G01*
X48905000Y-59830000D02*
X50155000Y-59830000D01*
G75*
G02*
X50405000Y-60080000I0J-250000D01*
G01*
X50405000Y-61005000D01*
G75*
G02*
X50155000Y-61255000I-250000J0D01*
G01*
X48905000Y-61255000D01*
G75*
G02*
X48655000Y-61005000I0J250000D01*
G01*
X48655000Y-60080000D01*
G75*
G02*
X48905000Y-59830000I250000J0D01*
G01*
G37*
G04 #@! TD.AperFunction*
G04 #@! TA.AperFunction,SMDPad,CuDef*
G36*
G01*
X48905000Y-56855000D02*
X50155000Y-56855000D01*
G75*
G02*
X50405000Y-57105000I0J-250000D01*
G01*
X50405000Y-58030000D01*
G75*
G02*
X50155000Y-58280000I-250000J0D01*
G01*
X48905000Y-58280000D01*
G75*
G02*
X48655000Y-58030000I0J250000D01*
G01*
X48655000Y-57105000D01*
G75*
G02*
X48905000Y-56855000I250000J0D01*
G01*
G37*
G04 #@! TD.AperFunction*
G04 #@! TA.AperFunction,SMDPad,CuDef*
G36*
G01*
X67170000Y-70495000D02*
X67170000Y-71745000D01*
G75*
G02*
X66920000Y-71995000I-250000J0D01*
G01*
X65995000Y-71995000D01*
G75*
G02*
X65745000Y-71745000I0J250000D01*
G01*
X65745000Y-70495000D01*
G75*
G02*
X65995000Y-70245000I250000J0D01*
G01*
X66920000Y-70245000D01*
G75*
G02*
X67170000Y-70495000I0J-250000D01*
G01*
G37*
G04 #@! TD.AperFunction*
G04 #@! TA.AperFunction,SMDPad,CuDef*
G36*
G01*
X70145000Y-70495000D02*
X70145000Y-71745000D01*
G75*
G02*
X69895000Y-71995000I-250000J0D01*
G01*
X68970000Y-71995000D01*
G75*
G02*
X68720000Y-71745000I0J250000D01*
G01*
X68720000Y-70495000D01*
G75*
G02*
X68970000Y-70245000I250000J0D01*
G01*
X69895000Y-70245000D01*
G75*
G02*
X70145000Y-70495000I0J-250000D01*
G01*
G37*
G04 #@! TD.AperFunction*
G04 #@! TA.AperFunction,SMDPad,CuDef*
G36*
G01*
X67170000Y-65415000D02*
X67170000Y-66665000D01*
G75*
G02*
X66920000Y-66915000I-250000J0D01*
G01*
X65995000Y-66915000D01*
G75*
G02*
X65745000Y-66665000I0J250000D01*
G01*
X65745000Y-65415000D01*
G75*
G02*
X65995000Y-65165000I250000J0D01*
G01*
X66920000Y-65165000D01*
G75*
G02*
X67170000Y-65415000I0J-250000D01*
G01*
G37*
G04 #@! TD.AperFunction*
G04 #@! TA.AperFunction,SMDPad,CuDef*
G36*
G01*
X70145000Y-65415000D02*
X70145000Y-66665000D01*
G75*
G02*
X69895000Y-66915000I-250000J0D01*
G01*
X68970000Y-66915000D01*
G75*
G02*
X68720000Y-66665000I0J250000D01*
G01*
X68720000Y-65415000D01*
G75*
G02*
X68970000Y-65165000I250000J0D01*
G01*
X69895000Y-65165000D01*
G75*
G02*
X70145000Y-65415000I0J-250000D01*
G01*
G37*
G04 #@! TD.AperFunction*
G04 #@! TA.AperFunction,SMDPad,CuDef*
G36*
G01*
X70145000Y-67955000D02*
X70145000Y-69205000D01*
G75*
G02*
X69895000Y-69455000I-250000J0D01*
G01*
X68970000Y-69455000D01*
G75*
G02*
X68720000Y-69205000I0J250000D01*
G01*
X68720000Y-67955000D01*
G75*
G02*
X68970000Y-67705000I250000J0D01*
G01*
X69895000Y-67705000D01*
G75*
G02*
X70145000Y-67955000I0J-250000D01*
G01*
G37*
G04 #@! TD.AperFunction*
G04 #@! TA.AperFunction,SMDPad,CuDef*
G36*
G01*
X67170000Y-67955000D02*
X67170000Y-69205000D01*
G75*
G02*
X66920000Y-69455000I-250000J0D01*
G01*
X65995000Y-69455000D01*
G75*
G02*
X65745000Y-69205000I0J250000D01*
G01*
X65745000Y-67955000D01*
G75*
G02*
X65995000Y-67705000I250000J0D01*
G01*
X66920000Y-67705000D01*
G75*
G02*
X67170000Y-67955000I0J-250000D01*
G01*
G37*
G04 #@! TD.AperFunction*
G04 #@! TA.AperFunction,SMDPad,CuDef*
G36*
G01*
X70145000Y-62875000D02*
X70145000Y-64125000D01*
G75*
G02*
X69895000Y-64375000I-250000J0D01*
G01*
X68970000Y-64375000D01*
G75*
G02*
X68720000Y-64125000I0J250000D01*
G01*
X68720000Y-62875000D01*
G75*
G02*
X68970000Y-62625000I250000J0D01*
G01*
X69895000Y-62625000D01*
G75*
G02*
X70145000Y-62875000I0J-250000D01*
G01*
G37*
G04 #@! TD.AperFunction*
G04 #@! TA.AperFunction,SMDPad,CuDef*
G36*
G01*
X67170000Y-62875000D02*
X67170000Y-64125000D01*
G75*
G02*
X66920000Y-64375000I-250000J0D01*
G01*
X65995000Y-64375000D01*
G75*
G02*
X65745000Y-64125000I0J250000D01*
G01*
X65745000Y-62875000D01*
G75*
G02*
X65995000Y-62625000I250000J0D01*
G01*
X66920000Y-62625000D01*
G75*
G02*
X67170000Y-62875000I0J-250000D01*
G01*
G37*
G04 #@! TD.AperFunction*
G04 #@! TA.AperFunction,SMDPad,CuDef*
G36*
G01*
X67170000Y-60335000D02*
X67170000Y-61585000D01*
G75*
G02*
X66920000Y-61835000I-250000J0D01*
G01*
X65995000Y-61835000D01*
G75*
G02*
X65745000Y-61585000I0J250000D01*
G01*
X65745000Y-60335000D01*
G75*
G02*
X65995000Y-60085000I250000J0D01*
G01*
X66920000Y-60085000D01*
G75*
G02*
X67170000Y-60335000I0J-250000D01*
G01*
G37*
G04 #@! TD.AperFunction*
G04 #@! TA.AperFunction,SMDPad,CuDef*
G36*
G01*
X70145000Y-60335000D02*
X70145000Y-61585000D01*
G75*
G02*
X69895000Y-61835000I-250000J0D01*
G01*
X68970000Y-61835000D01*
G75*
G02*
X68720000Y-61585000I0J250000D01*
G01*
X68720000Y-60335000D01*
G75*
G02*
X68970000Y-60085000I250000J0D01*
G01*
X69895000Y-60085000D01*
G75*
G02*
X70145000Y-60335000I0J-250000D01*
G01*
G37*
G04 #@! TD.AperFunction*
G04 #@! TA.AperFunction,SMDPad,CuDef*
G36*
G01*
X70145000Y-73035000D02*
X70145000Y-74285000D01*
G75*
G02*
X69895000Y-74535000I-250000J0D01*
G01*
X68970000Y-74535000D01*
G75*
G02*
X68720000Y-74285000I0J250000D01*
G01*
X68720000Y-73035000D01*
G75*
G02*
X68970000Y-72785000I250000J0D01*
G01*
X69895000Y-72785000D01*
G75*
G02*
X70145000Y-73035000I0J-250000D01*
G01*
G37*
G04 #@! TD.AperFunction*
G04 #@! TA.AperFunction,SMDPad,CuDef*
G36*
G01*
X67170000Y-73035000D02*
X67170000Y-74285000D01*
G75*
G02*
X66920000Y-74535000I-250000J0D01*
G01*
X65995000Y-74535000D01*
G75*
G02*
X65745000Y-74285000I0J250000D01*
G01*
X65745000Y-73035000D01*
G75*
G02*
X65995000Y-72785000I250000J0D01*
G01*
X66920000Y-72785000D01*
G75*
G02*
X67170000Y-73035000I0J-250000D01*
G01*
G37*
G04 #@! TD.AperFunction*
G04 #@! TA.AperFunction,SMDPad,CuDef*
G36*
G01*
X110195000Y-57775000D02*
X110195000Y-56525000D01*
G75*
G02*
X110445000Y-56275000I250000J0D01*
G01*
X111370000Y-56275000D01*
G75*
G02*
X111620000Y-56525000I0J-250000D01*
G01*
X111620000Y-57775000D01*
G75*
G02*
X111370000Y-58025000I-250000J0D01*
G01*
X110445000Y-58025000D01*
G75*
G02*
X110195000Y-57775000I0J250000D01*
G01*
G37*
G04 #@! TD.AperFunction*
G04 #@! TA.AperFunction,SMDPad,CuDef*
G36*
G01*
X113170000Y-57775000D02*
X113170000Y-56525000D01*
G75*
G02*
X113420000Y-56275000I250000J0D01*
G01*
X114345000Y-56275000D01*
G75*
G02*
X114595000Y-56525000I0J-250000D01*
G01*
X114595000Y-57775000D01*
G75*
G02*
X114345000Y-58025000I-250000J0D01*
G01*
X113420000Y-58025000D01*
G75*
G02*
X113170000Y-57775000I0J250000D01*
G01*
G37*
G04 #@! TD.AperFunction*
G04 #@! TA.AperFunction,SMDPad,CuDef*
G36*
G01*
X66030000Y-114795000D02*
X64780000Y-114795000D01*
G75*
G02*
X64530000Y-114545000I0J250000D01*
G01*
X64530000Y-113620000D01*
G75*
G02*
X64780000Y-113370000I250000J0D01*
G01*
X66030000Y-113370000D01*
G75*
G02*
X66280000Y-113620000I0J-250000D01*
G01*
X66280000Y-114545000D01*
G75*
G02*
X66030000Y-114795000I-250000J0D01*
G01*
G37*
G04 #@! TD.AperFunction*
G04 #@! TA.AperFunction,SMDPad,CuDef*
G36*
G01*
X66030000Y-117770000D02*
X64780000Y-117770000D01*
G75*
G02*
X64530000Y-117520000I0J250000D01*
G01*
X64530000Y-116595000D01*
G75*
G02*
X64780000Y-116345000I250000J0D01*
G01*
X66030000Y-116345000D01*
G75*
G02*
X66280000Y-116595000I0J-250000D01*
G01*
X66280000Y-117520000D01*
G75*
G02*
X66030000Y-117770000I-250000J0D01*
G01*
G37*
G04 #@! TD.AperFunction*
G04 #@! TA.AperFunction,SMDPad,CuDef*
G36*
G01*
X60315000Y-114795000D02*
X59065000Y-114795000D01*
G75*
G02*
X58815000Y-114545000I0J250000D01*
G01*
X58815000Y-113620000D01*
G75*
G02*
X59065000Y-113370000I250000J0D01*
G01*
X60315000Y-113370000D01*
G75*
G02*
X60565000Y-113620000I0J-250000D01*
G01*
X60565000Y-114545000D01*
G75*
G02*
X60315000Y-114795000I-250000J0D01*
G01*
G37*
G04 #@! TD.AperFunction*
G04 #@! TA.AperFunction,SMDPad,CuDef*
G36*
G01*
X60315000Y-117770000D02*
X59065000Y-117770000D01*
G75*
G02*
X58815000Y-117520000I0J250000D01*
G01*
X58815000Y-116595000D01*
G75*
G02*
X59065000Y-116345000I250000J0D01*
G01*
X60315000Y-116345000D01*
G75*
G02*
X60565000Y-116595000I0J-250000D01*
G01*
X60565000Y-117520000D01*
G75*
G02*
X60315000Y-117770000I-250000J0D01*
G01*
G37*
G04 #@! TD.AperFunction*
G04 #@! TA.AperFunction,SMDPad,CuDef*
G36*
G01*
X50155000Y-114795000D02*
X48905000Y-114795000D01*
G75*
G02*
X48655000Y-114545000I0J250000D01*
G01*
X48655000Y-113620000D01*
G75*
G02*
X48905000Y-113370000I250000J0D01*
G01*
X50155000Y-113370000D01*
G75*
G02*
X50405000Y-113620000I0J-250000D01*
G01*
X50405000Y-114545000D01*
G75*
G02*
X50155000Y-114795000I-250000J0D01*
G01*
G37*
G04 #@! TD.AperFunction*
G04 #@! TA.AperFunction,SMDPad,CuDef*
G36*
G01*
X50155000Y-117770000D02*
X48905000Y-117770000D01*
G75*
G02*
X48655000Y-117520000I0J250000D01*
G01*
X48655000Y-116595000D01*
G75*
G02*
X48905000Y-116345000I250000J0D01*
G01*
X50155000Y-116345000D01*
G75*
G02*
X50405000Y-116595000I0J-250000D01*
G01*
X50405000Y-117520000D01*
G75*
G02*
X50155000Y-117770000I-250000J0D01*
G01*
G37*
G04 #@! TD.AperFunction*
D29*
X46990000Y-43180000D03*
X49530000Y-43180000D03*
X52070000Y-43180000D03*
X63500000Y-41275000D03*
X72390000Y-58420000D03*
X51435000Y-57785000D03*
X44450000Y-73660000D03*
D30*
X43815000Y-62230000D03*
D29*
X36703000Y-72517000D03*
D30*
X96520000Y-109220000D03*
D29*
X29972000Y-73533000D03*
X29972000Y-76073000D03*
X29972000Y-70993000D03*
X48260000Y-71120000D03*
X48260000Y-69215000D03*
X37465000Y-73660000D03*
X36195000Y-41910000D03*
X72390000Y-74295000D03*
X83000000Y-103000000D03*
X92000000Y-109000000D03*
X68580000Y-41275000D03*
X71000000Y-60635000D03*
X40640000Y-70485000D03*
X35560000Y-67310000D03*
X29845000Y-67246501D03*
X40640000Y-69215000D03*
X107950000Y-97155000D03*
X50165000Y-118745000D03*
X114300000Y-104140000D03*
X81280000Y-74295000D03*
X95885000Y-69850000D03*
X105410000Y-68580000D03*
X111125000Y-45085000D03*
X80010000Y-58420000D03*
X95250000Y-59055000D03*
X91440000Y-50165000D03*
X92075000Y-57785000D03*
X119745000Y-112320000D03*
X115935000Y-119940000D03*
X122285000Y-118035000D03*
X122285000Y-114225000D03*
X115935000Y-112320000D03*
X119745000Y-119940000D03*
X104505000Y-112955000D03*
X104505000Y-116765000D03*
X102235000Y-109220000D03*
X81280000Y-56515000D03*
X107950000Y-85725000D03*
X78740000Y-50800000D03*
X104276905Y-52131774D03*
X120650000Y-122555000D03*
X49530000Y-112395000D03*
X59690000Y-112395000D03*
X65405000Y-112395000D03*
X75565000Y-112395000D03*
X40640000Y-125730000D03*
X115570000Y-57785000D03*
X116205000Y-50800000D03*
D30*
X115570000Y-110490000D03*
X37465000Y-128270000D03*
X116205000Y-47625000D03*
D29*
X97000000Y-49734999D03*
X100000000Y-51234999D03*
X45085000Y-38100000D03*
X50800000Y-36830000D03*
X93345000Y-69850000D03*
X83185000Y-58420000D03*
X83820000Y-50800000D03*
D30*
X101600000Y-121920000D03*
D29*
X61595000Y-59690000D03*
X60325000Y-73660000D03*
X60325000Y-65405000D03*
X59055000Y-66675000D03*
X57785000Y-68580000D03*
X62865000Y-60960000D03*
X62865000Y-69215000D03*
X59055000Y-71120000D03*
X64135000Y-71120000D03*
X64135000Y-63500000D03*
X99314000Y-72644000D03*
X104775000Y-78105000D03*
X103124000Y-72644000D03*
X113030000Y-76200000D03*
X106680000Y-72390000D03*
X111125000Y-70485000D03*
X102541582Y-43254415D03*
X106616500Y-53721000D03*
X109220000Y-55245000D03*
X106426000Y-55118000D03*
X103124000Y-42418000D03*
X109220000Y-57150000D03*
X72390000Y-93980000D03*
X57785000Y-88265000D03*
X61595000Y-73660000D03*
X61595000Y-63500000D03*
X99060000Y-68580000D03*
X96520000Y-59055000D03*
X103505000Y-67310000D03*
X104775000Y-59055000D03*
X101600000Y-68580000D03*
X106045000Y-58420000D03*
X99060000Y-57150000D03*
X99060000Y-62865000D03*
X101600000Y-59055000D03*
X101600000Y-61595000D03*
D31*
X46990000Y-41492500D02*
X46990000Y-43180000D01*
X49530000Y-41492500D02*
X49530000Y-43180000D01*
X52070000Y-41492500D02*
X52070000Y-43180000D01*
X73025000Y-60107500D02*
X73025000Y-59055000D01*
X73025000Y-59055000D02*
X72390000Y-58420000D01*
X49530000Y-57567500D02*
X51217500Y-57567500D01*
X51217500Y-57567500D02*
X51435000Y-57785000D01*
X34634500Y-76073000D02*
X34634500Y-73533000D01*
D32*
X46145000Y-73395000D02*
X44715000Y-73395000D01*
X44715000Y-73395000D02*
X44450000Y-73660000D01*
D33*
X45085000Y-60542500D02*
X45085000Y-60960000D01*
X45085000Y-60960000D02*
X43815000Y-62230000D01*
D32*
X34634500Y-73533000D02*
X35687000Y-73533000D01*
X37770000Y-70145000D02*
X38945000Y-70145000D01*
X37719999Y-70195001D02*
X37770000Y-70145000D01*
X35687000Y-73533000D02*
X36703000Y-72517000D01*
X37719999Y-71500001D02*
X37719999Y-70195001D01*
X36703000Y-72517000D02*
X37719999Y-71500001D01*
D33*
X97155000Y-110975000D02*
X97155000Y-109855000D01*
X97155000Y-109855000D02*
X96520000Y-109220000D01*
D31*
X96692500Y-110512500D02*
X97155000Y-110975000D01*
X94000000Y-110512500D02*
X96692500Y-110512500D01*
X31659500Y-73533000D02*
X29972000Y-73533000D01*
X31659500Y-76073000D02*
X29972000Y-76073000D01*
X31659500Y-70993000D02*
X29972000Y-70993000D01*
X31352500Y-67246500D02*
X31432500Y-67246500D01*
D32*
X46145000Y-71445000D02*
X47935000Y-71445000D01*
X47935000Y-71445000D02*
X48260000Y-71120000D01*
X46145000Y-69495000D02*
X47980000Y-69495000D01*
X47980000Y-69495000D02*
X48260000Y-69215000D01*
X46145000Y-72095000D02*
X46145000Y-71445000D01*
X38945000Y-73395000D02*
X37730000Y-73395000D01*
X37730000Y-73395000D02*
X37465000Y-73660000D01*
X37850000Y-74045000D02*
X37465000Y-73660000D01*
X38945000Y-74045000D02*
X37850000Y-74045000D01*
D31*
X38100000Y-41492500D02*
X36612500Y-41492500D01*
X36612500Y-41492500D02*
X36195000Y-41910000D01*
X74360000Y-74295000D02*
X72390000Y-74295000D01*
X83820000Y-101280000D02*
X83820000Y-102180000D01*
X83820000Y-102180000D02*
X83000000Y-103000000D01*
X94000000Y-113487500D02*
X94000000Y-116000000D01*
X92315000Y-117685000D02*
X92315000Y-119925000D01*
X94000000Y-116000000D02*
X92315000Y-117685000D01*
X91000000Y-110512500D02*
X91000000Y-110000000D01*
X91000000Y-110000000D02*
X92000000Y-109000000D01*
X75114990Y-61270010D02*
X71635010Y-61270010D01*
X71635010Y-61270010D02*
X71000000Y-60635000D01*
X75565000Y-60107500D02*
X75565000Y-60820000D01*
X75565000Y-60820000D02*
X75114990Y-61270010D01*
D32*
X38945000Y-70795000D02*
X40330000Y-70795000D01*
X40330000Y-70795000D02*
X40640000Y-70485000D01*
D34*
X34052500Y-67246500D02*
X35496500Y-67246500D01*
X35496500Y-67246500D02*
X35560000Y-67310000D01*
X31352500Y-67246500D02*
X29845001Y-67246500D01*
X29845001Y-67246500D02*
X29845000Y-67246501D01*
D32*
X38945000Y-68845000D02*
X40270000Y-68845000D01*
X40270000Y-68845000D02*
X40640000Y-69215000D01*
D33*
X97155000Y-117625000D02*
X97155000Y-113025000D01*
X94855000Y-119925000D02*
X97155000Y-117625000D01*
D31*
X91186000Y-112014000D02*
X91000000Y-112200000D01*
X95250000Y-112014000D02*
X91186000Y-112014000D01*
X91000000Y-112200000D02*
X91000000Y-113487500D01*
X97155000Y-113025000D02*
X96261000Y-113025000D01*
X96261000Y-113025000D02*
X95250000Y-112014000D01*
X109637500Y-97155000D02*
X107950000Y-97155000D01*
X50165000Y-120432500D02*
X50165000Y-118745000D01*
X115987500Y-104140000D02*
X114300000Y-104140000D01*
X79310000Y-74295000D02*
X81280000Y-74295000D01*
D32*
X95250000Y-68162500D02*
X95250000Y-69215000D01*
X95250000Y-69215000D02*
X95885000Y-69850000D01*
X105410000Y-70545000D02*
X105410000Y-68580000D01*
D31*
X111125000Y-46772500D02*
X111125000Y-45085000D01*
D32*
X78740000Y-60107500D02*
X78740000Y-59690000D01*
X78740000Y-59690000D02*
X80010000Y-58420000D01*
X97480000Y-57535000D02*
X96770000Y-57535000D01*
X96770000Y-57535000D02*
X95250000Y-59055000D01*
X90587500Y-51435000D02*
X90587500Y-51017500D01*
X90587500Y-51017500D02*
X91440000Y-50165000D01*
X90587500Y-56515000D02*
X90805000Y-56515000D01*
X90805000Y-56515000D02*
X92075000Y-57785000D01*
D31*
X105557500Y-117817500D02*
X104505000Y-116765000D01*
X105557500Y-118035000D02*
X105557500Y-117817500D01*
X105557500Y-114225000D02*
X105557500Y-114007500D01*
X105557500Y-114007500D02*
X104505000Y-112955000D01*
X101000000Y-110512500D02*
X100987500Y-110512500D01*
X100987500Y-110512500D02*
X102235000Y-109265000D01*
X102235000Y-109265000D02*
X102235000Y-109220000D01*
X82550000Y-55462500D02*
X82332500Y-55462500D01*
X82332500Y-55462500D02*
X81280000Y-56515000D01*
X115935000Y-118465000D02*
X118135000Y-116265000D01*
X115935000Y-119940000D02*
X115935000Y-118465000D01*
X119745000Y-117875000D02*
X118135000Y-116265000D01*
X119745000Y-119940000D02*
X119745000Y-117875000D01*
X119905000Y-118035000D02*
X118135000Y-116265000D01*
X122285000Y-118035000D02*
X119905000Y-118035000D01*
X120175000Y-114225000D02*
X118135000Y-116265000D01*
X122285000Y-114225000D02*
X120175000Y-114225000D01*
X119745000Y-114655000D02*
X118135000Y-116265000D01*
X119745000Y-112320000D02*
X119745000Y-114655000D01*
X115935000Y-114065000D02*
X118135000Y-116265000D01*
X115935000Y-112320000D02*
X115935000Y-114065000D01*
X101600000Y-85307500D02*
X104140000Y-85307500D01*
X104140000Y-85307500D02*
X106680000Y-85307500D01*
X106680000Y-85307500D02*
X106680000Y-85725000D01*
X106680000Y-85307500D02*
X107532500Y-85307500D01*
X107532500Y-85307500D02*
X107950000Y-85725000D01*
X113882500Y-52705000D02*
X113882500Y-52487500D01*
X77470000Y-52487500D02*
X77470000Y-52070000D01*
X77470000Y-52070000D02*
X78740000Y-50800000D01*
D32*
X103180000Y-52335000D02*
X104073679Y-52335000D01*
X104073679Y-52335000D02*
X104276905Y-52131774D01*
D31*
X118962500Y-123190000D02*
X120015000Y-123190000D01*
X120015000Y-123190000D02*
X120650000Y-122555000D01*
X75565000Y-114082500D02*
X75565000Y-112395000D01*
X65405000Y-114082500D02*
X65405000Y-112395000D01*
X49530000Y-114082500D02*
X49530000Y-112395000D01*
X59690000Y-114082500D02*
X59690000Y-112395000D01*
X41910000Y-126782500D02*
X41692500Y-126782500D01*
X41692500Y-126782500D02*
X40640000Y-125730000D01*
X113882500Y-52070000D02*
X113882500Y-54610000D01*
X113882500Y-54610000D02*
X113882500Y-57150000D01*
X113882500Y-57150000D02*
X114935000Y-57150000D01*
X114935000Y-57150000D02*
X115570000Y-57785000D01*
X117475000Y-52070000D02*
X116205000Y-50800000D01*
X101000000Y-118860000D02*
X99935000Y-119925000D01*
X101000000Y-113487500D02*
X101000000Y-118860000D01*
D33*
X99935000Y-119925000D02*
X99935000Y-129780000D01*
X101600000Y-131445000D02*
X104140000Y-131445000D01*
X99935000Y-129780000D02*
X101600000Y-131445000D01*
X104140000Y-126365000D02*
X104140000Y-125095000D01*
X108532500Y-120702500D02*
X108532500Y-118035000D01*
X104140000Y-125095000D02*
X108532500Y-120702500D01*
X111325000Y-118035000D02*
X111835000Y-118545000D01*
X108532500Y-118035000D02*
X111325000Y-118035000D01*
D31*
X108772500Y-113985000D02*
X108532500Y-114225000D01*
X111835000Y-113985000D02*
X108772500Y-113985000D01*
D33*
X111835000Y-113985000D02*
X111835000Y-111200000D01*
X111835000Y-111200000D02*
X112545000Y-110490000D01*
X112545000Y-110490000D02*
X115570000Y-110490000D01*
X39370000Y-126870000D02*
X38865000Y-126870000D01*
X38865000Y-126870000D02*
X37465000Y-128270000D01*
X116075000Y-109985000D02*
X115570000Y-110490000D01*
X116075000Y-106680000D02*
X116075000Y-109985000D01*
X117345000Y-49530000D02*
X117345000Y-48765000D01*
X117345000Y-48765000D02*
X116205000Y-47625000D01*
D32*
X73025000Y-63082500D02*
X73025000Y-63435000D01*
X73025000Y-63082500D02*
X75565000Y-63082500D01*
X75565000Y-64200000D02*
X74360000Y-65405000D01*
X75565000Y-63082500D02*
X75565000Y-64200000D01*
X78740000Y-63082500D02*
X81280000Y-63082500D01*
X79310000Y-63652500D02*
X78740000Y-63082500D01*
X79310000Y-65405000D02*
X79310000Y-63652500D01*
X37770000Y-68195000D02*
X38945000Y-68195000D01*
X36068000Y-70993000D02*
X36068000Y-69897000D01*
X36068000Y-69897000D02*
X37770000Y-68195000D01*
X34634500Y-70993000D02*
X36068000Y-70993000D01*
X92710000Y-65187500D02*
X95250000Y-65187500D01*
X97632500Y-65187500D02*
X97790000Y-65345000D01*
X95250000Y-65187500D02*
X97632500Y-65187500D01*
D33*
X119000000Y-101562500D02*
X118962500Y-101600000D01*
X119000000Y-96565000D02*
X119000000Y-101562500D01*
X118962500Y-101600000D02*
X118962500Y-104140000D01*
X118962500Y-106592500D02*
X118875000Y-106680000D01*
X118962500Y-104140000D02*
X118962500Y-106592500D01*
D32*
X80010000Y-54255000D02*
X80010000Y-55462500D01*
X80150000Y-54115000D02*
X80010000Y-54255000D01*
X96333640Y-52335000D02*
X94558650Y-54109990D01*
X94558650Y-54109990D02*
X87917890Y-54109990D01*
X87912880Y-54115000D02*
X80150000Y-54115000D01*
X97480000Y-52335000D02*
X96333640Y-52335000D01*
X87917890Y-54109990D02*
X87912880Y-54115000D01*
X93914989Y-48914989D02*
X96179990Y-48914989D01*
X96179990Y-48914989D02*
X97000000Y-49734999D01*
X99800001Y-51035000D02*
X97480000Y-51035000D01*
X100000000Y-51234999D02*
X99800001Y-51035000D01*
X83187511Y-48914989D02*
X83820000Y-48895000D01*
X83820000Y-48895000D02*
X93914989Y-48914989D01*
X81915000Y-48895000D02*
X82550000Y-48895000D01*
X80010000Y-50800000D02*
X81915000Y-48895000D01*
X80010000Y-52487500D02*
X80010000Y-50800000D01*
X82255000Y-48895000D02*
X82550000Y-48895000D01*
X82550000Y-48895000D02*
X83820000Y-48895000D01*
X86100990Y-54615010D02*
X85507500Y-55208500D01*
X96390760Y-52985000D02*
X94765760Y-54610000D01*
X88119990Y-54615010D02*
X86100990Y-54615010D01*
X94765760Y-54610000D02*
X88125000Y-54610000D01*
X85507500Y-55208500D02*
X85507500Y-56515000D01*
X97480000Y-52985000D02*
X96390760Y-52985000D01*
X88125000Y-54610000D02*
X88119990Y-54615010D01*
X89789000Y-55245000D02*
X88519000Y-56515000D01*
X88519000Y-56515000D02*
X88482500Y-56515000D01*
X94837880Y-55245000D02*
X89789000Y-55245000D01*
X97480000Y-53635000D02*
X96447880Y-53635000D01*
X96447880Y-53635000D02*
X94837880Y-55245000D01*
X96749998Y-54285000D02*
X97480000Y-54285000D01*
X94519998Y-56515000D02*
X96749998Y-54285000D01*
X93562500Y-56515000D02*
X94519998Y-56515000D01*
X82722510Y-52660010D02*
X82550000Y-52487500D01*
X94659990Y-52660010D02*
X82722510Y-52660010D01*
X95635000Y-51685000D02*
X94659990Y-52660010D01*
X97480000Y-51685000D02*
X95635000Y-51685000D01*
X102330000Y-51685000D02*
X103180000Y-51685000D01*
X102279999Y-51735001D02*
X102330000Y-51685000D01*
X102279999Y-56715001D02*
X102279999Y-51735001D01*
X102449998Y-56885000D02*
X102279999Y-56715001D01*
X103180000Y-56885000D02*
X102449998Y-56885000D01*
X103180000Y-51035000D02*
X103180000Y-51685000D01*
X88482500Y-51435000D02*
X88482500Y-49947500D01*
X88482500Y-49947500D02*
X89017386Y-49412614D01*
X89017386Y-49412614D02*
X92592614Y-49412614D01*
X92592614Y-49412614D02*
X93218000Y-50038000D01*
X93218000Y-51090500D02*
X93562500Y-51435000D01*
X93218000Y-50038000D02*
X93218000Y-51090500D01*
X93562500Y-51435000D02*
X94869000Y-51435000D01*
X103180000Y-50535000D02*
X103180000Y-51035000D01*
X103129998Y-50484998D02*
X103180000Y-50535000D01*
X99639999Y-50484998D02*
X103129998Y-50484998D01*
X99639997Y-50485000D02*
X99639999Y-50484998D01*
X95819000Y-50485000D02*
X99639997Y-50485000D01*
X94869000Y-51435000D02*
X95819000Y-50485000D01*
D31*
X120450000Y-54610000D02*
X120450000Y-52070000D01*
D33*
X120450000Y-49835000D02*
X120145000Y-49530000D01*
X120450000Y-52070000D02*
X120450000Y-49835000D01*
X112805000Y-40640000D02*
X110210000Y-40640000D01*
X120145000Y-49530000D02*
X120145000Y-47980000D01*
X120145000Y-47980000D02*
X112805000Y-40640000D01*
X44667500Y-129540000D02*
X44450000Y-129757500D01*
X49095000Y-129540000D02*
X44667500Y-129540000D01*
X44450000Y-129757500D02*
X41910000Y-129757500D01*
X39457500Y-129757500D02*
X39370000Y-129670000D01*
X41910000Y-129757500D02*
X39457500Y-129757500D01*
D31*
X38100000Y-38517500D02*
X38100000Y-37465000D01*
X38100000Y-37465000D02*
X38735000Y-36830000D01*
X38735000Y-36830000D02*
X46355000Y-36830000D01*
X46355000Y-36830000D02*
X46990000Y-37465000D01*
X46990000Y-37465000D02*
X46990000Y-38517500D01*
X43180000Y-38517500D02*
X44667500Y-38517500D01*
X44667500Y-38517500D02*
X45085000Y-38100000D01*
X50800000Y-36830000D02*
X51435000Y-36830000D01*
X52070000Y-37465000D02*
X52070000Y-38517500D01*
X51435000Y-36830000D02*
X52070000Y-37465000D01*
D32*
X42840000Y-72095000D02*
X44069000Y-70866000D01*
X38945000Y-72095000D02*
X42840000Y-72095000D01*
X44069000Y-70866000D02*
X44069000Y-66493120D01*
X44069000Y-66493120D02*
X45927110Y-64635010D01*
X43180000Y-41492500D02*
X43180000Y-44037880D01*
X47490010Y-63072110D02*
X44069000Y-66493120D01*
X47490010Y-48347890D02*
X47490010Y-63072110D01*
X43180000Y-44037880D02*
X47490010Y-48347890D01*
X43434000Y-70485000D02*
X43434000Y-66421000D01*
X38945000Y-71445000D02*
X42474000Y-71445000D01*
X42474000Y-71445000D02*
X43434000Y-70485000D01*
X40640000Y-42205000D02*
X46990000Y-48555000D01*
X40640000Y-41492500D02*
X40640000Y-42205000D01*
X46990000Y-48555000D02*
X46990000Y-62865000D01*
X46990000Y-62865000D02*
X43815000Y-66040000D01*
X43434000Y-66421000D02*
X43815000Y-66040000D01*
X43815000Y-66040000D02*
X45720000Y-64135000D01*
D31*
X40640000Y-38517500D02*
X40640000Y-39370000D01*
X40640000Y-39370000D02*
X41275000Y-40005000D01*
X41275000Y-40005000D02*
X48895000Y-40005000D01*
X48895000Y-40005000D02*
X49530000Y-39370000D01*
X49530000Y-39370000D02*
X49530000Y-38517500D01*
X115987500Y-99817500D02*
X115987500Y-100725000D01*
X115987500Y-100725000D02*
X115987500Y-101600000D01*
X113325000Y-97155000D02*
X115987500Y-99817500D01*
X112612500Y-97155000D02*
X113325000Y-97155000D01*
X116762500Y-54610000D02*
X115570000Y-53417500D01*
X117475000Y-54610000D02*
X116762500Y-54610000D01*
X115570000Y-53417500D02*
X115570000Y-51435000D01*
X113882500Y-49747500D02*
X111125000Y-49747500D01*
X115570000Y-51435000D02*
X113882500Y-49747500D01*
X47502500Y-126782500D02*
X50165000Y-124120000D01*
X50165000Y-124120000D02*
X50165000Y-123407500D01*
X44450000Y-126782500D02*
X47502500Y-126782500D01*
X107315000Y-128905000D02*
X109637500Y-128905000D01*
D32*
X92710000Y-68162500D02*
X92710000Y-69215000D01*
X92710000Y-69215000D02*
X93345000Y-69850000D01*
X81280000Y-60107500D02*
X81497500Y-60107500D01*
X81497500Y-60107500D02*
X83185000Y-58420000D01*
X85507500Y-51435000D02*
X84455000Y-51435000D01*
X84455000Y-51435000D02*
X83820000Y-50800000D01*
D33*
X101600000Y-126365000D02*
X101600000Y-121920000D01*
X101600000Y-127567081D02*
X101600000Y-126365000D01*
X102937919Y-128905000D02*
X101600000Y-127567081D01*
X104140000Y-128905000D02*
X102937919Y-128905000D01*
D31*
X104140000Y-128905000D02*
X109637500Y-128905000D01*
D34*
X34052500Y-66296500D02*
X35816500Y-66296500D01*
X36415000Y-66895000D02*
X38945000Y-66895000D01*
X35816500Y-66296500D02*
X36415000Y-66895000D01*
D35*
X30576164Y-52937156D02*
X28172156Y-55341164D01*
X38259000Y-54650000D02*
X39026844Y-53882156D01*
X39026844Y-53882156D02*
X39026844Y-53325164D01*
X39026844Y-53325164D02*
X38638836Y-52937156D01*
X38638836Y-52937156D02*
X30576164Y-52937156D01*
X28172156Y-55341164D02*
X28172156Y-66578836D01*
X28172156Y-66578836D02*
X28607664Y-67014344D01*
X29114443Y-66895833D02*
X29494332Y-66515944D01*
X29494332Y-66515944D02*
X32663055Y-66515944D01*
X29114443Y-67014344D02*
X29114443Y-66895833D01*
X32663055Y-66515944D02*
X32882499Y-66296500D01*
X28607664Y-67014344D02*
X29114443Y-67014344D01*
X32882499Y-66296500D02*
X34052500Y-66296500D01*
D34*
X34052500Y-68196500D02*
X35943500Y-68196500D01*
X36595000Y-67545000D02*
X38945000Y-67545000D01*
X35943500Y-68196500D02*
X36595000Y-67545000D01*
D35*
X30383836Y-52472844D02*
X27707844Y-55148836D01*
X38831164Y-52472844D02*
X30383836Y-52472844D01*
X39491156Y-53132836D02*
X38831164Y-52472844D01*
X39491156Y-53882156D02*
X39491156Y-53132836D01*
X40259000Y-54650000D02*
X39491156Y-53882156D01*
X27707844Y-55148836D02*
X27707844Y-66771164D01*
X32663057Y-67977058D02*
X32882499Y-68196500D01*
X29494332Y-67977058D02*
X32663057Y-67977058D01*
X32882499Y-68196500D02*
X34052500Y-68196500D01*
X27707844Y-66771164D02*
X28415336Y-67478656D01*
X28415336Y-67478656D02*
X29114443Y-67478656D01*
X29114443Y-67478656D02*
X29114443Y-67597169D01*
X29114443Y-67597169D02*
X29494332Y-67977058D01*
D31*
X66457500Y-71120000D02*
X67945000Y-71120000D01*
X62230000Y-59055000D02*
X61595000Y-59690000D01*
X60325000Y-60960000D02*
X61595000Y-59690000D01*
X55910000Y-60960000D02*
X60325000Y-60960000D01*
X67945000Y-59690000D02*
X67310000Y-59055000D01*
X67310000Y-59055000D02*
X62230000Y-59055000D01*
X67945000Y-71120000D02*
X67945000Y-59690000D01*
X55910000Y-73660000D02*
X60325000Y-73660000D01*
X66457500Y-66040000D02*
X64770000Y-66040000D01*
X64135000Y-65405000D02*
X60325000Y-65405000D01*
X64770000Y-66040000D02*
X64135000Y-65405000D01*
X59690000Y-67310000D02*
X63500000Y-67310000D01*
X55910000Y-66040000D02*
X58420000Y-66040000D01*
X58420000Y-66040000D02*
X59055000Y-66675000D01*
X59055000Y-66675000D02*
X59690000Y-67310000D01*
X64770000Y-68580000D02*
X63500000Y-67310000D01*
X66457500Y-68580000D02*
X64770000Y-68580000D01*
X55910000Y-68580000D02*
X57785000Y-68580000D01*
X62865000Y-60960000D02*
X66457500Y-60960000D01*
X57785000Y-68580000D02*
X58420000Y-69215000D01*
X58420000Y-69215000D02*
X62865000Y-69215000D01*
X55910000Y-71120000D02*
X59055000Y-71120000D01*
X59055000Y-71120000D02*
X64135000Y-71120000D01*
X64135000Y-63500000D02*
X66457500Y-63500000D01*
X79000000Y-98000000D02*
X80512500Y-98000000D01*
X78105000Y-97105000D02*
X79000000Y-98000000D01*
X78105000Y-84455000D02*
X78105000Y-97105000D01*
X73533000Y-82042000D02*
X75692000Y-82042000D01*
X75692000Y-82042000D02*
X78105000Y-84455000D01*
D32*
X98425000Y-73660000D02*
X97790000Y-73025000D01*
X97790000Y-73025000D02*
X97790000Y-70545000D01*
X98425000Y-73660000D02*
X98425000Y-73533000D01*
X98425000Y-73533000D02*
X99314000Y-72644000D01*
D31*
X101600000Y-81280000D02*
X104775000Y-78105000D01*
X101600000Y-82332500D02*
X101600000Y-81280000D01*
D32*
X102235000Y-73645000D02*
X102220000Y-73645000D01*
X101600000Y-73025000D02*
X101600000Y-70545000D01*
X102220000Y-73645000D02*
X101600000Y-73025000D01*
X102235000Y-73645000D02*
X102235000Y-73533000D01*
X102235000Y-73533000D02*
X103124000Y-72644000D01*
D31*
X106680000Y-82332500D02*
X108167500Y-82332500D01*
X113030000Y-77470000D02*
X113030000Y-76200000D01*
X108167500Y-82332500D02*
X113030000Y-77470000D01*
D32*
X104140000Y-66675000D02*
X104140000Y-65345000D01*
X104775000Y-67310000D02*
X104140000Y-66675000D01*
X106045000Y-73645000D02*
X106060000Y-73645000D01*
X106680000Y-73025000D02*
X106680000Y-72390000D01*
X106060000Y-73645000D02*
X106680000Y-73025000D01*
X106680000Y-67945000D02*
X106045000Y-67310000D01*
X106045000Y-67310000D02*
X104775000Y-67310000D01*
X106045000Y-73645000D02*
X106045000Y-73533000D01*
X106680000Y-72390000D02*
X106680000Y-67945000D01*
D31*
X111125000Y-73660000D02*
X111125000Y-70485000D01*
X104140000Y-80645000D02*
X111125000Y-73660000D01*
X104140000Y-82332500D02*
X104140000Y-80645000D01*
X81280000Y-118125000D02*
X81280000Y-129360000D01*
X81280000Y-129360000D02*
X81100000Y-129540000D01*
X89275000Y-126365000D02*
X86100000Y-129540000D01*
X95280000Y-126365000D02*
X89275000Y-126365000D01*
X86360000Y-129280000D02*
X86100000Y-129540000D01*
X86360000Y-118125000D02*
X86360000Y-129280000D01*
D32*
X103180000Y-52985000D02*
X104533681Y-52985000D01*
X104533681Y-52985000D02*
X105410000Y-52108681D01*
X75210000Y-40640000D02*
X79020000Y-44450000D01*
X101092000Y-44704000D02*
X105410000Y-49022000D01*
X105410000Y-52108681D02*
X105410000Y-49022000D01*
X79274000Y-44704000D02*
X79020000Y-44450000D01*
X101092000Y-44704000D02*
X79274000Y-44704000D01*
X105402500Y-54935000D02*
X106616500Y-53721000D01*
X103180000Y-54935000D02*
X105402500Y-54935000D01*
X107210028Y-53127472D02*
X106616500Y-53721000D01*
X102541582Y-43607958D02*
X102541582Y-43254415D01*
X107210028Y-53127472D02*
X107210028Y-48276404D01*
X107210028Y-48276404D02*
X102541582Y-43607958D01*
X110907500Y-54610000D02*
X109855000Y-54610000D01*
X109855000Y-54610000D02*
X109220000Y-55245000D01*
X86906224Y-44103990D02*
X101340533Y-44103991D01*
X85210000Y-40640000D02*
X85210000Y-42407766D01*
X85210000Y-42407766D02*
X86906224Y-44103990D01*
X104732223Y-53635000D02*
X104030000Y-53635000D01*
X106010009Y-52357214D02*
X104732223Y-53635000D01*
X104030000Y-53635000D02*
X103180000Y-53635000D01*
X106010010Y-48773468D02*
X106010009Y-52357214D01*
X101340533Y-44103991D02*
X106010010Y-48773468D01*
X105959000Y-55585000D02*
X103180000Y-55585000D01*
X106426000Y-55118000D02*
X105959000Y-55585000D01*
X106426000Y-55118000D02*
X107810037Y-53733963D01*
X107810037Y-53733963D02*
X107810038Y-47779498D01*
X107810038Y-47779498D02*
X104609990Y-44579448D01*
X104609990Y-44579448D02*
X104609990Y-43903990D01*
X104609990Y-43903990D02*
X103124000Y-42418000D01*
X110907500Y-57150000D02*
X109220000Y-57150000D01*
X100210000Y-40640000D02*
X99695000Y-40640000D01*
X100640000Y-41070000D02*
X100210000Y-40640000D01*
X100210000Y-42806000D02*
X100210000Y-40640000D01*
X100878458Y-43474458D02*
X100210000Y-42806000D01*
X103180000Y-54285000D02*
X104973000Y-54285000D01*
X106610019Y-52647981D02*
X106610019Y-48524937D01*
X104973000Y-54285000D02*
X106610019Y-52647981D01*
X101559542Y-43474458D02*
X100878458Y-43474458D01*
X106610019Y-48524937D02*
X101559542Y-43474458D01*
X110907500Y-52705000D02*
X111125000Y-52705000D01*
X105210000Y-44330916D02*
X108410047Y-47530967D01*
X105210000Y-40640000D02*
X105210000Y-44330916D01*
X108410046Y-54308046D02*
X106483092Y-56235000D01*
X106483092Y-56235000D02*
X103180000Y-56235000D01*
X108410047Y-47530967D02*
X108410046Y-54308046D01*
X108410046Y-54308046D02*
X108410046Y-52625954D01*
X108966000Y-52070000D02*
X110907500Y-52070000D01*
X108410046Y-52625954D02*
X108966000Y-52070000D01*
X108966000Y-52070000D02*
X108712000Y-52070000D01*
X108712000Y-52070000D02*
X108458000Y-52324000D01*
X108712000Y-52070000D02*
X108458000Y-51816000D01*
D31*
X40005000Y-110490000D02*
X41275000Y-111760000D01*
X28194000Y-110490000D02*
X40005000Y-110490000D01*
X40149226Y-114300000D02*
X41275000Y-114300000D01*
X37964226Y-112115000D02*
X40149226Y-114300000D01*
X34445003Y-112114996D02*
X37964226Y-112115000D01*
X28194000Y-119790000D02*
X28194000Y-118365998D01*
X28194000Y-118365998D02*
X34445003Y-112114996D01*
X38125000Y-113690000D02*
X41275000Y-116840000D01*
X36294000Y-113690000D02*
X38125000Y-113690000D01*
X40785000Y-118890000D02*
X41275000Y-119380000D01*
X33194000Y-118890000D02*
X40785000Y-118890000D01*
X40785000Y-88410000D02*
X41275000Y-88900000D01*
X33194000Y-88410000D02*
X40785000Y-88410000D01*
X41275000Y-88900000D02*
X43815000Y-88900000D01*
X43815000Y-88900000D02*
X45085000Y-87630000D01*
X45085000Y-87630000D02*
X55880000Y-87630000D01*
X59055000Y-84455000D02*
X60960000Y-84455000D01*
X55880000Y-87630000D02*
X59055000Y-84455000D01*
X38125000Y-83210000D02*
X41275000Y-86360000D01*
X36294000Y-83210000D02*
X38125000Y-83210000D01*
X58420000Y-79375000D02*
X60960000Y-79375000D01*
X56515000Y-81280000D02*
X58420000Y-79375000D01*
X56515000Y-84455000D02*
X56515000Y-81280000D01*
X54610000Y-86360000D02*
X56515000Y-84455000D01*
X41275000Y-86360000D02*
X54610000Y-86360000D01*
X39914999Y-82970001D02*
X40425001Y-82970001D01*
X40425001Y-82970001D02*
X41275000Y-83820000D01*
X38579997Y-81634999D02*
X39914999Y-82970001D01*
X34444999Y-81634999D02*
X38579997Y-81634999D01*
X28194000Y-88011000D02*
X31115000Y-85090000D01*
X28194000Y-89310000D02*
X28194000Y-88011000D01*
X31115000Y-85090000D02*
X34444999Y-81634999D01*
X41275000Y-83820000D02*
X47625000Y-83820000D01*
X48260000Y-84455000D02*
X50800000Y-84455000D01*
X47625000Y-83820000D02*
X48260000Y-84455000D01*
X40005000Y-80010000D02*
X41275000Y-81280000D01*
X28194000Y-80010000D02*
X40005000Y-80010000D01*
X41275000Y-81280000D02*
X47625000Y-81280000D01*
X49530000Y-79375000D02*
X50800000Y-79375000D01*
X47625000Y-81280000D02*
X49530000Y-79375000D01*
X72975000Y-91295000D02*
X72975000Y-93395000D01*
X72975000Y-93395000D02*
X72390000Y-93980000D01*
X57100000Y-91295000D02*
X57100000Y-88950000D01*
X57100000Y-88950000D02*
X57785000Y-88265000D01*
X61595000Y-73660000D02*
X61595000Y-73660000D01*
X55895000Y-63500000D02*
X61595000Y-63500000D01*
X66457500Y-73660000D02*
X64135000Y-73660000D01*
X64135000Y-73660000D02*
X61595000Y-73660000D01*
X52705000Y-94615000D02*
X52120000Y-94030000D01*
X60325000Y-94615000D02*
X52705000Y-94615000D01*
X52120000Y-94030000D02*
X52120000Y-91295000D01*
X60960000Y-81915000D02*
X62865000Y-83820000D01*
X60960000Y-87630000D02*
X60960000Y-93980000D01*
X62865000Y-83820000D02*
X62865000Y-85725000D01*
X62865000Y-85725000D02*
X60960000Y-87630000D01*
X60960000Y-93980000D02*
X60325000Y-94615000D01*
X66040000Y-81915000D02*
X67310000Y-81915000D01*
X67310000Y-81915000D02*
X67945000Y-82550000D01*
X67945000Y-91245000D02*
X67995000Y-91295000D01*
X67945000Y-82550000D02*
X67945000Y-91245000D01*
X67995000Y-108095000D02*
X67995000Y-111695000D01*
X67995000Y-111695000D02*
X67930000Y-111760000D01*
X72975000Y-108095000D02*
X72975000Y-111695000D01*
X72975000Y-111695000D02*
X73040000Y-111760000D01*
X52120000Y-111695000D02*
X52055000Y-111760000D01*
X52120000Y-108095000D02*
X52120000Y-111695000D01*
X57100000Y-111695000D02*
X57165000Y-111760000D01*
X57100000Y-108095000D02*
X57100000Y-111695000D01*
X81280000Y-109560000D02*
X81280000Y-110810000D01*
X81530001Y-109309999D02*
X81280000Y-109560000D01*
X86109999Y-109309999D02*
X81530001Y-109309999D01*
X86360000Y-109560000D02*
X86109999Y-109309999D01*
X86360000Y-110810000D02*
X86360000Y-109560000D01*
X81280000Y-110810000D02*
X81280000Y-116825000D01*
X83820000Y-114285000D02*
X86360000Y-116825000D01*
X83820000Y-110810000D02*
X83820000Y-114285000D01*
D32*
X69432500Y-60960000D02*
X69850000Y-60960000D01*
X73385000Y-66675000D02*
X74360000Y-66675000D01*
X71267500Y-64557500D02*
X73385000Y-66675000D01*
X71267500Y-62082500D02*
X71267500Y-64557500D01*
X70145000Y-60960000D02*
X71267500Y-62082500D01*
X69432500Y-60960000D02*
X70145000Y-60960000D01*
X73385000Y-67945000D02*
X74360000Y-67945000D01*
X69432500Y-63992500D02*
X73385000Y-67945000D01*
X69432500Y-63500000D02*
X69432500Y-63992500D01*
X69850000Y-66040000D02*
X73025000Y-69215000D01*
X69432500Y-66040000D02*
X69850000Y-66040000D01*
X74360000Y-69215000D02*
X73025000Y-69215000D01*
X69432500Y-68580000D02*
X70485000Y-68580000D01*
X72390000Y-70485000D02*
X74360000Y-70485000D01*
X70485000Y-68580000D02*
X72390000Y-70485000D01*
X69432500Y-71120000D02*
X71120000Y-71120000D01*
X71755000Y-71755000D02*
X74360000Y-71755000D01*
X71120000Y-71120000D02*
X71755000Y-71755000D01*
X69432500Y-73660000D02*
X71120000Y-73660000D01*
X71755000Y-73025000D02*
X74360000Y-73025000D01*
X71120000Y-73660000D02*
X71755000Y-73025000D01*
X79310000Y-66675000D02*
X80645000Y-66675000D01*
X86777500Y-60542500D02*
X86777500Y-60325000D01*
X80645000Y-66675000D02*
X86777500Y-60542500D01*
X86360000Y-62865000D02*
X86777500Y-62865000D01*
X79310000Y-67945000D02*
X81280000Y-67945000D01*
X81280000Y-67945000D02*
X86360000Y-62865000D01*
X81915000Y-69215000D02*
X85725000Y-65405000D01*
X79310000Y-69215000D02*
X81915000Y-69215000D01*
X85725000Y-65405000D02*
X86777500Y-65405000D01*
X100330000Y-73660000D02*
X100330000Y-70545000D01*
X98425000Y-74960000D02*
X100300000Y-74960000D01*
X100330000Y-74930000D02*
X100330000Y-73660000D01*
X100300000Y-74960000D02*
X100330000Y-74930000D01*
D31*
X90805000Y-69850000D02*
X95885000Y-74930000D01*
X89752500Y-69850000D02*
X90805000Y-69850000D01*
X98395000Y-74930000D02*
X98425000Y-74960000D01*
X95885000Y-74930000D02*
X98395000Y-74930000D01*
D32*
X86142500Y-70485000D02*
X86777500Y-69850000D01*
X79310000Y-70485000D02*
X86142500Y-70485000D01*
X86142500Y-71755000D02*
X86777500Y-72390000D01*
X79310000Y-71755000D02*
X86142500Y-71755000D01*
X104140000Y-73660000D02*
X104140000Y-70545000D01*
X102235000Y-74945000D02*
X104125000Y-74945000D01*
X104140000Y-74930000D02*
X104140000Y-73660000D01*
X104125000Y-74945000D02*
X104140000Y-74930000D01*
D31*
X89752500Y-72390000D02*
X90805000Y-72390000D01*
X90805000Y-72390000D02*
X94615000Y-76200000D01*
X94615000Y-76200000D02*
X100980000Y-76200000D01*
X100980000Y-76200000D02*
X102235000Y-74945000D01*
D32*
X104140000Y-70545000D02*
X104140000Y-69850000D01*
X107950000Y-67885000D02*
X105410000Y-65345000D01*
X107950000Y-74930000D02*
X107950000Y-67885000D01*
X106045000Y-74945000D02*
X107935000Y-74945000D01*
X107935000Y-74945000D02*
X107950000Y-74930000D01*
D31*
X103520000Y-77470000D02*
X106045000Y-74945000D01*
X89752500Y-74930000D02*
X91440000Y-74930000D01*
X93980000Y-77470000D02*
X103520000Y-77470000D01*
X91440000Y-74930000D02*
X93980000Y-77470000D01*
D32*
X83820000Y-74930000D02*
X85090000Y-74930000D01*
X79310000Y-73025000D02*
X81915000Y-73025000D01*
X85090000Y-74930000D02*
X86777500Y-74930000D01*
X81915000Y-73025000D02*
X83820000Y-74930000D01*
X47320000Y-66895000D02*
X46145000Y-66895000D01*
X49530000Y-64685000D02*
X47320000Y-66895000D01*
X49530000Y-60542500D02*
X49530000Y-64685000D01*
D31*
X86577500Y-101062500D02*
X86360000Y-101280000D01*
X83487500Y-98000000D02*
X85000000Y-98000000D01*
X86360000Y-99360000D02*
X86360000Y-101280000D01*
X85000000Y-98000000D02*
X86360000Y-99360000D01*
D32*
X77470000Y-55462500D02*
X77470000Y-56175000D01*
X78964999Y-57669999D02*
X84339999Y-57669999D01*
X77470000Y-56175000D02*
X78964999Y-57669999D01*
X96630000Y-56235000D02*
X97480000Y-56235000D01*
X94329999Y-58535001D02*
X96630000Y-56235000D01*
X91599998Y-58420000D02*
X91714999Y-58535001D01*
X91714999Y-58535001D02*
X94329999Y-58535001D01*
X85090000Y-58420000D02*
X91599998Y-58420000D01*
X84339999Y-57669999D02*
X85090000Y-58420000D01*
D31*
X54189999Y-83605001D02*
X53340000Y-84455000D01*
X54940001Y-80975001D02*
X54940001Y-82854999D01*
X54940001Y-82854999D02*
X54189999Y-83605001D01*
X53340000Y-79375000D02*
X54940001Y-80975001D01*
X66040000Y-79375000D02*
X66040000Y-78105000D01*
X66040000Y-78105000D02*
X64770000Y-76835000D01*
X55880000Y-76835000D02*
X53340000Y-79375000D01*
X64770000Y-76835000D02*
X55880000Y-76835000D01*
X115275000Y-123190000D02*
X115987500Y-123190000D01*
X112612500Y-125852500D02*
X115275000Y-123190000D01*
X112612500Y-128905000D02*
X112612500Y-125852500D01*
X39225000Y-103650000D02*
X41275000Y-101600000D01*
X33194000Y-103650000D02*
X39225000Y-103650000D01*
X64135000Y-86360000D02*
X66040000Y-84455000D01*
X41275000Y-101600000D02*
X43815000Y-101600000D01*
X64135000Y-94615000D02*
X64135000Y-86360000D01*
X61595000Y-97155000D02*
X64135000Y-94615000D01*
X48260000Y-97155000D02*
X61595000Y-97155000D01*
X43815000Y-101600000D02*
X48260000Y-97155000D01*
D32*
X99060000Y-70545000D02*
X99060000Y-68580000D01*
X96610000Y-59055000D02*
X97480000Y-58185000D01*
X96520000Y-59055000D02*
X96610000Y-59055000D01*
X102870000Y-67945000D02*
X103505000Y-67310000D01*
X102870000Y-70545000D02*
X102870000Y-67945000D01*
X103905000Y-58185000D02*
X103180000Y-58185000D01*
X104775000Y-59055000D02*
X103905000Y-58185000D01*
X102870000Y-65345000D02*
X102870000Y-66675000D01*
X101600000Y-67945000D02*
X101600000Y-68580000D01*
X102870000Y-66675000D02*
X101600000Y-67945000D01*
X105160000Y-57535000D02*
X103180000Y-57535000D01*
X106045000Y-58420000D02*
X105160000Y-57535000D01*
X52925000Y-75345000D02*
X54610000Y-73660000D01*
X46145000Y-75345000D02*
X52925000Y-75345000D01*
X46145000Y-72745000D02*
X48540000Y-72745000D01*
X48540000Y-72745000D02*
X52705000Y-68580000D01*
X52705000Y-67945000D02*
X54610000Y-66040000D01*
X52705000Y-68580000D02*
X52705000Y-67945000D01*
X46145000Y-74045000D02*
X49780000Y-74045000D01*
X49780000Y-74045000D02*
X52705000Y-71120000D01*
X52705000Y-70485000D02*
X54610000Y-68580000D01*
X52705000Y-71120000D02*
X52705000Y-70485000D01*
X46145000Y-68845000D02*
X47360000Y-68845000D01*
X52387500Y-63817500D02*
X52387500Y-63182500D01*
X47360000Y-68845000D02*
X52387500Y-63817500D01*
X52387500Y-63182500D02*
X54610000Y-60960000D01*
X51035000Y-74695000D02*
X54610000Y-71120000D01*
X46145000Y-74695000D02*
X51035000Y-74695000D01*
X46145000Y-70145000D02*
X48600000Y-70145000D01*
X48600000Y-70145000D02*
X52705000Y-66040000D01*
X52705000Y-65390000D02*
X54595000Y-63500000D01*
X52705000Y-66040000D02*
X52705000Y-65390000D01*
X97480000Y-56885000D02*
X98795000Y-56885000D01*
X98795000Y-56885000D02*
X99060000Y-57150000D01*
D31*
X116205000Y-83770000D02*
X119000000Y-86565000D01*
X90170000Y-65405000D02*
X92710000Y-62865000D01*
X89752500Y-65405000D02*
X90170000Y-65405000D01*
X92710000Y-62865000D02*
X111760000Y-62865000D01*
X111760000Y-62865000D02*
X116205000Y-67310000D01*
X116205000Y-67310000D02*
X116205000Y-83770000D01*
D32*
X98765000Y-55585000D02*
X100330000Y-57150000D01*
X97480000Y-55585000D02*
X98765000Y-55585000D01*
X100330000Y-57150000D02*
X100330000Y-60325000D01*
D31*
X89752500Y-60325000D02*
X100330000Y-60325000D01*
X121285000Y-69280000D02*
X119000000Y-71565000D01*
X116840000Y-60325000D02*
X118110000Y-59055000D01*
X100330000Y-60325000D02*
X116840000Y-60325000D01*
X118110000Y-59055000D02*
X120015000Y-59055000D01*
X120015000Y-59055000D02*
X121285000Y-60325000D01*
X121285000Y-60325000D02*
X121285000Y-69280000D01*
D32*
X119000000Y-62755000D02*
X119000000Y-61975000D01*
X100020000Y-54935000D02*
X97480000Y-54935000D01*
X101600000Y-56515000D02*
X100020000Y-54935000D01*
D31*
X89752500Y-62865000D02*
X90170000Y-62865000D01*
X90170000Y-62865000D02*
X91440000Y-61595000D01*
D32*
X101600000Y-56515000D02*
X101600000Y-59055000D01*
D31*
X91440000Y-61595000D02*
X101600000Y-61595000D01*
X118970000Y-61595000D02*
X119000000Y-61565000D01*
X101600000Y-61595000D02*
X118970000Y-61595000D01*
X74442500Y-115935000D02*
X75565000Y-117057500D01*
X71755000Y-115935000D02*
X74442500Y-115935000D01*
X71755000Y-126880000D02*
X69095000Y-129540000D01*
X71755000Y-115935000D02*
X71755000Y-116840000D01*
X71755000Y-116840000D02*
X71755000Y-126880000D01*
X95280000Y-128905000D02*
X93345000Y-128905000D01*
X93345000Y-128905000D02*
X90805000Y-131445000D01*
X71000000Y-131445000D02*
X69095000Y-129540000D01*
X90805000Y-131445000D02*
X71000000Y-131445000D01*
X69215000Y-115935000D02*
X66527500Y-115935000D01*
X66527500Y-115935000D02*
X65405000Y-117057500D01*
X69215000Y-124420000D02*
X64095000Y-129540000D01*
X69215000Y-115935000D02*
X69215000Y-116840000D01*
X69215000Y-116840000D02*
X69215000Y-124420000D01*
X58567500Y-115935000D02*
X59690000Y-117057500D01*
X55880000Y-115935000D02*
X58567500Y-115935000D01*
X55880000Y-115935000D02*
X55880000Y-126325000D01*
X55880000Y-126325000D02*
X59095000Y-129540000D01*
X62270000Y-132715000D02*
X59095000Y-129540000D01*
X92075000Y-132715000D02*
X62270000Y-132715000D01*
X95280000Y-131445000D02*
X93345000Y-131445000D01*
X93345000Y-131445000D02*
X92075000Y-132715000D01*
X53340000Y-115935000D02*
X50652500Y-115935000D01*
X50652500Y-115935000D02*
X49530000Y-117057500D01*
X53340000Y-115935000D02*
X53340000Y-128785000D01*
X53340000Y-128785000D02*
X54095000Y-129540000D01*
X53355000Y-113920000D02*
X53340000Y-113935000D01*
X53355000Y-111760000D02*
X53355000Y-113920000D01*
X71740000Y-113920000D02*
X71755000Y-113935000D01*
X71740000Y-111760000D02*
X71740000Y-113920000D01*
X55865000Y-111760000D02*
X55865000Y-113920000D01*
X55865000Y-113920000D02*
X55880000Y-113935000D01*
X69230000Y-113920000D02*
X69215000Y-113935000D01*
X69230000Y-111760000D02*
X69230000Y-113920000D01*
D33*
X44667500Y-57150000D02*
X45085000Y-57567500D01*
X40259000Y-57150000D02*
X44667500Y-57150000D01*
M02*
