M48
; DRILL file {KiCad 5.1.8} date Mon Nov 23 23:25:42 2020
; FORMAT={-:-/ absolute / inch / decimal}
; #@! TF.CreationDate,2020-11-23T23:25:42+02:00
; #@! TF.GenerationSoftware,Kicad,Pcbnew,5.1.8
; #@! TF.FileFunction,Plated,1,4,PTH
FMAT,2
INCH
T1C0.0157
T2C0.0300
T3C0.0315
T4C0.0362
T5C0.0394
T6C0.0433
T7C0.0551
T8C0.0917
T9C0.1693
%
G90
G05
T1
X1.175Y-2.6475
X1.18Y-2.795
X1.18Y-2.895
X1.18Y-2.995
X1.4Y-2.65
X1.425Y-1.65
X1.445Y-2.855
X1.475Y-2.9
X1.6Y-2.725
X1.6Y-2.775
X1.6Y-4.95
X1.75Y-2.9
X1.775Y-1.5
X1.85Y-1.7
X1.9Y-2.725
X1.9Y-2.8
X1.95Y-1.7
X1.95Y-4.425
X1.975Y-4.675
X2.0Y-1.45
X2.025Y-2.275
X2.05Y-1.7
X2.275Y-2.7
X2.275Y-3.475
X2.325Y-2.625
X2.325Y-2.8
X2.35Y-4.425
X2.375Y-2.575
X2.375Y-2.9
X2.425Y-2.35
X2.425Y-2.5
X2.425Y-2.9
X2.475Y-2.4
X2.475Y-2.725
X2.5Y-1.625
X2.525Y-2.5
X2.525Y-2.8
X2.575Y-4.425
X2.7Y-1.625
X2.7953Y-2.3872
X2.85Y-2.3
X2.85Y-2.925
X2.85Y-3.7
X2.975Y-4.425
X3.1Y-2.0
X3.15Y-2.3
X3.2Y-2.225
X3.2Y-2.925
X3.2677Y-4.0551
X3.275Y-2.3
X3.3Y-2.0
X3.6Y-1.975
X3.622Y-4.2913
X3.625Y-2.275
X3.675Y-2.75
X3.75Y-2.325
X3.775Y-2.75
X3.8Y-2.325
X3.8189Y-1.9581
X3.9Y-2.25
X3.9Y-2.475
X3.9Y-2.7
X3.91Y-2.86
X3.937Y-2.0171
X4.0Y-2.325
X4.0Y-2.425
X4.0Y-2.7
X4.025Y-4.3
X4.0371Y-1.7029
X4.06Y-1.67
X4.06Y-2.86
X4.075Y-2.65
X4.1054Y-2.0524
X4.1144Y-4.447
X4.1144Y-4.597
X4.125Y-2.325
X4.125Y-3.075
X4.15Y-2.7
X4.175Y-2.3
X4.19Y-2.17
X4.1975Y-2.115
X4.2Y-2.85
X4.25Y-3.375
X4.25Y-3.825
X4.3Y-2.175
X4.3Y-2.25
X4.375Y-1.775
X4.375Y-2.775
X4.45Y-3.0
X4.5Y-4.1
X4.55Y-2.275
X4.5644Y-4.422
X4.5644Y-4.722
X4.575Y-2.0
X4.7144Y-4.422
X4.7144Y-4.722
X4.75Y-4.825
X4.8144Y-4.497
X4.8144Y-4.647
T2
X3.6344Y-4.7215
X3.7344Y-4.7215
X3.8344Y-4.7215
X3.9344Y-4.7215
T3
X1.475Y-5.05
X1.725Y-2.45
X3.8Y-4.3
X4.0Y-4.8
X4.55Y-4.35
X4.575Y-1.875
T4
X1.5063Y-2.1516
X1.5063Y-2.25
X1.585Y-2.1516
X1.585Y-2.25
T5
X1.625Y-3.9
X1.625Y-4.0
X3.7512Y-4.975
X3.7512Y-5.075
X3.7512Y-5.175
X3.8512Y-4.975
X3.8512Y-5.075
X3.8512Y-5.175
X1.625Y-4.4
X1.625Y-4.5
X1.625Y-4.6
X1.625Y-4.7
X2.895Y-3.13
X2.895Y-3.23
X2.895Y-3.33
X2.4Y-3.125
X2.4Y-3.225
X2.4Y-3.325
X1.625Y-3.2
X1.625Y-3.3
X1.625Y-3.4
X1.625Y-3.5
X2.0Y-3.125
X2.0Y-3.225
X2.0Y-3.325
X2.1Y-3.125
X2.1Y-3.225
X2.1Y-3.325
X2.6Y-3.125
X2.6Y-3.225
X2.6Y-3.325
X2.225Y-1.55
X2.325Y-1.55
X2.425Y-1.55
X2.525Y-1.55
X2.625Y-1.55
X2.725Y-1.55
X4.1Y-4.975
X4.1Y-5.075
X4.1Y-5.175
T6
X1.11Y-3.15
X1.11Y-3.5161
X1.3069Y-3.4807
X1.4289Y-3.276
X1.4289Y-3.402
X1.11Y-3.75
X1.11Y-4.1161
X1.3069Y-4.0807
X1.4289Y-3.876
X1.4289Y-4.002
X1.11Y-4.35
X1.11Y-4.7161
X1.3069Y-4.6807
X1.4289Y-4.476
X1.4289Y-4.602
T7
X2.961Y-1.6
X3.1579Y-1.6
X3.3547Y-1.6
X3.5516Y-1.6
X3.7484Y-1.6
X3.9453Y-1.6
X4.1421Y-1.6
X4.339Y-1.6
X3.1929Y-5.1
X3.3898Y-5.1
X4.685Y-2.4238
X4.685Y-2.6207
X4.685Y-2.8175
X4.685Y-3.0144
X4.685Y-3.2112
X4.685Y-3.4081
X4.685Y-3.6049
X4.685Y-3.8018
X1.9329Y-5.1
X2.1297Y-5.1
X2.3266Y-5.1
X2.5234Y-5.1
X2.7203Y-5.1
X2.9171Y-5.1
T8
X1.3996Y-1.9638
X1.3996Y-2.4378
T9
X4.7244Y-5.1181
X1.1811Y-5.1181
X1.1811Y-1.5748
X4.7244Y-1.5748
T0
M30
