G04 #@! TF.GenerationSoftware,KiCad,Pcbnew,5.1.8*
G04 #@! TF.CreationDate,2020-11-23T23:25:56+02:00*
G04 #@! TF.ProjectId,catahack,63617461-6861-4636-9b2e-6b696361645f,0*
G04 #@! TF.SameCoordinates,Original*
G04 #@! TF.FileFunction,Soldermask,Bot*
G04 #@! TF.FilePolarity,Negative*
%FSLAX46Y46*%
G04 Gerber Fmt 4.6, Leading zero omitted, Abs format (unit mm)*
G04 Created by KiCad (PCBNEW 5.1.8) date 2020-11-23 23:25:56*
%MOMM*%
%LPD*%
G01*
G04 APERTURE LIST*
%ADD10C,2.602000*%
%ADD11C,7.702000*%
%ADD12O,1.802000X1.802000*%
%ADD13C,1.626000*%
%ADD14C,1.202000*%
%ADD15C,1.752000*%
%ADD16C,1.802000*%
%ADD17C,3.602000*%
%ADD18C,0.100000*%
G04 APERTURE END LIST*
G36*
G01*
X47794000Y-130190500D02*
X47794000Y-128889500D01*
G75*
G02*
X48444500Y-128239000I650500J0D01*
G01*
X49745500Y-128239000D01*
G75*
G02*
X50396000Y-128889500I0J-650500D01*
G01*
X50396000Y-130190500D01*
G75*
G02*
X49745500Y-130841000I-650500J0D01*
G01*
X48444500Y-130841000D01*
G75*
G02*
X47794000Y-130190500I0J650500D01*
G01*
G37*
D10*
X54095000Y-129540000D03*
X59095000Y-129540000D03*
X64095000Y-129540000D03*
X69095000Y-129540000D03*
X74095000Y-129540000D03*
D11*
X120000000Y-130000000D03*
X120000000Y-40000000D03*
X30000000Y-130000000D03*
X30000000Y-40000000D03*
G36*
G01*
X49899000Y-80225000D02*
X49899000Y-78525000D01*
G75*
G02*
X49950000Y-78474000I51000J0D01*
G01*
X51650000Y-78474000D01*
G75*
G02*
X51701000Y-78525000I0J-51000D01*
G01*
X51701000Y-80225000D01*
G75*
G02*
X51650000Y-80276000I-51000J0D01*
G01*
X49950000Y-80276000D01*
G75*
G02*
X49899000Y-80225000I0J51000D01*
G01*
G37*
D12*
X53340000Y-79375000D03*
X50800000Y-81915000D03*
X53340000Y-81915000D03*
X50800000Y-84455000D03*
X53340000Y-84455000D03*
G36*
G01*
X91502000Y-120687000D02*
X91502000Y-119163000D01*
G75*
G02*
X91553000Y-119112000I51000J0D01*
G01*
X93077000Y-119112000D01*
G75*
G02*
X93128000Y-119163000I0J-51000D01*
G01*
X93128000Y-120687000D01*
G75*
G02*
X93077000Y-120738000I-51000J0D01*
G01*
X91553000Y-120738000D01*
G75*
G02*
X91502000Y-120687000I0J51000D01*
G01*
G37*
D13*
X94855000Y-119925000D03*
X97395000Y-119925000D03*
X99935000Y-119925000D03*
G36*
G01*
X65139000Y-80225000D02*
X65139000Y-78525000D01*
G75*
G02*
X65190000Y-78474000I51000J0D01*
G01*
X66890000Y-78474000D01*
G75*
G02*
X66941000Y-78525000I0J-51000D01*
G01*
X66941000Y-80225000D01*
G75*
G02*
X66890000Y-80276000I-51000J0D01*
G01*
X65190000Y-80276000D01*
G75*
G02*
X65139000Y-80225000I0J51000D01*
G01*
G37*
D12*
X66040000Y-81915000D03*
X66040000Y-84455000D03*
X41275000Y-101600000D03*
G36*
G01*
X40374000Y-99910000D02*
X40374000Y-98210000D01*
G75*
G02*
X40425000Y-98159000I51000J0D01*
G01*
X42125000Y-98159000D01*
G75*
G02*
X42176000Y-98210000I0J-51000D01*
G01*
X42176000Y-99910000D01*
G75*
G02*
X42125000Y-99961000I-51000J0D01*
G01*
X40425000Y-99961000D01*
G75*
G02*
X40374000Y-99910000I0J51000D01*
G01*
G37*
X41275000Y-88900000D03*
X41275000Y-86360000D03*
X41275000Y-83820000D03*
G36*
G01*
X40374000Y-82130000D02*
X40374000Y-80430000D01*
G75*
G02*
X40425000Y-80379000I51000J0D01*
G01*
X42125000Y-80379000D01*
G75*
G02*
X42176000Y-80430000I0J-51000D01*
G01*
X42176000Y-82130000D01*
G75*
G02*
X42125000Y-82181000I-51000J0D01*
G01*
X40425000Y-82181000D01*
G75*
G02*
X40374000Y-82130000I0J51000D01*
G01*
G37*
G36*
G01*
X40374000Y-112610000D02*
X40374000Y-110910000D01*
G75*
G02*
X40425000Y-110859000I51000J0D01*
G01*
X42125000Y-110859000D01*
G75*
G02*
X42176000Y-110910000I0J-51000D01*
G01*
X42176000Y-112610000D01*
G75*
G02*
X42125000Y-112661000I-51000J0D01*
G01*
X40425000Y-112661000D01*
G75*
G02*
X40374000Y-112610000I0J51000D01*
G01*
G37*
X41275000Y-114300000D03*
X41275000Y-116840000D03*
X41275000Y-119380000D03*
G36*
G01*
X79799000Y-130190500D02*
X79799000Y-128889500D01*
G75*
G02*
X80449500Y-128239000I650500J0D01*
G01*
X81750500Y-128239000D01*
G75*
G02*
X82401000Y-128889500I0J-650500D01*
G01*
X82401000Y-130190500D01*
G75*
G02*
X81750500Y-130841000I-650500J0D01*
G01*
X80449500Y-130841000D01*
G75*
G02*
X79799000Y-130190500I0J650500D01*
G01*
G37*
D10*
X86100000Y-129540000D03*
D12*
X73533000Y-84582000D03*
X73533000Y-82042000D03*
G36*
G01*
X72632000Y-80352000D02*
X72632000Y-78652000D01*
G75*
G02*
X72683000Y-78601000I51000J0D01*
G01*
X74383000Y-78601000D01*
G75*
G02*
X74434000Y-78652000I0J-51000D01*
G01*
X74434000Y-80352000D01*
G75*
G02*
X74383000Y-80403000I-51000J0D01*
G01*
X72683000Y-80403000D01*
G75*
G02*
X72632000Y-80352000I0J51000D01*
G01*
G37*
G36*
G01*
X68365000Y-38469000D02*
X70065000Y-38469000D01*
G75*
G02*
X70116000Y-38520000I0J-51000D01*
G01*
X70116000Y-40220000D01*
G75*
G02*
X70065000Y-40271000I-51000J0D01*
G01*
X68365000Y-40271000D01*
G75*
G02*
X68314000Y-40220000I0J51000D01*
G01*
X68314000Y-38520000D01*
G75*
G02*
X68365000Y-38469000I51000J0D01*
G01*
G37*
X66675000Y-39370000D03*
X64135000Y-39370000D03*
X61595000Y-39370000D03*
X59055000Y-39370000D03*
X56515000Y-39370000D03*
G36*
G01*
X105041000Y-130595000D02*
X105041000Y-132295000D01*
G75*
G02*
X104990000Y-132346000I-51000J0D01*
G01*
X103290000Y-132346000D01*
G75*
G02*
X103239000Y-132295000I0J51000D01*
G01*
X103239000Y-130595000D01*
G75*
G02*
X103290000Y-130544000I51000J0D01*
G01*
X104990000Y-130544000D01*
G75*
G02*
X105041000Y-130595000I0J-51000D01*
G01*
G37*
X104140000Y-128905000D03*
X104140000Y-126365000D03*
D10*
X75210000Y-40640000D03*
X80210000Y-40640000D03*
X85210000Y-40640000D03*
X90210000Y-40640000D03*
X95210000Y-40640000D03*
X100210000Y-40640000D03*
X105210000Y-40640000D03*
G36*
G01*
X111511000Y-39989500D02*
X111511000Y-41290500D01*
G75*
G02*
X110860500Y-41941000I-650500J0D01*
G01*
X109559500Y-41941000D01*
G75*
G02*
X108909000Y-41290500I0J650500D01*
G01*
X108909000Y-39989500D01*
G75*
G02*
X109559500Y-39339000I650500J0D01*
G01*
X110860500Y-39339000D01*
G75*
G02*
X111511000Y-39989500I0J-650500D01*
G01*
G37*
G36*
G01*
X119650500Y-97866000D02*
X118349500Y-97866000D01*
G75*
G02*
X117699000Y-97215500I0J650500D01*
G01*
X117699000Y-95914500D01*
G75*
G02*
X118349500Y-95264000I650500J0D01*
G01*
X119650500Y-95264000D01*
G75*
G02*
X120301000Y-95914500I0J-650500D01*
G01*
X120301000Y-97215500D01*
G75*
G02*
X119650500Y-97866000I-650500J0D01*
G01*
G37*
X119000000Y-91565000D03*
X119000000Y-86565000D03*
X119000000Y-81565000D03*
X119000000Y-76565000D03*
X119000000Y-71565000D03*
X119000000Y-66565000D03*
X119000000Y-61565000D03*
D12*
X97820000Y-131445000D03*
X95280000Y-131445000D03*
X97820000Y-128905000D03*
X95280000Y-128905000D03*
X97820000Y-126365000D03*
G36*
G01*
X94379000Y-127215000D02*
X94379000Y-125515000D01*
G75*
G02*
X94430000Y-125464000I51000J0D01*
G01*
X96130000Y-125464000D01*
G75*
G02*
X96181000Y-125515000I0J-51000D01*
G01*
X96181000Y-127215000D01*
G75*
G02*
X96130000Y-127266000I-51000J0D01*
G01*
X94430000Y-127266000D01*
G75*
G02*
X94379000Y-127215000I0J51000D01*
G01*
G37*
D14*
X33194000Y-84810000D03*
X28194000Y-84810000D03*
D15*
X36294000Y-86410000D03*
X28194000Y-89310000D03*
X36294000Y-83210000D03*
X33194000Y-88410000D03*
X28194000Y-80010000D03*
D14*
X33194000Y-100050000D03*
X28194000Y-100050000D03*
D15*
X36294000Y-101650000D03*
X28194000Y-104550000D03*
X36294000Y-98450000D03*
X33194000Y-103650000D03*
X28194000Y-95250000D03*
D14*
X33194000Y-115290000D03*
X28194000Y-115290000D03*
D15*
X36294000Y-116890000D03*
X28194000Y-119790000D03*
X36294000Y-113690000D03*
X33194000Y-118890000D03*
X28194000Y-110490000D03*
G36*
G01*
X41160000Y-56300000D02*
X41160000Y-58000000D01*
G75*
G02*
X41109000Y-58051000I-51000J0D01*
G01*
X39409000Y-58051000D01*
G75*
G02*
X39358000Y-58000000I0J51000D01*
G01*
X39358000Y-56300000D01*
G75*
G02*
X39409000Y-56249000I51000J0D01*
G01*
X41109000Y-56249000D01*
G75*
G02*
X41160000Y-56300000I0J-51000D01*
G01*
G37*
D16*
X40259000Y-54650000D03*
X38259000Y-54650000D03*
X38259000Y-57150000D03*
D17*
X35549000Y-61920000D03*
X35549000Y-49880000D03*
G36*
G01*
X60059000Y-80225000D02*
X60059000Y-78525000D01*
G75*
G02*
X60110000Y-78474000I51000J0D01*
G01*
X61810000Y-78474000D01*
G75*
G02*
X61861000Y-78525000I0J-51000D01*
G01*
X61861000Y-80225000D01*
G75*
G02*
X61810000Y-80276000I-51000J0D01*
G01*
X60110000Y-80276000D01*
G75*
G02*
X60059000Y-80225000I0J51000D01*
G01*
G37*
D12*
X60960000Y-81915000D03*
X60960000Y-84455000D03*
D18*
G36*
X82402165Y-130188874D02*
G01*
X82403000Y-130190500D01*
X82403000Y-130246860D01*
X82402990Y-130247056D01*
X82391099Y-130367789D01*
X82391023Y-130368174D01*
X82357595Y-130478370D01*
X82357445Y-130478732D01*
X82303166Y-130580281D01*
X82302948Y-130580607D01*
X82229897Y-130669620D01*
X82229620Y-130669897D01*
X82140607Y-130742948D01*
X82140281Y-130743166D01*
X82038732Y-130797445D01*
X82038370Y-130797595D01*
X81928174Y-130831023D01*
X81927789Y-130831099D01*
X81807056Y-130842990D01*
X81806860Y-130843000D01*
X81750500Y-130843000D01*
X81748768Y-130842000D01*
X81748768Y-130840000D01*
X81750304Y-130839010D01*
X81877011Y-130826531D01*
X81998667Y-130789627D01*
X82110782Y-130729700D01*
X82209052Y-130649052D01*
X82289700Y-130550782D01*
X82349627Y-130438667D01*
X82386531Y-130317011D01*
X82399010Y-130190304D01*
X82400175Y-130188678D01*
X82402165Y-130188874D01*
G37*
G36*
X79800990Y-130190304D02*
G01*
X79813469Y-130317011D01*
X79850373Y-130438667D01*
X79910300Y-130550782D01*
X79990948Y-130649052D01*
X80089218Y-130729700D01*
X80201333Y-130789627D01*
X80322989Y-130826531D01*
X80449696Y-130839010D01*
X80451322Y-130840175D01*
X80451126Y-130842165D01*
X80449500Y-130843000D01*
X80393140Y-130843000D01*
X80392944Y-130842990D01*
X80272211Y-130831099D01*
X80271826Y-130831023D01*
X80161630Y-130797595D01*
X80161268Y-130797445D01*
X80059719Y-130743166D01*
X80059393Y-130742948D01*
X79970380Y-130669897D01*
X79970103Y-130669620D01*
X79897052Y-130580607D01*
X79896834Y-130580281D01*
X79842555Y-130478732D01*
X79842405Y-130478370D01*
X79808977Y-130368174D01*
X79808901Y-130367789D01*
X79797010Y-130247056D01*
X79797000Y-130246860D01*
X79797000Y-130190500D01*
X79798000Y-130188768D01*
X79800000Y-130188768D01*
X79800990Y-130190304D01*
G37*
G36*
X47795990Y-130190304D02*
G01*
X47808469Y-130317011D01*
X47845373Y-130438667D01*
X47905300Y-130550782D01*
X47985948Y-130649052D01*
X48084218Y-130729700D01*
X48196333Y-130789627D01*
X48317989Y-130826531D01*
X48444696Y-130839010D01*
X48446322Y-130840175D01*
X48446126Y-130842165D01*
X48444500Y-130843000D01*
X48388140Y-130843000D01*
X48387944Y-130842990D01*
X48267211Y-130831099D01*
X48266826Y-130831023D01*
X48156630Y-130797595D01*
X48156268Y-130797445D01*
X48054719Y-130743166D01*
X48054393Y-130742948D01*
X47965380Y-130669897D01*
X47965103Y-130669620D01*
X47892052Y-130580607D01*
X47891834Y-130580281D01*
X47837555Y-130478732D01*
X47837405Y-130478370D01*
X47803977Y-130368174D01*
X47803901Y-130367789D01*
X47792010Y-130247056D01*
X47792000Y-130246860D01*
X47792000Y-130190500D01*
X47793000Y-130188768D01*
X47795000Y-130188768D01*
X47795990Y-130190304D01*
G37*
G36*
X50397165Y-130188874D02*
G01*
X50398000Y-130190500D01*
X50398000Y-130246860D01*
X50397990Y-130247056D01*
X50386099Y-130367789D01*
X50386023Y-130368174D01*
X50352595Y-130478370D01*
X50352445Y-130478732D01*
X50298166Y-130580281D01*
X50297948Y-130580607D01*
X50224897Y-130669620D01*
X50224620Y-130669897D01*
X50135607Y-130742948D01*
X50135281Y-130743166D01*
X50033732Y-130797445D01*
X50033370Y-130797595D01*
X49923174Y-130831023D01*
X49922789Y-130831099D01*
X49802056Y-130842990D01*
X49801860Y-130843000D01*
X49745500Y-130843000D01*
X49743768Y-130842000D01*
X49743768Y-130840000D01*
X49745304Y-130839010D01*
X49872011Y-130826531D01*
X49993667Y-130789627D01*
X50105782Y-130729700D01*
X50204052Y-130649052D01*
X50284700Y-130550782D01*
X50344627Y-130438667D01*
X50381531Y-130317011D01*
X50394010Y-130190304D01*
X50395175Y-130188678D01*
X50397165Y-130188874D01*
G37*
G36*
X48446232Y-128238000D02*
G01*
X48446232Y-128240000D01*
X48444696Y-128240990D01*
X48317989Y-128253469D01*
X48196333Y-128290373D01*
X48084218Y-128350300D01*
X47985948Y-128430948D01*
X47905300Y-128529218D01*
X47845373Y-128641333D01*
X47808469Y-128762989D01*
X47795990Y-128889696D01*
X47794825Y-128891322D01*
X47792835Y-128891126D01*
X47792000Y-128889500D01*
X47792000Y-128833140D01*
X47792010Y-128832944D01*
X47803901Y-128712211D01*
X47803977Y-128711826D01*
X47837405Y-128601630D01*
X47837555Y-128601268D01*
X47891834Y-128499719D01*
X47892052Y-128499393D01*
X47965103Y-128410380D01*
X47965380Y-128410103D01*
X48054393Y-128337052D01*
X48054719Y-128336834D01*
X48156268Y-128282555D01*
X48156630Y-128282405D01*
X48266826Y-128248977D01*
X48267211Y-128248901D01*
X48387944Y-128237010D01*
X48388140Y-128237000D01*
X48444500Y-128237000D01*
X48446232Y-128238000D01*
G37*
G36*
X80451232Y-128238000D02*
G01*
X80451232Y-128240000D01*
X80449696Y-128240990D01*
X80322989Y-128253469D01*
X80201333Y-128290373D01*
X80089218Y-128350300D01*
X79990948Y-128430948D01*
X79910300Y-128529218D01*
X79850373Y-128641333D01*
X79813469Y-128762989D01*
X79800990Y-128889696D01*
X79799825Y-128891322D01*
X79797835Y-128891126D01*
X79797000Y-128889500D01*
X79797000Y-128833140D01*
X79797010Y-128832944D01*
X79808901Y-128712211D01*
X79808977Y-128711826D01*
X79842405Y-128601630D01*
X79842555Y-128601268D01*
X79896834Y-128499719D01*
X79897052Y-128499393D01*
X79970103Y-128410380D01*
X79970380Y-128410103D01*
X80059393Y-128337052D01*
X80059719Y-128336834D01*
X80161268Y-128282555D01*
X80161630Y-128282405D01*
X80271826Y-128248977D01*
X80272211Y-128248901D01*
X80392944Y-128237010D01*
X80393140Y-128237000D01*
X80449500Y-128237000D01*
X80451232Y-128238000D01*
G37*
G36*
X81807056Y-128237010D02*
G01*
X81927789Y-128248901D01*
X81928174Y-128248977D01*
X82038370Y-128282405D01*
X82038732Y-128282555D01*
X82140281Y-128336834D01*
X82140607Y-128337052D01*
X82229620Y-128410103D01*
X82229897Y-128410380D01*
X82302948Y-128499393D01*
X82303166Y-128499719D01*
X82357445Y-128601268D01*
X82357595Y-128601630D01*
X82391023Y-128711826D01*
X82391099Y-128712211D01*
X82402990Y-128832944D01*
X82403000Y-128833140D01*
X82403000Y-128889500D01*
X82402000Y-128891232D01*
X82400000Y-128891232D01*
X82399010Y-128889696D01*
X82386531Y-128762989D01*
X82349627Y-128641333D01*
X82289700Y-128529218D01*
X82209052Y-128430948D01*
X82110782Y-128350300D01*
X81998667Y-128290373D01*
X81877011Y-128253469D01*
X81750304Y-128240990D01*
X81748678Y-128239825D01*
X81748874Y-128237835D01*
X81750500Y-128237000D01*
X81806860Y-128237000D01*
X81807056Y-128237010D01*
G37*
G36*
X49802056Y-128237010D02*
G01*
X49922789Y-128248901D01*
X49923174Y-128248977D01*
X50033370Y-128282405D01*
X50033732Y-128282555D01*
X50135281Y-128336834D01*
X50135607Y-128337052D01*
X50224620Y-128410103D01*
X50224897Y-128410380D01*
X50297948Y-128499393D01*
X50298166Y-128499719D01*
X50352445Y-128601268D01*
X50352595Y-128601630D01*
X50386023Y-128711826D01*
X50386099Y-128712211D01*
X50397990Y-128832944D01*
X50398000Y-128833140D01*
X50398000Y-128889500D01*
X50397000Y-128891232D01*
X50395000Y-128891232D01*
X50394010Y-128889696D01*
X50381531Y-128762989D01*
X50344627Y-128641333D01*
X50284700Y-128529218D01*
X50204052Y-128430948D01*
X50105782Y-128350300D01*
X49993667Y-128290373D01*
X49872011Y-128253469D01*
X49745304Y-128240990D01*
X49743678Y-128239825D01*
X49743874Y-128237835D01*
X49745500Y-128237000D01*
X49801860Y-128237000D01*
X49802056Y-128237010D01*
G37*
G36*
X120302165Y-97213874D02*
G01*
X120303000Y-97215500D01*
X120303000Y-97271860D01*
X120302990Y-97272056D01*
X120291099Y-97392789D01*
X120291023Y-97393174D01*
X120257595Y-97503370D01*
X120257445Y-97503732D01*
X120203166Y-97605281D01*
X120202948Y-97605607D01*
X120129897Y-97694620D01*
X120129620Y-97694897D01*
X120040607Y-97767948D01*
X120040281Y-97768166D01*
X119938732Y-97822445D01*
X119938370Y-97822595D01*
X119828174Y-97856023D01*
X119827789Y-97856099D01*
X119707056Y-97867990D01*
X119706860Y-97868000D01*
X119650500Y-97868000D01*
X119648768Y-97867000D01*
X119648768Y-97865000D01*
X119650304Y-97864010D01*
X119777011Y-97851531D01*
X119898667Y-97814627D01*
X120010782Y-97754700D01*
X120109052Y-97674052D01*
X120189700Y-97575782D01*
X120249627Y-97463667D01*
X120286531Y-97342011D01*
X120299010Y-97215304D01*
X120300175Y-97213678D01*
X120302165Y-97213874D01*
G37*
G36*
X117700990Y-97215304D02*
G01*
X117713469Y-97342011D01*
X117750373Y-97463667D01*
X117810300Y-97575782D01*
X117890948Y-97674052D01*
X117989218Y-97754700D01*
X118101333Y-97814627D01*
X118222989Y-97851531D01*
X118349696Y-97864010D01*
X118351322Y-97865175D01*
X118351126Y-97867165D01*
X118349500Y-97868000D01*
X118293140Y-97868000D01*
X118292944Y-97867990D01*
X118172211Y-97856099D01*
X118171826Y-97856023D01*
X118061630Y-97822595D01*
X118061268Y-97822445D01*
X117959719Y-97768166D01*
X117959393Y-97767948D01*
X117870380Y-97694897D01*
X117870103Y-97694620D01*
X117797052Y-97605607D01*
X117796834Y-97605281D01*
X117742555Y-97503732D01*
X117742405Y-97503370D01*
X117708977Y-97393174D01*
X117708901Y-97392789D01*
X117697010Y-97272056D01*
X117697000Y-97271860D01*
X117697000Y-97215500D01*
X117698000Y-97213768D01*
X117700000Y-97213768D01*
X117700990Y-97215304D01*
G37*
G36*
X118351232Y-95263000D02*
G01*
X118351232Y-95265000D01*
X118349696Y-95265990D01*
X118222989Y-95278469D01*
X118101333Y-95315373D01*
X117989218Y-95375300D01*
X117890948Y-95455948D01*
X117810300Y-95554218D01*
X117750373Y-95666333D01*
X117713469Y-95787989D01*
X117700990Y-95914696D01*
X117699825Y-95916322D01*
X117697835Y-95916126D01*
X117697000Y-95914500D01*
X117697000Y-95858140D01*
X117697010Y-95857944D01*
X117708901Y-95737211D01*
X117708977Y-95736826D01*
X117742405Y-95626630D01*
X117742555Y-95626268D01*
X117796834Y-95524719D01*
X117797052Y-95524393D01*
X117870103Y-95435380D01*
X117870380Y-95435103D01*
X117959393Y-95362052D01*
X117959719Y-95361834D01*
X118061268Y-95307555D01*
X118061630Y-95307405D01*
X118171826Y-95273977D01*
X118172211Y-95273901D01*
X118292944Y-95262010D01*
X118293140Y-95262000D01*
X118349500Y-95262000D01*
X118351232Y-95263000D01*
G37*
G36*
X119707056Y-95262010D02*
G01*
X119827789Y-95273901D01*
X119828174Y-95273977D01*
X119938370Y-95307405D01*
X119938732Y-95307555D01*
X120040281Y-95361834D01*
X120040607Y-95362052D01*
X120129620Y-95435103D01*
X120129897Y-95435380D01*
X120202948Y-95524393D01*
X120203166Y-95524719D01*
X120257445Y-95626268D01*
X120257595Y-95626630D01*
X120291023Y-95736826D01*
X120291099Y-95737211D01*
X120302990Y-95857944D01*
X120303000Y-95858140D01*
X120303000Y-95914500D01*
X120302000Y-95916232D01*
X120300000Y-95916232D01*
X120299010Y-95914696D01*
X120286531Y-95787989D01*
X120249627Y-95666333D01*
X120189700Y-95554218D01*
X120109052Y-95455948D01*
X120010782Y-95375300D01*
X119898667Y-95315373D01*
X119777011Y-95278469D01*
X119650304Y-95265990D01*
X119648678Y-95264825D01*
X119648874Y-95262835D01*
X119650500Y-95262000D01*
X119706860Y-95262000D01*
X119707056Y-95262010D01*
G37*
G36*
X39359165Y-56831665D02*
G01*
X39360000Y-56833291D01*
X39360000Y-57466709D01*
X39359000Y-57468441D01*
X39357000Y-57468441D01*
X39356010Y-57466905D01*
X39353628Y-57442718D01*
X39346628Y-57419643D01*
X39335263Y-57398379D01*
X39319968Y-57379742D01*
X39301331Y-57364447D01*
X39280067Y-57353082D01*
X39256992Y-57346082D01*
X39233001Y-57343719D01*
X39209010Y-57346082D01*
X39185935Y-57353082D01*
X39164671Y-57364447D01*
X39146034Y-57379742D01*
X39130739Y-57398379D01*
X39122172Y-57414408D01*
X39120473Y-57415464D01*
X39118710Y-57414521D01*
X39118560Y-57412700D01*
X39119279Y-57410964D01*
X39153661Y-57238114D01*
X39153661Y-57061886D01*
X39119279Y-56889036D01*
X39118560Y-56887300D01*
X39118821Y-56885318D01*
X39120669Y-56884552D01*
X39122172Y-56885592D01*
X39130739Y-56901621D01*
X39146035Y-56920258D01*
X39164672Y-56935553D01*
X39185935Y-56946918D01*
X39209010Y-56953918D01*
X39233001Y-56956281D01*
X39256992Y-56953918D01*
X39280067Y-56946918D01*
X39301331Y-56935553D01*
X39319968Y-56920257D01*
X39335263Y-56901620D01*
X39346628Y-56880357D01*
X39353628Y-56857282D01*
X39356010Y-56833095D01*
X39357175Y-56831469D01*
X39359165Y-56831665D01*
G37*
G36*
X39381277Y-54472453D02*
G01*
X39381779Y-54474210D01*
X39364339Y-54561886D01*
X39364339Y-54738114D01*
X39381779Y-54825790D01*
X39381136Y-54827684D01*
X39379174Y-54828074D01*
X39377903Y-54826761D01*
X39372627Y-54809369D01*
X39361262Y-54788105D01*
X39345967Y-54769468D01*
X39327330Y-54754173D01*
X39306066Y-54742808D01*
X39282991Y-54735808D01*
X39259000Y-54733445D01*
X39235009Y-54735808D01*
X39211934Y-54742808D01*
X39190670Y-54754173D01*
X39172033Y-54769468D01*
X39156738Y-54788105D01*
X39145373Y-54809369D01*
X39140097Y-54826761D01*
X39138637Y-54828128D01*
X39136723Y-54827547D01*
X39136221Y-54825790D01*
X39153661Y-54738114D01*
X39153661Y-54561886D01*
X39136221Y-54474210D01*
X39136864Y-54472316D01*
X39138826Y-54471926D01*
X39140097Y-54473239D01*
X39145373Y-54490631D01*
X39156738Y-54511895D01*
X39172033Y-54530532D01*
X39190670Y-54545827D01*
X39211934Y-54557192D01*
X39235009Y-54564192D01*
X39259000Y-54566555D01*
X39282991Y-54564192D01*
X39306066Y-54557192D01*
X39327330Y-54545827D01*
X39345967Y-54530532D01*
X39361262Y-54511895D01*
X39372627Y-54490631D01*
X39377903Y-54473239D01*
X39379363Y-54471872D01*
X39381277Y-54472453D01*
G37*
G36*
X111512165Y-41288874D02*
G01*
X111513000Y-41290500D01*
X111513000Y-41346860D01*
X111512990Y-41347056D01*
X111501099Y-41467789D01*
X111501023Y-41468174D01*
X111467595Y-41578370D01*
X111467445Y-41578732D01*
X111413166Y-41680281D01*
X111412948Y-41680607D01*
X111339897Y-41769620D01*
X111339620Y-41769897D01*
X111250607Y-41842948D01*
X111250281Y-41843166D01*
X111148732Y-41897445D01*
X111148370Y-41897595D01*
X111038174Y-41931023D01*
X111037789Y-41931099D01*
X110917056Y-41942990D01*
X110916860Y-41943000D01*
X110860500Y-41943000D01*
X110858768Y-41942000D01*
X110858768Y-41940000D01*
X110860304Y-41939010D01*
X110987011Y-41926531D01*
X111108667Y-41889627D01*
X111220782Y-41829700D01*
X111319052Y-41749052D01*
X111399700Y-41650782D01*
X111459627Y-41538667D01*
X111496531Y-41417011D01*
X111509010Y-41290304D01*
X111510175Y-41288678D01*
X111512165Y-41288874D01*
G37*
G36*
X108910990Y-41290304D02*
G01*
X108923469Y-41417011D01*
X108960373Y-41538667D01*
X109020300Y-41650782D01*
X109100948Y-41749052D01*
X109199218Y-41829700D01*
X109311333Y-41889627D01*
X109432989Y-41926531D01*
X109559696Y-41939010D01*
X109561322Y-41940175D01*
X109561126Y-41942165D01*
X109559500Y-41943000D01*
X109503140Y-41943000D01*
X109502944Y-41942990D01*
X109382211Y-41931099D01*
X109381826Y-41931023D01*
X109271630Y-41897595D01*
X109271268Y-41897445D01*
X109169719Y-41843166D01*
X109169393Y-41842948D01*
X109080380Y-41769897D01*
X109080103Y-41769620D01*
X109007052Y-41680607D01*
X109006834Y-41680281D01*
X108952555Y-41578732D01*
X108952405Y-41578370D01*
X108918977Y-41468174D01*
X108918901Y-41467789D01*
X108907010Y-41347056D01*
X108907000Y-41346860D01*
X108907000Y-41290500D01*
X108908000Y-41288768D01*
X108910000Y-41288768D01*
X108910990Y-41290304D01*
G37*
G36*
X109561232Y-39338000D02*
G01*
X109561232Y-39340000D01*
X109559696Y-39340990D01*
X109432989Y-39353469D01*
X109311333Y-39390373D01*
X109199218Y-39450300D01*
X109100948Y-39530948D01*
X109020300Y-39629218D01*
X108960373Y-39741333D01*
X108923469Y-39862989D01*
X108910990Y-39989696D01*
X108909825Y-39991322D01*
X108907835Y-39991126D01*
X108907000Y-39989500D01*
X108907000Y-39933140D01*
X108907010Y-39932944D01*
X108918901Y-39812211D01*
X108918977Y-39811826D01*
X108952405Y-39701630D01*
X108952555Y-39701268D01*
X109006834Y-39599719D01*
X109007052Y-39599393D01*
X109080103Y-39510380D01*
X109080380Y-39510103D01*
X109169393Y-39437052D01*
X109169719Y-39436834D01*
X109271268Y-39382555D01*
X109271630Y-39382405D01*
X109381826Y-39348977D01*
X109382211Y-39348901D01*
X109502944Y-39337010D01*
X109503140Y-39337000D01*
X109559500Y-39337000D01*
X109561232Y-39338000D01*
G37*
G36*
X110917056Y-39337010D02*
G01*
X111037789Y-39348901D01*
X111038174Y-39348977D01*
X111148370Y-39382405D01*
X111148732Y-39382555D01*
X111250281Y-39436834D01*
X111250607Y-39437052D01*
X111339620Y-39510103D01*
X111339897Y-39510380D01*
X111412948Y-39599393D01*
X111413166Y-39599719D01*
X111467445Y-39701268D01*
X111467595Y-39701630D01*
X111501023Y-39811826D01*
X111501099Y-39812211D01*
X111512990Y-39932944D01*
X111513000Y-39933140D01*
X111513000Y-39989500D01*
X111512000Y-39991232D01*
X111510000Y-39991232D01*
X111509010Y-39989696D01*
X111496531Y-39862989D01*
X111459627Y-39741333D01*
X111399700Y-39629218D01*
X111319052Y-39530948D01*
X111220782Y-39450300D01*
X111108667Y-39390373D01*
X110987011Y-39353469D01*
X110860304Y-39340990D01*
X110858678Y-39339825D01*
X110858874Y-39337835D01*
X110860500Y-39337000D01*
X110916860Y-39337000D01*
X110917056Y-39337010D01*
G37*
M02*
